SplineFontDB: 3.0
FontName: Caudex-Italic
FullName: Caudex Italic
FamilyName: Caudex
Weight: Book
Copyright: Copyright (c) 2011 Hjort Nidudsson
Version: 1.01
ItalicAngle: -13
UnderlinePosition: -100
UnderlineWidth: 30
Ascent: 1638
Descent: 410
LayerCount: 2
Layer: 0 1 "Back"  1
Layer: 1 1 "Fore"  0
NeedsXUIDChange: 1
XUID: [1021 997 1545580258 13397067]
FSType: 0
OS2Version: 0
OS2_WeightWidthSlopeOnly: 0
OS2_UseTypoMetrics: 1
CreationTime: 936868149
ModificationTime: 1305227806
PfmFamily: 17
TTFWeight: 400
TTFWidth: 5
LineGap: 0
VLineGap: 0
Panose: 2 4 5 2 5 5 5 9 3 4
OS2TypoAscent: 2034
OS2TypoAOffset: 0
OS2TypoDescent: -606
OS2TypoDOffset: 0
OS2TypoLinegap: 0
OS2WinAscent: 2034
OS2WinAOffset: 0
OS2WinDescent: 606
OS2WinDOffset: 0
HheadAscent: 2034
HheadAOffset: 0
HheadDescent: -606
HheadDOffset: 0
OS2SubXSize: 1285
OS2SubYSize: 1230
OS2SubXOff: 0
OS2SubYOff: 0
OS2SupXSize: 655
OS2SupYSize: 860
OS2SupXOff: 0
OS2SupYOff: 550
OS2StrikeYSize: 100
OS2StrikeYPos: 530
OS2FamilyClass: 260
OS2Vendor: 'PfEd'
Lookup: 258 0 0 "'kern' Horizontal Kerning in Latin lookup 0"  {"'kern' Horizontal Kerning in Latin lookup 0 subtable"  } ['kern' ('latn' <'dflt' > ) ]
MarkAttachClasses: 1
DEI: 91125
KernClass2: 18 19 "'kern' Horizontal Kerning in Latin lookup 0 subtable" 
 134 A Aacute Agrave Acirc Auml Atilde Abreve Aring Aringacute Amacr Aogon Adotbl Ahook uni1EA4 uni1EA6 uni1EA8 uni1EAA uni1EAC Abreveacute
 14 F uni03DC Fdot
 49 L Lacute Lcommaaccent Ldot Ldotbl Lbrk Lhighstrok
 42 P Rho Pacute Pdot Pbardes Pflour Psquirrel
 40 R Racute Rcommaaccent Rcaron Rdot Rdotbl
 33 T Tcommaaccent Tcaron Tdot Tdotbl
 53 V W Wcirc Vdotbl Wgrave Wacute Wuml Wdot Wdotbl YYlig
 62 Y Ycirc Yuml Ymacr Upsilondieresis Ygrave Ydotbl Yhook uni1EF8
 21 r rcommaaccent rdotbl
 65 v w wcirc vscap wscap vdotbl wgrave wacute wuml wdot wdotbl yylig
 46 y ycirc ydot yring ygrave ydotbl yhook uni1EF9
 8 ldquolow
 5 lsquo
 5 rsquo
 5 ldquo
 8 lsquolow
 20 m macute mdot mdotbl
 5 space
 12 comma period

StartChar: .notdef
Encoding: 65536 -1 0
Width: 772
Flags: W
LayerCount: 2
Fore
SplineSet
324 1404 m 1,0,-1
 1096 1404 l 1,1,-1
 772 0 l 1,2,-1
 0 0 l 1,3,-1
 324 1404 l 1,0,-1
328 244 m 2,5,-1
 312 175 l 2,6,7
 310 164 310 164 310 155 c 0,8,9
 310 102 310 102 388 102 c 0,10,11
 480 102 480 102 496 175 c 2,12,-1
 512 244 l 2,13,14
 515 255 515 255 515 265 c 0,15,16
 515 317 515 317 437 317 c 0,17,4
 345 317 345 317 328 244 c 2,5,-1
515 504 m 1,18,-1
 553 653 l 2,19,20
 568 713 568 713 592 744 c 0,21,22
 614 773 614 773 673 805 c 0,23,24
 697 819 697 819 715 829 c 0,25,26
 880 917 880 917 912 1059 c 0,27,28
 920 1094 920 1094 920 1125 c 0,29,30
 920 1192 920 1192 879 1237 c 0,31,32
 818 1302 818 1302 684 1302 c 0,33,34
 554 1302 554 1302 464 1235 c 0,35,36
 374 1169 374 1169 347 1054 c 0,37,38
 345 1045 345 1045 345 1038 c 0,39,40
 345 1024 345 1024 353 1016 c 0,41,42
 364 1005 364 1005 394 1005 c 0,43,44
 420 1005 420 1005 441 1016 c 0,45,46
 458 1026 458 1026 464 1046 c 0,47,48
 500 1162 500 1162 542 1204 c 1,49,50
 583 1248 583 1248 651 1248 c 0,51,52
 728 1248 728 1248 757 1201 c 0,53,54
 772 1175 772 1175 772 1135 c 0,55,56
 772 1102 772 1102 762 1059 c 0,57,58
 742 971 742 971 688 908 c 1,59,60
 631 844 631 844 509 771 c 1,61,-1
 448 505 l 2,62,63
 441 476 441 476 441 453 c 0,64,65
 441 444 441 444 442 436 c 0,66,67
 444 411 444 411 459 411 c 0,68,69
 476 411 476 411 490 433 c 256,70,71
 504 455 504 455 515 504 c 1,18,-1
EndSplineSet
Validated: 1
EndChar

StartChar: excl
Encoding: 33 33 4
Width: 498
GlyphClass: 2
Flags: W
LayerCount: 2
Fore
SplineSet
381 375 m 1,0,1
 375 351 375 351 350 351 c 2,2,-1
 329 351 l 2,3,4
 310 351 310 351 310 366 c 0,5,6
 310 370 310 370 311 375 c 2,7,-1
 461 1330 l 1,8,-1
 463 1340 l 1,9,10
 478 1404 478 1404 551 1404 c 2,11,-1
 614 1404 l 2,12,13
 676 1404 676 1404 676 1359 c 0,14,15
 676 1350 676 1350 673 1339 c 2,16,-1
 671 1330 l 1,17,-1
 381 375 l 1,0,1
312 230 m 0,18,19
 405 230 405 230 405 168 c 0,20,21
 405 156 405 156 402 143 c 2,22,-1
 383 61 l 2,23,24
 363 -25 363 -25 253 -25 c 0,25,26
 160 -25 160 -25 160 37 c 0,27,28
 160 48 160 48 163 61 c 2,29,-1
 182 143 l 2,30,31
 202 230 202 230 312 230 c 0,18,19
EndSplineSet
Validated: 1
EndChar

StartChar: quot
Encoding: 34 34 5
Width: 834
GlyphClass: 2
Flags: W
LayerCount: 2
Fore
SplineSet
446 969 m 1,0,1
 443 957 443 957 424 957 c 2,2,-1
 409 957 l 2,3,4
 394 957 394 957 394 966 c 2,5,-1
 394 969 l 1,6,-1
 443 1409 l 1,7,-1
 444 1413 l 2,8,9
 451 1443 451 1443 505 1443 c 2,10,-1
 552 1443 l 2,11,12
 600 1443 600 1443 600 1420 c 0,13,14
 600 1417 600 1417 599 1414 c 2,15,-1
 598 1409 l 1,16,-1
 446 969 l 1,0,1
818 969 m 1,17,18
 815 957 815 957 797 957 c 2,19,-1
 782 957 l 2,20,21
 767 957 767 957 767 966 c 2,22,-1
 767 969 l 1,23,-1
 816 1409 l 1,24,-1
 817 1413 l 2,25,26
 824 1443 824 1443 878 1443 c 2,27,-1
 925 1443 l 2,28,29
 973 1443 973 1443 973 1419 c 0,30,31
 973 1416 973 1416 972 1412 c 2,32,-1
 971 1409 l 1,33,-1
 818 969 l 1,17,18
EndSplineSet
Validated: 1
EndChar

StartChar: numbersign
Encoding: 35 35 6
Width: 1128
GlyphClass: 2
Flags: W
LayerCount: 2
Fore
SplineSet
387 18 m 2,0,-1
 471 381 l 1,1,-1
 192 381 l 2,2,3
 180 381 180 381 180 389 c 2,4,-1
 180 391 l 1,5,-1
 200 476 l 2,6,7
 202 486 202 486 216 486 c 2,8,-1
 495 486 l 1,9,-1
 559 761 l 1,10,-1
 280 761 l 2,11,12
 268 761 268 761 268 769 c 2,13,-1
 268 771 l 1,14,-1
 288 856 l 2,15,16
 290 866 290 866 304 866 c 2,17,-1
 583 866 l 1,18,-1
 667 1229 l 2,19,20
 671 1246 671 1246 681 1246 c 2,21,-1
 766 1246 l 2,22,23
 773 1246 773 1246 773 1237 c 0,24,25
 773 1234 773 1234 772 1229 c 2,26,-1
 688 866 l 1,27,-1
 875 866 l 1,28,-1
 959 1229 l 2,29,30
 963 1246 963 1246 974 1246 c 2,31,-1
 1058 1246 l 2,32,33
 1066 1246 1066 1246 1066 1237 c 0,34,35
 1066 1234 1066 1234 1065 1229 c 2,36,-1
 981 866 l 1,37,-1
 1259 866 l 2,38,39
 1272 866 1272 866 1272 858 c 2,40,-1
 1272 856 l 1,41,-1
 1252 771 l 2,42,43
 1250 761 1250 761 1235 761 c 2,44,-1
 957 761 l 1,45,-1
 893 486 l 1,46,-1
 1171 486 l 2,47,48
 1184 486 1184 486 1184 478 c 2,49,-1
 1184 476 l 1,50,-1
 1164 391 l 2,51,52
 1162 381 1162 381 1147 381 c 2,53,-1
 869 381 l 1,54,-1
 785 18 l 2,55,56
 781 0 781 0 770 0 c 2,57,-1
 686 0 l 2,58,59
 678 0 678 0 678 10 c 0,60,61
 678 13 678 13 679 18 c 2,62,-1
 763 381 l 1,63,-1
 576 381 l 1,64,-1
 492 18 l 2,65,66
 488 0 488 0 478 0 c 2,67,-1
 393 0 l 2,68,69
 386 0 386 0 386 9 c 0,70,71
 386 13 386 13 387 18 c 2,0,-1
664 761 m 1,72,-1
 600 486 l 1,73,-1
 787 486 l 1,74,-1
 851 761 l 1,75,-1
 664 761 l 1,72,-1
EndSplineSet
Validated: 1
EndChar

StartChar: dollar
Encoding: 36 36 7
Width: 1024
GlyphClass: 2
Flags: W
LayerCount: 2
Fore
SplineSet
814 1504 m 2,0,-1
 860 1504 l 2,1,2
 879 1504 879 1504 879 1489 c 0,3,4
 879 1485 879 1485 878 1481 c 2,5,-1
 849 1357 l 1,6,7
 1051 1357 1051 1357 1188 1253 c 1,8,-1
 1120 1056 l 2,9,10
 1114 1038 1114 1038 1101 1038 c 0,11,12
 1098 1038 1098 1038 1095 1039 c 0,13,14
 1083 1040 1083 1040 1077 1065 c 0,15,16
 1056 1149 1056 1149 993 1209 c 128,-1,17
 930 1269 930 1269 843 1272 c 0,18,19
 839 1272 839 1272 836 1272.5 c 128,-1,20
 833 1273 833 1273 830 1273 c 1,21,-1
 714 770 l 1,22,23
 763 761 763 761 816.5 752.5 c 128,-1,24
 870 744 870 744 918 728 c 0,25,26
 1004 700 1004 700 1040 649 c 1,27,28
 1067 609 1067 609 1075 564 c 0,29,30
 1080 539 1080 539 1080 512 c 0,31,32
 1080 473 1080 473 1070 428 c 0,33,34
 1023 227 1023 227 830 94 c 0,35,36
 729 24 729 24 619 -8 c 0,37,38
 576 -21 576 -21 529 -29 c 1,39,-1
 487 -213 l 2,40,41
 482 -236 482 -236 459 -236 c 2,42,-1
 413 -236 l 2,43,44
 394 -236 394 -236 394 -221 c 0,45,46
 394 -217 394 -217 395 -213 c 2,47,-1
 435 -39 l 1,48,-1
 407 -39 l 2,49,50
 265 -39 265 -39 155 -2 c 1,51,-1
 123 245 l 1,52,-1
 130 268 l 1,53,54
 137 285 137 285 154 285 c 2,55,-1
 156 285 l 1,56,57
 166 283 166 283 174 258 c 1,58,59
 201 141 201 141 267 94 c 128,-1,60
 333 47 333 47 455 47 c 1,61,-1
 586 613 l 1,62,63
 535 622 535 622 486.5 634 c 128,-1,64
 438 646 438 646 396 670 c 1,65,66
 322 709 322 709 299 786 c 0,67,68
 286 827 286 827 286 871 c 0,69,70
 286 911 286 911 296 953 c 0,71,72
 336 1128 336 1128 485 1241 c 0,73,74
 600 1329 600 1329 756 1351 c 1,75,-1
 786 1481 l 2,76,77
 791 1504 791 1504 814 1504 c 2,0,-1
674 598 m 1,78,-1
 548 52 l 1,79,80
 707 74 707 74 808 192 c 0,81,82
 869 264 869 264 892 364 c 2,83,-1
 894 373 l 2,84,85
 900 400 900 400 900 423 c 0,86,87
 900 492 900 492 851 534 c 0,88,89
 820 560 820 560 774 575 c 1,90,91
 733 587 733 587 674 598 c 1,78,-1
625 785 m 1,92,-1
 736 1263 l 1,93,94
 699 1255 699 1255 666 1241 c 0,95,96
 618 1221 618 1221 584 1191 c 1,97,98
 554 1167 554 1167 526 1127 c 0,99,100
 502 1092 502 1092 486 1055 c 0,101,102
 473 1025 473 1025 466 998 c 1,103,104
 461 974 461 974 461 952 c 0,105,106
 461 941 461 941 462 930 c 0,107,108
 467 869 467 869 506 833 c 1,109,110
 537 806 537 806 578 796 c 0,111,112
 583 794 583 794 625 785 c 1,92,-1
EndSplineSet
Validated: 1
EndChar

StartChar: percnt
Encoding: 37 37 8
Width: 1024
GlyphClass: 2
Flags: W
LayerCount: 2
Fore
SplineSet
902 601 m 0,0,1
 806 600 806 600 771.5 524 c 128,-1,2
 737 448 737 448 725 396 c 2,3,-1
 681 202 l 1,4,5
 668 151 668 151 668 79 c 0,6,7
 668 76 668 76 669 73 c 1,8,9
 669 -3 669 -3 762 -3 c 0,10,11
 826 -3 826 -3 872.5 57 c 128,-1,12
 919 117 919 117 939 202 c 2,13,-1
 983 396 l 2,14,15
 994 443 994 443 994 483 c 0,16,17
 994 514 994 514 988 541 c 1,18,19
 972 601 972 601 902 601 c 0,0,1
910 638 m 0,20,21
 1021 638 1021 638 1065 570 c 1,22,23
 1093 524 1093 524 1093 467 c 0,24,25
 1093 439 1093 439 1086 407 c 2,26,-1
 1036 190 l 2,27,28
 1014 94 1014 94 931 27.5 c 128,-1,29
 848 -39 848 -39 754 -39 c 0,30,31
 634 -39 634 -39 595 28 c 0,32,33
 569 71 569 71 569 126 c 0,34,35
 569 156 569 156 577 190 c 2,36,-1
 627 407 l 2,37,38
 649 502 649 502 725 570 c 128,-1,39
 801 638 801 638 910 638 c 0,20,21
579 1321 m 1,40,41
 483 1319 483 1319 448.5 1243 c 128,-1,42
 414 1167 414 1167 402 1115 c 2,43,-1
 358 921 l 1,44,45
 345 870 345 870 345 798 c 0,46,47
 345 795 345 795 346 792 c 1,48,49
 346 716 346 716 439 716 c 0,50,51
 503 716 503 716 549.5 776 c 128,-1,52
 596 836 596 836 616 921 c 2,53,-1
 660 1115 l 2,54,55
 671 1163 671 1163 671 1203 c 0,56,57
 671 1234 671 1234 665 1260 c 0,58,59
 650 1321 650 1321 579 1321 c 1,40,41
587 1357 m 0,60,61
 699 1357 699 1357 743 1289 c 0,62,63
 771 1244 771 1244 771 1187 c 0,64,65
 771 1159 771 1159 764 1127 c 2,66,-1
 714 909 l 2,67,68
 692 814 692 814 608.5 746.5 c 128,-1,69
 525 679 525 679 431 679 c 0,70,71
 312 679 312 679 273 747 c 0,72,73
 247 791 247 791 247 845 c 0,74,75
 247 875 247 875 255 909 c 2,76,-1
 305 1127 l 2,77,78
 327 1222 327 1222 402.5 1289.5 c 128,-1,79
 478 1357 478 1357 587 1357 c 0,60,61
1252 1400 m 1,80,-1
 1340 1400 l 1,81,-1
 108 0 l 1,82,-1
 20 0 l 1,83,-1
 1252 1400 l 1,80,-1
EndSplineSet
Validated: 1
EndChar

StartChar: amp
Encoding: 38 38 9
Width: 1292
GlyphClass: 2
Flags: W
LayerCount: 2
Fore
SplineSet
947 302 m 1,0,-1
 1032 155 l 1,1,2
 1066 91 1066 91 1161 41 c 1,3,4
 1186 29 1186 29 1190 17 c 0,5,6
 1191 14 1191 14 1191 12 c 256,7,8
 1191 10 1191 10 1190 8 c 0,9,10
 1187 4 1187 4 1187 3 c 0,11,12
 1181 -2 1181 -2 1172 -2 c 2,13,-1
 928 -2 l 2,14,15
 893 -2 893 -2 865 66 c 0,16,17
 844 117 844 117 818 158 c 1,18,19
 715 59 715 59 613 13 c 0,20,21
 511 -32 511 -32 396 -32 c 0,22,23
 260 -32 260 -32 197 49 c 1,24,25
 160 100 160 100 160 170 c 0,26,27
 160 203 160 203 168 240 c 0,28,29
 171 252 171 252 175 264 c 0,30,31
 209 384 209 384 297 478 c 0,32,33
 382 570 382 570 558 672 c 1,34,35
 516 754 516 754 501 835 c 0,36,37
 495 865 495 865 495 897 c 0,38,39
 495 938 495 938 505 982 c 0,40,41
 508 995 508 995 512 1009 c 0,42,43
 547 1141 547 1141 648 1223 c 1,44,45
 747 1302 747 1302 876 1302 c 0,46,47
 1003 1302 1003 1302 1055 1238 c 0,48,49
 1088 1197 1088 1197 1088 1138 c 0,50,51
 1088 1111 1088 1111 1081 1079 c 2,52,-1
 1077 1062 l 1,53,54
 1046 957 1046 957 966 875 c 0,55,56
 881 789 881 789 729 706 c 1,57,-1
 916 355 l 1,58,-1
 1076 564 l 2,59,60
 1088 580 1088 580 1094 597 c 0,61,62
 1096 603 1096 603 1097 608 c 0,63,64
 1099 616 1099 616 1099 622 c 2,65,-1
 1099 627 l 1,66,67
 1098 639 1098 639 1093 647 c 128,-1,68
 1088 655 1088 655 1087 664 c 0,69,70
 1087 668 1087 668 1088 671 c 2,71,-1
 1089 674 l 2,72,73
 1089 675 1089 675 1092 681 c 0,74,75
 1104 700 1104 700 1118 700 c 2,76,-1
 1376 700 l 2,77,78
 1386 700 1386 700 1389 694 c 0,79,80
 1390 694 1390 694 1390 693 c 256,81,82
 1390 692 1390 692 1389 690 c 1,83,-1
 1389 688 l 1,84,85
 1388 685 1388 685 1386 681 c 0,86,87
 1378 670 1378 670 1346 656 c 0,88,89
 1330 649 1330 649 1310 641 c 128,-1,90
 1290 633 1290 633 1271 622 c 0,91,92
 1186 574 1186 574 1116 496 c 128,-1,93
 1046 418 1046 418 947 302 c 1,0,-1
702 759 m 1,94,95
 806 813 806 813 863 881 c 0,96,97
 920 948 920 948 951 1051 c 1,98,-1
 954 1066 l 1,99,100
 963 1102 963 1102 963 1133 c 0,101,102
 963 1160 963 1160 956 1183 c 0,103,104
 940 1236 940 1236 853 1236 c 0,105,106
 785 1236 785 1236 736 1191 c 0,107,108
 685 1143 685 1143 662 1062 c 0,109,110
 659 1051 659 1051 656 1041 c 0,111,112
 647 1000 647 1000 647 959 c 0,113,114
 647 859 647 859 702 759 c 1,94,95
790 214 m 1,115,-1
 580 615 l 1,116,117
 397 501 397 501 351 337 c 1,118,119
 347 327 347 327 345 316 c 0,120,121
 336 278 336 278 336 244 c 0,122,123
 336 187 336 187 361 142 c 1,124,125
 403 62 403 62 498 62 c 0,126,127
 579 62 579 62 653 106 c 128,-1,128
 727 150 727 150 790 214 c 1,115,-1
EndSplineSet
Validated: 1
EndChar

StartChar: apos
Encoding: 39 39 10
Width: 426
GlyphClass: 2
Flags: W
LayerCount: 2
Fore
SplineSet
446 969 m 1,0,1
 443 957 443 957 424 957 c 2,2,-1
 409 957 l 2,3,4
 394 957 394 957 394 966 c 2,5,-1
 394 969 l 1,6,-1
 443 1409 l 1,7,-1
 444 1413 l 2,8,9
 451 1443 451 1443 505 1443 c 2,10,-1
 552 1443 l 2,11,12
 600 1443 600 1443 600 1420 c 0,13,14
 600 1417 600 1417 599 1414 c 2,15,-1
 598 1409 l 1,16,-1
 446 969 l 1,0,1
EndSplineSet
Validated: 1
EndChar

StartChar: lpar
Encoding: 40 40 11
Width: 682
GlyphClass: 2
Flags: W
LayerCount: 2
Fore
SplineSet
314 757 m 2,0,1
 346 895 346 895 393 1021 c 128,-1,2
 440 1147 440 1147 524 1243 c 0,3,4
 568 1293 568 1293 608.5 1333.5 c 128,-1,5
 649 1374 649 1374 707 1405 c 0,6,7
 822 1467 822 1467 919 1467 c 0,8,9
 936 1467 936 1467 936 1450 c 0,10,11
 936 1444 936 1444 934 1437 c 0,12,13
 929 1417 929 1417 927 1415 c 0,14,15
 920 1407 920 1407 862.5 1394 c 128,-1,16
 805 1381 805 1381 727 1318 c 0,17,18
 641 1248 641 1248 581 1116 c 0,19,20
 523 987 523 987 443 640 c 2,21,-1
 410 497 l 2,22,23
 329 148 329 148 327 19 c 1,24,25
 327 -111 327 -111 381 -181 c 1,26,27
 410 -216 410 -216 437 -234 c 0,28,29
 465 -253 465 -253 511 -268 c 1,30,31
 535 -277 535 -277 536 -280 c 0,32,33
 536 -281 536 -281 533 -300 c 2,34,-1
 532 -305 l 2,35,36
 528 -320 528 -320 522 -326 c 1,37,38
 514 -332 514 -332 499 -332 c 0,39,40
 428 -332 428 -332 361 -295 c 0,41,42
 290 -256 290 -256 239.5 -164.5 c 128,-1,43
 189 -73 189 -73 182 23 c 0,44,45
 181 40 181 40 181 59 c 0,46,47
 181 182 181 182 226 377 c 2,48,-1
 314 757 l 2,0,1
EndSplineSet
Validated: 1
EndChar

StartChar: rpar
Encoding: 41 41 12
Width: 682
GlyphClass: 2
Flags: W
LayerCount: 2
Fore
SplineSet
777 757 m 2,0,-1
 689 377 l 2,1,2
 636 147 636 147 569 23 c 0,3,4
 517 -73 517 -73 425 -164.5 c 128,-1,5
 333 -256 333 -256 245 -295 c 1,6,7
 159 -332 159 -332 89 -332 c 0,8,9
 74 -332 74 -332 70 -326 c 1,10,11
 66 -322 66 -322 66 -315 c 0,12,13
 66 -310 66 -310 68 -304 c 2,14,-1
 69 -300 l 2,15,16
 74 -281 74 -281 76 -280 c 1,17,18
 78 -277 78 -277 106 -268 c 1,19,20
 157 -254 157 -254 196 -234 c 256,21,22
 235 -214 235 -214 276 -181 c 0,23,24
 363 -111 363 -111 422 19 c 0,25,26
 482 153 482 153 562 497 c 2,27,-1
 595 640 l 2,28,29
 674 983 674 983 676 1116 c 1,30,-1
 676 1121 l 2,31,32
 676 1248 676 1248 622 1318 c 0,33,34
 573 1381 573 1381 521.5 1394 c 128,-1,35
 470 1407 470 1407 468 1415 c 1,36,-1
 468 1417 l 2,37,38
 468 1423 468 1423 471 1437 c 0,39,40
 478 1467 478 1467 500 1467 c 0,41,42
 596 1467 596 1467 682 1405 c 0,43,44
 726 1374 726 1374 748.5 1333.5 c 128,-1,45
 771 1293 771 1293 792 1243 c 0,46,47
 822 1168 822 1168 822 1074 c 0,48,49
 822 1048 822 1048 820 1021 c 0,50,51
 809 895 809 895 777 757 c 2,0,-1
EndSplineSet
Validated: 1
EndChar

StartChar: ast
Encoding: 42 42 13
Width: 1024
GlyphClass: 2
Flags: W
LayerCount: 2
Fore
SplineSet
466 843 m 2,0,-1
 646 723 l 1,1,-1
 701 963 l 2,2,3
 710 1000 710 1000 737 1000 c 2,4,-1
 789 1000 l 2,5,6
 809 1000 809 1000 809 979 c 0,7,8
 809 972 809 972 807 963 c 2,9,-1
 752 723 l 1,10,-1
 988 843 l 2,11,12
 1003 851 1003 851 1014 851 c 0,13,14
 1027 851 1027 851 1032 839 c 2,15,-1
 1048 793 l 2,16,17
 1049 790 1049 790 1049 787 c 256,18,19
 1049 784 1049 784 1048 781 c 0,20,21
 1045 765 1045 765 1020 752 c 2,22,-1
 783 632 l 1,23,-1
 964 511 l 1,24,25
 980 499 980 499 980 487 c 0,26,27
 980 485 980 485 979 482 c 0,28,29
 978 476 978 476 974 470 c 2,30,-1
 936 424 l 2,31,32
 926 412 926 412 913 412 c 0,33,34
 902 412 902 412 890 420 c 2,35,-1
 710 540 l 1,36,-1
 654 300 l 2,37,38
 646 263 646 263 619 263 c 2,39,-1
 567 263 l 2,40,41
 546 263 546 263 546 285 c 0,42,43
 546 292 546 292 548 300 c 2,44,-1
 604 540 l 1,45,-1
 368 420 l 2,46,47
 352 411 352 411 341 411 c 0,48,49
 328 411 328 411 324 424 c 2,50,-1
 309 470 l 2,51,52
 307 474 307 474 307 478 c 0,53,54
 307 481 307 481 308 483 c 0,55,56
 311 498 311 498 336 511 c 2,57,-1
 573 632 l 1,58,-1
 392 752 l 1,59,60
 375 762 375 762 375 774 c 0,61,62
 375 777 375 777 376 779 c 0,63,64
 377 786 377 786 383 793 c 2,65,-1
 420 839 l 2,66,67
 429 851 429 851 442 851 c 0,68,69
 453 851 453 851 466 843 c 2,0,-1
EndSplineSet
Validated: 1
EndChar

StartChar: plus
Encoding: 43 43 14
Width: 1024
GlyphClass: 2
Flags: W
LayerCount: 2
Fore
SplineSet
358 684 m 2,0,-1
 637 684 l 1,1,-1
 701 963 l 2,2,3
 710 1000 710 1000 737 1000 c 2,4,-1
 789 1000 l 2,5,6
 809 1000 809 1000 809 979 c 0,7,8
 809 972 809 972 807 963 c 2,9,-1
 743 684 l 1,10,-1
 1022 684 l 2,11,12
 1054 684 1054 684 1054 665 c 0,13,14
 1054 662 1054 662 1053 658 c 2,15,-1
 1041 605 l 2,16,17
 1035 579 1035 579 998 579 c 2,18,-1
 719 579 l 1,19,-1
 654 300 l 2,20,21
 646 263 646 263 619 263 c 2,22,-1
 567 263 l 2,23,24
 546 263 546 263 546 285 c 0,25,26
 546 292 546 292 548 300 c 2,27,-1
 613 579 l 1,28,-1
 334 579 l 2,29,30
 302 579 302 579 302 598 c 0,31,32
 302 601 302 601 303 605 c 2,33,-1
 315 658 l 2,34,35
 321 684 321 684 358 684 c 2,0,-1
EndSplineSet
Validated: 1
EndChar

StartChar: comma
Encoding: 44 44 15
Width: 480
GlyphClass: 2
Flags: W
LayerCount: 2
Fore
SplineSet
304 230 m 0,0,1
 397 230 397 230 397 168 c 0,2,3
 397 156 397 156 394 143 c 2,4,-1
 375 61 l 2,5,6
 370 40 370 40 354 12 c 128,-1,7
 338 -16 338 -16 328 -36 c 1,8,9
 261 -148 261 -148 131 -225 c 1,10,11
 89 -248 89 -248 66 -248 c 0,12,13
 51 -248 51 -248 44 -239 c 0,14,15
 40 -234 40 -234 40 -228 c 2,16,-1
 40 -224 l 1,17,18
 42 -215 42 -215 52 -206 c 0,19,20
 73 -188 73 -188 101 -174 c 0,21,22
 207 -117 207 -117 246 -25 c 1,23,-1
 245 -25 l 2,24,25
 152 -25 152 -25 152 37 c 0,26,27
 152 48 152 48 155 61 c 2,28,-1
 174 143 l 2,29,30
 194 230 194 230 304 230 c 0,0,1
EndSplineSet
Validated: 1
EndChar

StartChar: hyphen
Encoding: 45 45 16
Width: 1024
GlyphClass: 2
Flags: W
LayerCount: 2
Fore
SplineSet
358 684 m 2,0,-1
 1022 684 l 2,1,2
 1054 684 1054 684 1054 665 c 0,3,4
 1054 662 1054 662 1053 658 c 2,5,-1
 1041 605 l 2,6,7
 1035 579 1035 579 998 579 c 2,8,-1
 334 579 l 2,9,10
 302 579 302 579 302 598 c 0,11,12
 302 601 302 601 303 605 c 2,13,-1
 315 658 l 2,14,15
 321 684 321 684 358 684 c 2,0,-1
EndSplineSet
Validated: 1
EndChar

StartChar: period
Encoding: 46 46 17
Width: 480
GlyphClass: 2
Flags: W
LayerCount: 2
Fore
SplineSet
310 230 m 0,0,1
 403 230 403 230 403 168 c 0,2,3
 403 156 403 156 400 143 c 2,4,-1
 381 61 l 2,5,6
 361 -25 361 -25 251 -25 c 0,7,8
 158 -25 158 -25 158 37 c 0,9,10
 158 48 158 48 161 61 c 2,11,-1
 180 143 l 2,12,13
 200 230 200 230 310 230 c 0,0,1
EndSplineSet
Validated: 1
EndChar

StartChar: sol
Encoding: 47 47 18
Width: 1024
GlyphClass: 2
Flags: W
LayerCount: 2
Fore
SplineSet
-16 -70 m 1,0,-1
 1183 1474 l 1,1,-1
 1323 1474 l 1,2,-1
 125 -70 l 1,3,-1
 -16 -70 l 1,0,-1
EndSplineSet
Validated: 1
EndChar

StartChar: zero
Encoding: 48 48 19
Width: 1100
GlyphClass: 2
Flags: W
LayerCount: 2
Fore
SplineSet
857 1336 m 1,0,1
 674 1333 674 1333 608 1186.5 c 128,-1,2
 542 1040 542 1040 519 939 c 2,3,-1
 404 441 l 2,4,5
 381 344 381 344 381 204 c 2,6,-1
 381 193 l 1,7,8
 382 45 382 45 559 45 c 0,9,10
 682 45 682 45 771 161 c 128,-1,11
 860 277 860 277 898 441 c 2,12,-1
 1013 939 l 2,13,14
 1034 1032 1034 1032 1034 1110 c 0,15,16
 1034 1169 1034 1169 1022 1220 c 1,17,18
 992 1336 992 1336 859 1336 c 2,19,-1
 857 1336 l 1,0,1
874 1406 m 0,20,21
 1087 1406 1087 1406 1170 1275 c 1,22,23
 1224 1187 1224 1187 1224 1079 c 0,24,25
 1224 1023 1224 1023 1210 962 c 2,26,-1
 1085 419 l 2,27,28
 1042 236 1042 236 882.5 106 c 128,-1,29
 723 -24 723 -24 543 -24 c 0,30,31
 315 -24 315 -24 240 106 c 0,32,33
 191 189 191 189 191 293 c 0,34,35
 191 353 191 353 207 419 c 2,36,-1
 332 962 l 2,37,38
 374 1145 374 1145 520 1275.5 c 128,-1,39
 666 1406 666 1406 874 1406 c 0,20,21
EndSplineSet
Validated: 1
EndChar

StartChar: one
Encoding: 49 49 20
Width: 1000
GlyphClass: 2
Flags: W
LayerCount: 2
Fore
SplineSet
350 0 m 2,0,1
 334 0 334 0 334 13 c 0,2,3
 334 16 334 16 335 20 c 0,4,5
 340 44 340 44 392.5 61.5 c 128,-1,6
 445 79 445 79 460 142 c 2,7,-1
 708 1217 l 1,8,-1
 510 1217 l 1,9,-1
 521 1263 l 2,10,11
 528 1293 528 1293 588 1313.5 c 128,-1,12
 648 1334 648 1334 741 1358 c 0,13,14
 795 1371 795 1371 845 1384 c 128,-1,15
 895 1397 895 1397 927 1406 c 1,16,-1
 635 142 l 2,17,18
 631 126 631 126 631 113 c 0,19,20
 631 75 631 75 665 62 c 0,21,22
 705 46 705 46 705 25 c 0,23,24
 705 22 705 22 704 20 c 0,25,26
 699 0 699 0 679 0 c 2,27,-1
 350 0 l 2,0,1
EndSplineSet
Validated: 1
EndChar

StartChar: two
Encoding: 50 50 21
Width: 1100
GlyphClass: 2
Flags: W
LayerCount: 2
Fore
SplineSet
172 0 m 1,0,-1
 190 80 l 2,1,2
 209 162 209 162 272 223 c 0,3,4
 337 286 337 286 473 403 c 1,5,6
 551 465 551 465 630.5 535 c 128,-1,7
 710 605 710 605 784 674 c 0,8,9
 889 773 889 773 951 874 c 0,10,11
 995 945 995 945 1009 1006 c 0,12,13
 1015 1033 1015 1033 1015 1059 c 0,14,15
 1015 1086 1015 1086 1008 1110 c 0,16,17
 979 1206 979 1206 891 1244 c 0,18,19
 840 1265 840 1265 779 1265 c 0,20,21
 732 1265 732 1265 680 1253 c 0,22,23
 558 1224 558 1224 457 1115 c 0,24,25
 420 1075 420 1075 401 1035 c 1,26,-1
 434 1176 l 1,27,28
 448 1201 448 1201 464 1222 c 1,29,30
 520 1288 520 1288 603.5 1339 c 128,-1,31
 687 1390 687 1390 793 1406 c 0,32,33
 834 1412 834 1412 874 1412 c 0,34,35
 1003 1412 1003 1412 1106 1346 c 0,36,37
 1206 1281 1206 1281 1206 1151 c 0,38,39
 1206 1109 1206 1109 1195 1060 c 1,40,-1
 1194 1056 l 1,41,42
 1163 923 1163 923 1065 805 c 0,43,44
 965 685 965 685 842 576.5 c 128,-1,45
 719 468 719 468 595.5 368.5 c 128,-1,46
 472 269 472 269 395 175 c 1,47,-1
 755 175 l 2,48,49
 880 175 880 175 1004 216 c 1,50,-1
 963 41 l 1,51,52
 901 7 901 7 836 3.5 c 128,-1,53
 771 0 771 0 715 0 c 2,54,-1
 172 0 l 1,0,-1
EndSplineSet
Validated: 1
EndChar

StartChar: three
Encoding: 51 51 22
Width: 1100
GlyphClass: 2
Flags: W
LayerCount: 2
Fore
SplineSet
720 63 m 1,0,1
 597 -12 597 -12 438 -27 c 0,2,3
 413 -30 413 -30 390 -30 c 0,4,5
 264 -30 264 -30 189 41 c 1,6,-1
 225 214 l 1,7,8
 256 106 256 106 389 72 c 1,9,10
 438 58 438 58 486 58 c 0,11,12
 566 58 566 58 642 94 c 0,13,14
 754 146 754 146 813 246 c 0,15,16
 845 300 845 300 858 354 c 0,17,18
 866 389 866 389 866 423 c 0,19,20
 866 434 866 434 865 444 c 0,21,22
 856 542 856 542 775 615.5 c 128,-1,23
 694 689 694 689 528 692 c 1,24,-1
 533 720 l 1,25,26
 604 741 604 741 699.5 779.5 c 128,-1,27
 795 818 795 818 860 897 c 0,28,29
 912 961 912 961 927 1025 c 0,30,31
 931 1043 931 1043 932 1062 c 0,32,33
 933 1071 933 1071 933 1080 c 0,34,35
 933 1149 933 1149 897 1198 c 0,36,37
 849 1263 849 1263 753 1273 c 1,38,-1
 733 1273 l 2,39,40
 646 1273 646 1273 544 1197 c 1,41,42
 484 1151 484 1151 455 1081 c 1,43,-1
 493 1247 l 1,44,45
 595 1337 595 1337 690 1371.5 c 128,-1,46
 785 1406 785 1406 866 1406 c 1,47,48
 1087 1403 1087 1403 1120 1227 c 0,49,50
 1125 1204 1125 1204 1125 1181 c 0,51,52
 1125 1153 1125 1153 1118 1125 c 0,53,54
 1089 1001 1089 1001 931 878 c 0,55,56
 891 847 891 847 854 825 c 1,57,58
 980 756 980 756 1017 646 c 0,59,60
 1035 591 1035 591 1035 534 c 0,61,62
 1035 492 1035 492 1025 448 c 0,63,64
 1022 432 1022 432 1017 416 c 0,65,66
 952 208 952 208 720 63 c 1,0,1
EndSplineSet
Validated: 1
EndChar

StartChar: four
Encoding: 52 52 23
Width: 1100
GlyphClass: 2
Flags: W
LayerCount: 2
Fore
SplineSet
739 403 m 1,0,-1
 174 403 l 1,1,-1
 200 515 l 1,2,-1
 961 1365 l 1,3,-1
 1136 1365 l 1,4,-1
 946 540 l 1,5,-1
 1142 540 l 1,6,-1
 1110 403 l 1,7,-1
 914 403 l 1,8,-1
 854 142 l 2,9,10
 851 130 851 130 851 120 c 0,11,12
 851 76 851 76 904 62 c 0,13,14
 964 45 964 45 964 23 c 2,15,-1
 964 20 l 1,16,17
 959 0 959 0 939 0 c 2,18,-1
 528 0 l 2,19,20
 511 0 511 0 511 13 c 0,21,22
 511 16 511 16 512 20 c 0,23,24
 517 44 517 44 590.5 61.5 c 128,-1,25
 664 79 664 79 679 142 c 2,26,-1
 739 403 l 1,0,-1
771 540 m 1,27,-1
 926 1211 l 1,28,-1
 330 540 l 1,29,-1
 771 540 l 1,27,-1
EndSplineSet
Validated: 1
EndChar

StartChar: five
Encoding: 53 53 24
Width: 1100
GlyphClass: 2
Flags: W
LayerCount: 2
Fore
SplineSet
506 1195 m 1,0,-1
 401 741 l 1,1,2
 446 763 446 763 492.5 787 c 128,-1,3
 539 811 539 811 590 829 c 0,4,5
 689 865 689 865 793 865 c 0,6,7
 808 865 808 865 823 864 c 0,8,9
 966 853 966 853 1043 723 c 1,10,11
 1090 636 1090 636 1090 535 c 0,12,13
 1090 482 1090 482 1077 425 c 1,14,-1
 1076 419 l 1,15,16
 1034 250 1034 250 864 112 c 0,17,18
 698 -23 698 -23 496 -23 c 2,19,-1
 487 -23 l 1,20,21
 361 -20 361 -20 296.5 -1 c 128,-1,22
 232 18 232 18 168 50 c 1,23,24
 134 64 134 64 134 92 c 0,25,26
 134 97 134 97 135 102 c 0,27,28
 138 125 138 125 142 144 c 0,29,30
 156 205 156 205 181 225 c 0,31,32
 204 243 204 243 214 243 c 0,33,34
 218 243 218 243 220 241 c 0,35,36
 250 193 250 193 304 135 c 0,37,38
 356 79 356 79 473 79 c 2,39,-1
 481 79 l 2,40,41
 581 79 581 79 676 139 c 128,-1,42
 771 199 771 199 831 291 c 0,43,44
 872 354 872 354 888 425 c 0,45,46
 899 473 899 473 900 525 c 1,47,48
 900 654 900 654 803 716 c 1,49,50
 732 759 732 759 663 759 c 0,51,52
 631 759 631 759 600 751 c 0,53,54
 500 722 500 722 426 669 c 0,55,56
 392 644 392 644 369 640 c 1,57,58
 352 636 352 636 337 636 c 0,59,60
 330 636 330 636 324 637 c 1,61,62
 309 637 309 637 297 638 c 0,63,64
 288 639 288 639 288 652 c 0,65,66
 288 659 288 659 290 668 c 2,67,-1
 441 1320 l 2,68,69
 449 1356 449 1356 454 1360.5 c 128,-1,70
 459 1365 459 1365 496 1365 c 2,71,-1
 976 1365 l 2,72,73
 1030 1365 1030 1365 1091.5 1361.5 c 128,-1,74
 1153 1358 1153 1358 1199 1325 c 1,75,-1
 1160 1156 l 1,76,77
 1063 1195 1063 1195 937 1195 c 2,78,-1
 506 1195 l 1,0,-1
EndSplineSet
Validated: 1
EndChar

StartChar: six
Encoding: 54 54 25
Width: 1100
GlyphClass: 2
Flags: W
LayerCount: 2
Fore
SplineSet
740 882 m 1,0,1
 617 875 617 875 502 747.5 c 128,-1,2
 387 620 387 620 347 446 c 0,3,4
 331 376 331 376 331 315 c 0,5,6
 331 224 331 224 366 154 c 0,7,8
 422 42 422 42 536 42 c 2,9,-1
 548 42 l 1,10,11
 669 48 669 48 784 176 c 128,-1,12
 899 304 899 304 939 478 c 0,13,14
 955 549 955 549 955 610 c 0,15,16
 955 700 955 700 921 770 c 0,17,18
 865 882 865 882 751 882 c 2,19,-1
 740 882 l 1,0,1
512 889 m 1,20,21
 621 944 621 944 743 944 c 0,22,23
 774 944 774 944 807 940 c 0,24,25
 965 922 965 922 1047 827 c 1,26,27
 1137 719 1137 719 1137 577 c 0,28,29
 1137 522 1137 522 1124 462 c 1,30,31
 1077 261 1077 261 903 115 c 0,32,33
 734 -26 734 -26 546 -26 c 2,34,-1
 533 -26 l 1,35,36
 332 -20 332 -20 236 120 c 0,37,38
 172 212 172 212 172 331 c 0,39,40
 172 389 172 389 187 453 c 2,41,-1
 189 462 l 1,42,43
 264 774 264 774 449.5 994.5 c 128,-1,44
 635 1215 635 1215 914 1380 c 2,45,-1
 946 1399 l 1,46,47
 972 1411 972 1411 1003 1411 c 2,48,-1
 1006 1411 l 1,49,50
 1039 1410 1039 1410 1069 1410 c 0,51,52
 1108 1410 1108 1410 1108 1402 c 2,53,-1
 1108 1401 l 1,54,55
 1107 1396 1107 1396 1090 1388 c 1,56,57
 901 1274 901 1274 769 1164 c 128,-1,58
 637 1054 637 1054 512 889 c 1,20,21
EndSplineSet
Validated: 1
EndChar

StartChar: seven
Encoding: 55 55 26
Width: 1100
GlyphClass: 2
Flags: W
LayerCount: 2
Fore
SplineSet
416 149 m 0,0,1
 365 79 365 79 327 0 c 1,2,-1
 162 1 l 1,3,4
 164 13 164 13 167 25 c 0,5,6
 178 74 178 74 209 120 c 0,7,8
 247 177 247 177 283 225 c 0,9,10
 460 456 460 456 687.5 734.5 c 128,-1,11
 915 1013 915 1013 1065 1195 c 1,12,-1
 678 1195 l 2,13,14
 551 1195 551 1195 437 1156 c 1,15,-1
 476 1325 l 1,16,17
 537 1358 537 1358 599.5 1361.5 c 128,-1,18
 662 1365 662 1365 717 1365 c 2,19,-1
 1197 1365 l 2,20,21
 1233 1365 1233 1365 1237 1361 c 0,22,23
 1238 1359 1238 1359 1238 1355 c 0,24,25
 1238 1345 1238 1345 1232 1320 c 0,26,27
 1214 1252 1214 1252 1173 1194 c 0,28,29
 983 933 983 933 794.5 671.5 c 128,-1,30
 606 410 606 410 416 149 c 0,0,1
EndSplineSet
Validated: 1
EndChar

StartChar: eight
Encoding: 56 56 27
Width: 1100
GlyphClass: 2
Flags: W
LayerCount: 2
Fore
SplineSet
728 735 m 0,0,1
 606 735 606 735 501.5 656 c 128,-1,2
 397 577 397 577 355 394 c 0,3,4
 337 315 337 315 337 256 c 0,5,6
 337 176 337 176 370 131 c 0,7,8
 428 52 428 52 570 52 c 0,9,10
 711 52 711 52 804 128 c 128,-1,11
 897 204 897 204 941 394 c 0,12,13
 958 468 958 468 958 525 c 0,14,15
 958 613 958 613 917 659 c 0,16,17
 849 735 849 735 728 735 c 0,0,1
915 1408 m 1,18,19
 1118 1405 1118 1405 1193 1309 c 0,20,21
 1242 1246 1242 1246 1242 1158 c 0,22,23
 1242 1117 1242 1117 1231 1070 c 2,24,-1
 1228 1058 l 1,25,26
 1169 829 1169 829 903 774 c 1,27,28
 1030 740 1030 740 1093 646 c 0,29,30
 1136 581 1136 581 1136 488 c 0,31,32
 1136 443 1136 443 1126 392 c 1,33,-1
 1122 375 l 2,34,35
 1077 180 1077 180 921 84 c 1,36,37
 759 -17 759 -17 537 -19 c 1,38,-1
 529 -19 l 2,39,40
 313 -19 313 -19 211 86 c 0,41,42
 139 159 139 159 139 278 c 0,43,44
 139 330 139 330 153 391 c 0,45,46
 189 547 189 547 301 643.5 c 128,-1,47
 413 740 413 740 564 775 c 1,48,49
 376 823 376 823 376 988 c 0,50,51
 376 1027 376 1027 386 1072 c 1,52,-1
 387 1076 l 1,53,54
 426 1242 426 1242 569 1327 c 0,55,56
 707 1408 707 1408 901 1408 c 2,57,-1
 915 1408 l 1,18,19
874 1345 m 256,58,59
 745 1345 745 1345 670 1265 c 128,-1,60
 595 1185 595 1185 569 1073 c 0,61,62
 557 1021 557 1021 557 975 c 0,63,64
 557 923 557 923 573 881 c 0,65,66
 603 802 603 802 748 802 c 0,67,68
 892 802 892 802 959.5 881 c 128,-1,69
 1027 960 1027 960 1053 1073 c 0,70,71
 1064 1119 1064 1119 1064 1159 c 0,72,73
 1064 1218 1064 1218 1041 1265 c 0,74,75
 1003 1345 1003 1345 874 1345 c 256,58,59
EndSplineSet
Validated: 1
EndChar

StartChar: nine
Encoding: 57 57 28
Width: 1100
GlyphClass: 2
Flags: W
LayerCount: 2
Fore
SplineSet
678 503 m 1,0,1
 801 509 801 509 915.5 636.5 c 128,-1,2
 1030 764 1030 764 1071 938 c 0,3,4
 1087 1007 1087 1007 1087 1068 c 0,5,6
 1087 1159 1087 1159 1051 1230 c 0,7,8
 995 1342 995 1342 883 1342 c 2,9,-1
 871 1342 l 1,10,11
 747 1336 747 1336 633 1209 c 256,12,13
 519 1082 519 1082 479 911 c 1,14,-1
 478 907 l 1,15,16
 462 837 462 837 462 776 c 0,17,18
 462 685 462 685 497 615 c 1,19,20
 551 503 551 503 665 503 c 2,21,-1
 678 503 l 1,0,1
906 496 m 1,22,23
 797 440 797 440 675 440 c 0,24,25
 643 440 643 440 611 444 c 0,26,27
 453 462 453 462 371 558 c 0,28,29
 281 664 281 664 281 805 c 0,30,31
 281 861 281 861 295 923 c 1,32,-1
 296 929 l 1,33,34
 342 1125 342 1125 514 1270 c 1,35,36
 683 1411 683 1411 872 1411 c 2,37,-1
 885 1411 l 1,38,39
 1085 1405 1085 1405 1182 1265 c 0,40,41
 1246 1172 1246 1172 1246 1052 c 0,42,43
 1246 994 1246 994 1231 929 c 1,44,-1
 1230 923 l 1,45,46
 1154 610 1154 610 968.5 389.5 c 128,-1,47
 783 169 783 169 505 5 c 0,48,49
 496 0 496 0 488 -4.5 c 128,-1,50
 480 -9 480 -9 472 -14 c 1,51,52
 446 -26 446 -26 415 -26 c 0,53,54
 413 -26 413 -26 412 -25 c 1,55,-1
 349 -25 l 2,56,57
 308 -25 308 -25 308 -17 c 2,58,-1
 308 -16 l 1,59,60
 309 -11 309 -11 327 -3 c 1,61,62
 515 110 515 110 647.5 220 c 128,-1,63
 780 330 780 330 906 496 c 1,22,23
EndSplineSet
Validated: 1
EndChar

StartChar: colon
Encoding: 58 58 29
Width: 512
GlyphClass: 2
Flags: W
LayerCount: 2
Fore
SplineSet
476 948 m 0,0,1
 569 948 569 948 569 886 c 0,2,3
 569 874 569 874 566 861 c 2,4,-1
 547 779 l 2,5,6
 527 692 527 692 417 692 c 0,7,8
 324 692 324 692 324 754 c 0,9,10
 324 766 324 766 327 779 c 2,11,-1
 346 861 l 2,12,13
 366 948 366 948 476 948 c 0,0,1
310 230 m 0,14,15
 403 230 403 230 403 168 c 0,16,17
 403 156 403 156 400 143 c 2,18,-1
 381 61 l 2,19,20
 361 -25 361 -25 251 -25 c 0,21,22
 158 -25 158 -25 158 37 c 0,23,24
 158 48 158 48 161 61 c 2,25,-1
 180 143 l 2,26,27
 200 230 200 230 310 230 c 0,14,15
EndSplineSet
Validated: 1
EndChar

StartChar: semi
Encoding: 59 59 30
Width: 512
GlyphClass: 2
Flags: W
LayerCount: 2
Fore
SplineSet
476 948 m 0,0,1
 569 948 569 948 569 886 c 0,2,3
 569 874 569 874 566 861 c 2,4,-1
 547 779 l 2,5,6
 527 692 527 692 417 692 c 0,7,8
 324 692 324 692 324 754 c 0,9,10
 324 766 324 766 327 779 c 2,11,-1
 346 861 l 2,12,13
 366 948 366 948 476 948 c 0,0,1
310 230 m 0,14,15
 403 230 403 230 403 168 c 0,16,17
 403 156 403 156 400 143 c 2,18,-1
 381 61 l 2,19,20
 376 40 376 40 360 12 c 128,-1,21
 344 -16 344 -16 333 -36 c 0,22,23
 268 -148 268 -148 137 -225 c 0,24,25
 95 -249 95 -249 72 -249 c 0,26,27
 57 -249 57 -249 50 -239 c 0,28,29
 46 -234 46 -234 46 -228 c 2,30,-1
 46 -224 l 1,31,32
 48 -215 48 -215 58 -206 c 0,33,34
 79 -188 79 -188 107 -174 c 0,35,36
 213 -117 213 -117 252 -25 c 1,37,-1
 251 -25 l 1,38,39
 158 -23 158 -23 158 38 c 0,40,41
 158 49 158 49 161 61 c 2,42,-1
 180 143 l 2,43,44
 200 230 200 230 310 230 c 0,14,15
EndSplineSet
Validated: 1
EndChar

StartChar: lt
Encoding: 60 60 31
Width: 1024
GlyphClass: 2
Flags: W
LayerCount: 2
Fore
SplineSet
328 607 m 2,0,1
 322 614 322 614 322 623 c 0,2,3
 322 626 322 626 323 629 c 0,4,5
 327 645 327 645 353 665 c 2,6,-1
 1109 1268 l 2,7,8
 1133 1287 1133 1287 1149 1287 c 0,9,10
 1161 1287 1161 1287 1169 1277 c 2,11,-1
 1206 1228 l 1,12,13
 1210 1221 1210 1221 1210 1214 c 0,14,15
 1210 1210 1210 1210 1209 1206 c 0,16,17
 1206 1189 1206 1189 1182 1170 c 2,18,-1
 507 631 l 1,19,-1
 933 93 l 2,20,21
 945 77 945 77 945 63 c 0,22,23
 945 60 945 60 944 56 c 0,24,25
 941 45 941 45 930 35 c 2,26,-1
 871 -13 l 2,27,28
 859 -23 859 -23 847 -23 c 0,29,30
 831 -23 831 -23 815 -4 c 2,31,-1
 328 607 l 2,0,1
EndSplineSet
Validated: 1
EndChar

StartChar: equals
Encoding: 61 61 32
Width: 1024
GlyphClass: 2
Flags: W
LayerCount: 2
Fore
SplineSet
328 537 m 2,0,-1
 991 537 l 2,1,2
 1023 537 1023 537 1023 517 c 0,3,4
 1023 514 1023 514 1022 510 c 2,5,-1
 1010 458 l 2,6,7
 1004 431 1004 431 967 431 c 2,8,-1
 304 431 l 2,9,10
 272 431 272 431 272 451 c 0,11,12
 272 454 272 454 273 458 c 2,13,-1
 285 510 l 2,14,15
 291 537 291 537 328 537 c 2,0,-1
396 832 m 2,16,-1
 1059 832 l 2,17,18
 1091 832 1091 832 1091 812 c 0,19,20
 1091 809 1091 809 1090 805 c 2,21,-1
 1078 753 l 2,22,23
 1072 726 1072 726 1035 726 c 2,24,-1
 372 726 l 2,25,26
 340 726 340 726 340 746 c 0,27,28
 340 749 340 749 341 753 c 2,29,-1
 353 805 l 2,30,31
 359 832 359 832 396 832 c 2,16,-1
EndSplineSet
Validated: 1
EndChar

StartChar: gt
Encoding: 62 62 33
Width: 1024
GlyphClass: 2
Flags: W
LayerCount: 2
Fore
SplineSet
1073 656 m 2,0,1
 1079 649 1079 649 1079 640 c 0,2,3
 1079 637 1079 637 1078 634 c 0,4,5
 1075 618 1075 618 1050 598 c 2,6,-1
 293 -4 l 2,7,8
 269 -23 269 -23 252 -23 c 0,9,10
 241 -23 241 -23 233 -13 c 2,11,-1
 196 35 l 2,12,13
 190 42 190 42 190 51 c 0,14,15
 190 54 190 54 191 57 c 0,16,17
 195 73 195 73 220 93 c 2,18,-1
 896 632 l 1,19,-1
 469 1170 l 2,20,21
 456 1186 456 1186 456 1201 c 2,22,-1
 456 1206 l 1,23,24
 459 1217 459 1217 472 1228 c 2,25,-1
 531 1277 l 2,26,27
 543 1287 543 1287 554 1287 c 0,28,29
 571 1287 571 1287 587 1268 c 2,30,-1
 1073 656 l 2,0,1
EndSplineSet
Validated: 1
EndChar

StartChar: quest
Encoding: 63 63 34
Width: 784
GlyphClass: 2
Flags: W
LayerCount: 2
Fore
SplineSet
521 441 m 1,0,1
 509 388 509 388 492 358 c 1,2,3
 475 332 475 332 456 332 c 0,4,5
 439 332 439 332 436 362 c 0,6,7
 435 371 435 371 435 381 c 0,8,9
 435 406 435 406 443 442 c 2,10,-1
 514 749 l 1,11,12
 658 837 658 837 721 909 c 0,13,14
 785 983 785 983 808 1083 c 0,15,16
 819 1131 819 1131 819 1168 c 0,17,18
 819 1217 819 1217 801 1248 c 0,19,20
 769 1302 769 1302 679 1302 c 0,21,22
 600 1302 600 1302 551 1252 c 1,23,24
 502 1200 502 1200 462 1069 c 0,25,26
 454 1046 454 1046 434 1034 c 0,27,28
 413 1021 413 1021 380 1021 c 0,29,30
 346 1021 346 1021 332 1034 c 0,31,32
 324 1042 324 1042 324 1057 c 0,33,34
 324 1066 324 1066 327 1077 c 0,35,36
 357 1210 357 1210 462 1288 c 0,37,38
 567 1365 567 1365 716 1365 c 0,39,40
 870 1365 870 1365 942 1290 c 0,41,42
 991 1238 991 1238 991 1159 c 0,43,44
 991 1124 991 1124 981 1084 c 0,45,46
 943 920 943 920 752 816 c 0,47,48
 732 805 732 805 703 790 c 1,49,50
 633 751 633 751 610 718 c 1,51,52
 585 687 585 687 565 613 c 1,53,-1
 521 441 l 1,0,1
430 223 m 0,54,55
 521 223 521 223 521 162 c 0,56,57
 521 152 521 152 518 139 c 2,58,-1
 500 59 l 1,59,60
 480 -24 480 -24 373 -24 c 0,61,62
 284 -24 284 -24 284 35 c 0,63,64
 284 46 284 46 287 59 c 2,65,-1
 305 139 l 2,66,67
 324 223 324 223 430 223 c 0,54,55
EndSplineSet
Validated: 1
EndChar

StartChar: commat
Encoding: 64 64 35
Width: 2119
GlyphClass: 2
Flags: W
LayerCount: 2
Fore
SplineSet
1880 178 m 0,0,1
 1814 112 1814 112 1734.5 56 c 128,-1,2
 1655 0 1655 0 1571 -31 c 1,3,4
 1473 -69 1473 -69 1387 -69 c 0,5,6
 1323 -69 1323 -69 1266 -48 c 0,7,8
 1197 -22 1197 -22 1197 47 c 0,9,10
 1197 66 1197 66 1202 87 c 2,11,-1
 1203 91 l 1,12,-1
 871 -14 l 2,13,14
 835 -25 835 -25 813 -25 c 2,15,-1
 772 -25 l 1,16,17
 632 -18 632 -18 581 91 c 0,18,19
 557 142 557 142 557 206 c 0,20,21
 557 250 557 250 568 300 c 0,22,23
 594 411 594 411 665 523 c 128,-1,24
 736 635 736 635 818 711 c 0,25,26
 865 755 865 755 950 803 c 0,27,28
 978 818 978 818 1012 830 c 1,29,30
 1106 860 1106 860 1200 890 c 128,-1,31
 1294 920 1294 920 1389 950 c 0,32,33
 1409 956 1409 956 1425 956 c 2,34,-1
 1430 956 l 1,35,36
 1492 953 1492 953 1569 924 c 0,37,38
 1575 922 1575 922 1577 920 c 0,39,40
 1595 911 1595 911 1623 900 c 0,41,42
 1634 896 1634 896 1644 896 c 0,43,44
 1660 896 1660 896 1676 905 c 0,45,46
 1706 923 1706 923 1720 935 c 0,47,48
 1727 942 1727 942 1736 942 c 0,49,50
 1740 942 1740 942 1745 940 c 0,51,52
 1759 933 1759 933 1759 924 c 0,53,54
 1759 923 1759 923 1759 922 c 2,55,-1
 1758 920 l 1,56,-1
 1425 199 l 2,57,58
 1407 159 1407 159 1400 128 c 0,59,60
 1395 107 1395 107 1395 90 c 0,61,62
 1395 36 1395 36 1447 22 c 0,63,64
 1464 17 1464 17 1483 17 c 0,65,66
 1521 17 1521 17 1569 35 c 1,67,68
 1643 61 1643 61 1710 112 c 0,69,70
 1819 194 1819 194 1915 350 c 1,71,72
 2011 508 2011 508 2055 699 c 0,73,74
 2080 807 2080 807 2080 897 c 0,75,76
 2080 1093 2080 1093 1960 1206 c 0,77,78
 1786 1370 1786 1370 1482 1370 c 0,79,80
 1255 1370 1255 1370 1009 1257 c 1,81,82
 762 1145 762 1145 571 912 c 1,83,84
 379 681 379 681 311 387 c 0,85,86
 283 268 283 268 283 160 c 0,87,88
 283 61 283 61 307 -29 c 0,89,90
 355 -215 355 -215 509 -320 c 0,91,92
 660 -424 660 -424 907 -424 c 0,93,94
 1115 -424 1115 -424 1317 -351 c 0,95,96
 1500 -284 1500 -284 1655 -176 c 0,97,98
 1660 -172 1660 -172 1665 -172 c 0,99,100
 1671 -172 1671 -172 1677 -179 c 0,101,102
 1681 -184 1681 -184 1681 -190 c 0,103,104
 1681 -193 1681 -193 1680 -196 c 0,105,106
 1678 -205 1678 -205 1670 -215 c 1,107,108
 1654 -239 1654 -239 1637 -252 c 0,109,110
 1458 -388 1458 -388 1257 -447.5 c 128,-1,111
 1056 -507 1056 -507 843 -507 c 0,112,113
 443 -507 443 -507 245 -255 c 1,114,115
 110 -81 110 -81 110 157 c 0,116,117
 110 266 110 266 138 388 c 0,118,119
 240 832 240 832 632 1138 c 0,120,121
 1023 1442 1023 1442 1490 1442 c 0,122,123
 1864 1442 1864 1442 2061 1240 c 0,124,125
 2203 1093 2203 1093 2203 879 c 0,126,127
 2203 796 2203 796 2181 702 c 0,128,129
 2114 413 2114 413 1880 178 c 0,0,1
1220 145 m 1,130,-1
 1508 769 l 1,131,132
 1484 807 1484 807 1432 839.5 c 128,-1,133
 1380 872 1380 872 1329 874 c 1,134,-1
 1325 874 l 2,135,136
 1305 874 1305 874 1282 866 c 0,137,138
 1240 853 1240 853 1198 839.5 c 128,-1,139
 1156 826 1156 826 1114 813 c 0,140,141
 1086 804 1086 804 1062 787 c 0,142,143
 969 721 969 721 904 627 c 128,-1,144
 839 533 839 533 804 441 c 1,145,146
 785 394 785 394 775 352 c 0,147,148
 765 308 765 308 765 271 c 0,149,150
 765 236 765 236 774 207 c 1,151,152
 799 114 799 114 886 86 c 0,153,154
 920 75 920 75 958 75 c 0,155,156
 970 75 970 75 984 76 c 0,157,158
 1007 78 1007 78 1043 89 c 0,159,160
 1066 96 1066 96 1123.5 114.5 c 128,-1,161
 1181 133 1181 133 1220 145 c 1,130,-1
EndSplineSet
Validated: 1
EndChar

StartChar: A
Encoding: 65 65 36
Width: 1593
GlyphClass: 2
Flags: W
LayerCount: 2
Fore
SplineSet
1167 1427 m 1,0,1
 1190 1309 1190 1309 1224 1138 c 128,-1,2
 1258 967 1258 967 1295 786 c 128,-1,3
 1332 605 1332 605 1366 434 c 128,-1,4
 1400 263 1400 263 1424 146 c 1,5,6
 1430 109 1430 109 1467 79 c 0,7,8
 1487 64 1487 64 1507 54 c 128,-1,9
 1527 44 1527 44 1539 35 c 0,10,11
 1547 28 1547 28 1549 21 c 0,12,13
 1550 19 1550 19 1550 17 c 256,14,15
 1550 15 1550 15 1549 13 c 0,16,17
 1548 10 1548 10 1545 6 c 0,18,19
 1541 0 1541 0 1532 0 c 2,20,-1
 1194 0 l 2,21,22
 1185 0 1185 0 1177 6 c 0,23,24
 1169 13 1169 13 1169 21 c 1,25,26
 1168 24 1168 24 1168 27 c 0,27,28
 1170 36 1170 36 1185 46 c 1,29,30
 1196 55 1196 55 1211 65 c 128,-1,31
 1226 75 1226 75 1236 92 c 0,32,33
 1241 100 1241 100 1243 110 c 256,34,35
 1245 120 1245 120 1245 130 c 0,36,37
 1245 138 1245 138 1244 147 c 2,38,-1
 1175 489 l 1,39,-1
 592 489 l 1,40,41
 536 403 536 403 481 317.5 c 128,-1,42
 426 232 426 232 370 147 c 0,43,44
 356 127 356 127 352 111 c 1,45,46
 349 104 349 104 347 97 c 0,47,48
 346 90 346 90 346 84 c 2,49,-1
 346 78 l 2,50,51
 346 65 346 65 351 56.5 c 128,-1,52
 356 48 356 48 357 39 c 1,53,54
 356 31 356 31 355 28 c 0,55,56
 355 25 355 25 352 21 c 0,57,58
 340 0 340 0 325 0 c 2,59,-1
 67 0 l 2,60,61
 57 0 57 0 54 6 c 1,62,63
 55 7 55 7 55 8 c 256,64,65
 55 9 55 9 54 11 c 0,66,67
 54 13 54 13 58 21 c 1,68,69
 67 34 67 34 98 47 c 0,70,71
 114 54 114 54 133.5 62.5 c 128,-1,72
 153 71 153 71 174 83 c 0,73,74
 217 109 217 109 243 146 c 2,75,-1
 1105 1427 l 1,76,-1
 1167 1427 l 1,0,1
1159 570 m 1,77,-1
 1038 1179 l 1,78,79
 939 1026 939 1026 840.5 874 c 128,-1,80
 742 722 742 722 644 570 c 1,81,-1
 1159 570 l 1,77,-1
EndSplineSet
Validated: 1
EndChar

StartChar: B
Encoding: 66 66 37
Width: 1240
GlyphClass: 2
Flags: W
LayerCount: 2
Fore
SplineSet
1028 1404 m 2,0,1
 1126 1404 1126 1404 1224.5 1369.5 c 128,-1,2
 1323 1335 1323 1335 1357 1235 c 0,3,4
 1371 1194 1371 1194 1371 1145 c 0,5,6
 1371 1097 1371 1097 1358 1041 c 0,7,8
 1331 933 1331 933 1252 849 c 0,9,10
 1194 786 1194 786 1095 745 c 1,11,12
 1226 699 1226 699 1266 586 c 0,13,14
 1281 541 1281 541 1281 486 c 0,15,16
 1281 433 1281 433 1267 372 c 1,17,18
 1237 253 1237 253 1150 160 c 0,19,20
 1074 79 1074 79 961 39.5 c 128,-1,21
 848 0 848 0 761 0 c 2,22,-1
 134 0 l 2,23,24
 117 0 117 0 117 14 c 0,25,26
 117 17 117 17 118 21 c 0,27,28
 124 46 124 46 178 64 c 128,-1,29
 232 82 232 82 247 146 c 2,30,-1
 503 1258 l 2,31,32
 507 1273 507 1273 507 1286 c 0,33,34
 507 1325 507 1325 472 1339 c 0,35,36
 431 1355 431 1355 431 1377 c 0,37,38
 431 1380 431 1380 432 1383 c 0,39,40
 437 1404 437 1404 458 1404 c 2,41,-1
 1028 1404 l 2,0,1
552 687 m 1,42,-1
 410 73 l 1,43,-1
 636 73 l 2,44,45
 709 73 709 73 788.5 94.5 c 128,-1,46
 868 116 868 116 934 169 c 0,47,48
 1036 250 1036 250 1066 383 c 0,49,50
 1075 423 1075 423 1075 458 c 0,51,52
 1075 538 1075 538 1029 597 c 1,53,54
 956 687 956 687 799 687 c 2,55,-1
 552 687 l 1,42,-1
572 774 m 1,56,-1
 848 774 l 1,57,58
 969 787 969 787 1057 856 c 1,59,60
 1148 929 1148 929 1176 1050 c 0,61,62
 1185 1087 1185 1087 1185 1119 c 0,63,64
 1185 1192 1185 1192 1142 1244 c 0,65,66
 1076 1325 1076 1325 935 1325 c 2,67,-1
 699 1325 l 1,68,-1
 572 774 l 1,56,-1
EndSplineSet
Validated: 1
EndChar

StartChar: C
Encoding: 67 67 38
Width: 1400
GlyphClass: 2
Flags: W
LayerCount: 2
Fore
SplineSet
839 -37 m 0,0,1
 532 -37 532 -37 341 159 c 1,2,3
 205 297 205 297 205 510 c 0,4,5
 205 599 205 599 229 701 c 0,6,7
 307 1038 307 1038 584.5 1241.5 c 128,-1,8
 862 1445 862 1445 1182 1445 c 0,9,10
 1297 1445 1297 1445 1420.5 1419.5 c 128,-1,11
 1544 1394 1544 1394 1644 1319 c 1,12,-1
 1571 1109 l 1,13,14
 1563 1091 1563 1091 1547 1091 c 2,15,-1
 1544 1091 l 1,16,17
 1532 1092 1532 1092 1524 1119 c 1,18,19
 1491 1258 1491 1258 1405.5 1304 c 128,-1,20
 1320 1350 1320 1350 1160 1350 c 0,21,22
 937 1350 937 1350 727 1195 c 128,-1,23
 517 1040 517 1040 439 701 c 0,24,25
 424 635 424 635 424 571 c 0,26,27
 424 422 424 422 505 280 c 0,28,29
 620 77 620 77 863 65 c 0,30,31
 887 64 887 64 909 64 c 0,32,33
 1037 64 1037 64 1129 103 c 0,34,35
 1235 149 1235 149 1332 288 c 1,36,37
 1352 314 1352 314 1365 316 c 1,38,-1
 1370 316 l 2,39,40
 1384 316 1384 316 1384 300 c 2,41,-1
 1384 298 l 1,42,-1
 1381 274 l 1,43,-1
 1238 31 l 1,44,45
 1133 -9 1133 -9 1030.5 -23 c 128,-1,46
 928 -37 928 -37 839 -37 c 0,0,1
EndSplineSet
Validated: 1
EndChar

StartChar: D
Encoding: 68 68 39
Width: 1585
GlyphClass: 2
Flags: W
LayerCount: 2
Fore
SplineSet
1683 791 m 0,0,1
 1677 758 1677 758 1670 727 c 0,2,3
 1632 561 1632 561 1540 429 c 0,4,5
 1430 271 1430 271 1274 169 c 0,6,7
 1010 -3 1010 -3 687 -7 c 1,8,-1
 607 -7 l 2,9,10
 549 -7 549 -7 499 -6 c 1,11,-1
 382 -6 l 2,12,13
 299 -6 299 -6 256 -3 c 1,14,-1
 232 -3 l 2,15,16
 192 -3 192 -3 127 -9 c 1,17,18
 110 -9 110 -9 110 5 c 0,19,20
 110 9 110 9 111 13 c 0,21,22
 117 38 117 38 171 56 c 128,-1,23
 225 74 225 74 240 139 c 2,24,-1
 499 1262 l 2,25,26
 503 1278 503 1278 503 1291 c 0,27,28
 503 1330 503 1330 468 1344 c 1,29,30
 427 1359 427 1359 427 1381 c 0,31,32
 427 1384 427 1384 428 1387 c 0,33,34
 433 1408 433 1408 454 1408 c 0,35,36
 496 1407 496 1407 539 1407 c 0,37,38
 581 1407 581 1407 625 1408 c 0,39,40
 712 1411 712 1411 794 1413 c 1,41,-1
 853 1413 l 2,42,43
 1006 1413 1006 1413 1159 1405 c 1,44,45
 1340 1394 1340 1394 1472 1331 c 1,46,47
 1596 1270 1596 1270 1658 1144 c 0,48,49
 1697 1064 1697 1064 1697 946 c 0,50,51
 1697 875 1697 875 1683 791 c 0,0,1
702 1313 m 1,52,-1
 422 100 l 1,53,54
 541 77 541 77 655 77 c 0,55,56
 699 77 699 77 741 80 c 0,57,58
 897 92 897 92 1030 154 c 0,59,60
 1188 228 1188 228 1304 380 c 0,61,62
 1410 520 1410 520 1460 736 c 1,63,-1
 1468 769 l 1,64,65
 1486 856 1486 856 1486 928 c 0,66,67
 1486 990 1486 990 1473 1041 c 0,68,69
 1444 1150 1444 1150 1372 1216 c 1,70,71
 1265 1312 1265 1312 1085 1329 c 0,72,73
 1023 1334 1023 1334 959 1334 c 0,74,75
 836 1334 836 1334 702 1313 c 1,52,-1
EndSplineSet
Validated: 1
EndChar

StartChar: E
Encoding: 69 69 40
Width: 1251
GlyphClass: 2
Flags: W
LayerCount: 2
Fore
SplineSet
458 94 m 1,0,-1
 885 94 l 2,1,2
 978 94 978 94 1059 165.5 c 128,-1,3
 1140 237 1140 237 1182 277 c 0,4,5
 1205 299 1205 299 1215 299 c 0,6,7
 1232 299 1232 299 1232 285 c 0,8,9
 1232 282 1232 282 1231 278 c 0,10,11
 1228 265 1228 265 1224 257 c 2,12,-1
 1092 0 l 1,13,-1
 173 0 l 2,14,15
 159 0 159 0 159 13 c 0,16,17
 159 16 159 16 160 21 c 0,18,19
 166 46 166 46 220 63.5 c 128,-1,20
 274 81 274 81 289 146 c 2,21,-1
 545 1257 l 2,22,23
 549 1273 549 1273 549 1286 c 0,24,25
 549 1326 549 1326 514 1340 c 1,26,27
 473 1355 473 1355 473 1377 c 0,28,29
 473 1380 473 1380 474 1383 c 0,30,31
 479 1404 479 1404 500 1404 c 2,32,-1
 1428 1404 l 1,33,-1
 1369 1147 l 2,34,35
 1364 1126 1364 1126 1343 1126 c 0,36,37
 1333 1126 1333 1126 1315 1166 c 1,38,39
 1281 1235 1281 1235 1253.5 1273 c 128,-1,40
 1226 1311 1226 1311 1166 1311 c 2,41,-1
 739 1311 l 1,42,-1
 613 768 l 1,43,-1
 842 768 l 2,44,45
 906 768 906 768 938 819.5 c 128,-1,46
 970 871 970 871 996 871 c 0,47,48
 1012 871 1012 871 1012 858 c 0,49,50
 1012 854 1012 854 1011 850 c 2,51,-1
 953 596 l 2,52,53
 948 575 948 575 928 575 c 0,54,55
 902 575 902 575 890.5 626 c 128,-1,56
 879 677 879 677 815 677 c 2,57,-1
 592 677 l 1,58,-1
 458 94 l 1,0,-1
EndSplineSet
Validated: 1
EndChar

StartChar: F
Encoding: 70 70 41
Width: 1139
GlyphClass: 2
Flags: W
LayerCount: 2
Fore
SplineSet
174 0 m 2,0,1
 159 0 159 0 159 13 c 0,2,3
 159 17 159 17 160 21 c 0,4,5
 163 33 163 33 187 46 c 0,6,7
 204 56 204 56 227.5 69 c 128,-1,8
 251 82 251 82 269 104 c 1,9,10
 284 124 284 124 289 146 c 2,11,-1
 545 1257 l 2,12,13
 549 1273 549 1273 549 1286 c 0,14,15
 549 1326 549 1326 514 1340 c 1,16,17
 473 1355 473 1355 473 1377 c 0,18,19
 473 1380 473 1380 474 1383 c 0,20,21
 479 1404 479 1404 500 1404 c 2,22,-1
 1428 1404 l 1,23,-1
 1369 1147 l 2,24,25
 1364 1126 1364 1126 1343 1126 c 0,26,27
 1333 1126 1333 1126 1315 1166 c 1,28,29
 1281 1235 1281 1235 1253.5 1273 c 128,-1,30
 1226 1311 1226 1311 1166 1311 c 2,31,-1
 739 1311 l 1,32,-1
 613 768 l 1,33,-1
 842 768 l 2,34,35
 884 768 884 768 925 805 c 0,36,37
 948 827 948 827 964 849 c 128,-1,38
 980 871 980 871 996 871 c 256,39,40
 1012 871 1012 871 1012 858 c 0,41,42
 1012 854 1012 854 1011 850 c 2,43,-1
 953 596 l 2,44,45
 948 575 948 575 928 575 c 0,46,47
 910 575 910 575 903.5 600.5 c 128,-1,48
 897 626 897 626 881 650 c 1,49,50
 860 678 860 678 822 678 c 2,51,-1
 593 678 l 1,52,-1
 470 146 l 2,53,54
 467 133 467 133 467 121 c 0,55,56
 467 108 467 108 471 97 c 0,57,58
 479 79 479 79 494.5 67.5 c 128,-1,59
 510 56 510 56 523 47 c 0,60,61
 540 35 540 35 540 24 c 2,62,-1
 540 21 l 1,63,64
 538 15 538 15 537 12 c 1,65,66
 527 0 527 0 515 0 c 2,67,-1
 174 0 l 2,0,1
EndSplineSet
Validated: 1
EndChar

StartChar: G
Encoding: 71 71 42
Width: 1563
GlyphClass: 2
Flags: W
LayerCount: 2
Fore
SplineSet
839 -37 m 0,0,1
 532 -37 532 -37 341 159 c 1,2,3
 205 297 205 297 205 510 c 0,4,5
 205 599 205 599 229 701 c 0,6,7
 307 1038 307 1038 584.5 1241.5 c 128,-1,8
 862 1445 862 1445 1182 1445 c 0,9,10
 1297 1445 1297 1445 1420.5 1419.5 c 128,-1,11
 1544 1394 1544 1394 1644 1319 c 1,12,-1
 1571 1109 l 1,13,14
 1563 1091 1563 1091 1547 1091 c 2,15,-1
 1544 1091 l 1,16,17
 1532 1092 1532 1092 1524 1119 c 1,18,19
 1491 1258 1491 1258 1405.5 1304 c 128,-1,20
 1320 1350 1320 1350 1160 1350 c 0,21,22
 937 1350 937 1350 727 1195 c 128,-1,23
 517 1040 517 1040 439 701 c 0,24,25
 424 635 424 635 424 571 c 0,26,27
 424 422 424 422 505 280 c 0,28,29
 620 77 620 77 863 65 c 0,30,31
 887 64 887 64 909 64 c 0,32,33
 1023 64 1023 64 1108 94 c 0,34,35
 1209 130 1209 130 1297 240 c 1,36,-1
 1341 428 l 2,37,38
 1342 433 1342 433 1342 438 c 0,39,40
 1342 462 1342 462 1320 476 c 1,41,42
 1296 490 1296 490 1249 512 c 0,43,44
 1207 531 1207 531 1207 550 c 2,45,-1
 1207 554 l 1,46,47
 1212 575 1212 575 1233 575 c 2,48,-1
 1634 575 l 2,49,50
 1651 575 1651 575 1651 561 c 0,51,52
 1651 558 1651 558 1650 554 c 0,53,54
 1644 528 1644 528 1590 510 c 128,-1,55
 1536 492 1536 492 1521 428 c 2,56,-1
 1431 39 l 1,57,58
 1275 32 1275 32 1124 -4 c 0,59,60
 1048 -23 1048 -23 976 -30 c 128,-1,61
 904 -37 904 -37 839 -37 c 0,0,1
EndSplineSet
Validated: 1
EndChar

StartChar: H
Encoding: 72 72 43
Width: 1638
GlyphClass: 2
Flags: W
LayerCount: 2
Fore
SplineSet
725 1257 m 2,0,-1
 617 789 l 1,1,-1
 1462 789 l 1,2,-1
 1570 1257 l 2,3,4
 1574 1273 1574 1273 1574 1286 c 0,5,6
 1574 1325 1574 1325 1539 1339 c 0,7,8
 1498 1355 1498 1355 1498 1377 c 0,9,10
 1498 1380 1498 1380 1499 1383 c 0,11,12
 1504 1404 1504 1404 1525 1404 c 2,13,-1
 1864 1404 l 2,14,15
 1881 1404 1881 1404 1881 1390 c 0,16,17
 1881 1387 1881 1387 1880 1383 c 0,18,19
 1874 1357 1874 1357 1819.5 1339 c 128,-1,20
 1765 1321 1765 1321 1750 1257 c 2,21,-1
 1494 146 l 2,22,23
 1490 130 1490 130 1490 117 c 0,24,25
 1490 77 1490 77 1526 64 c 0,26,27
 1567 48 1567 48 1567 27 c 0,28,29
 1567 24 1567 24 1566 21 c 0,30,31
 1561 0 1561 0 1540 0 c 2,32,-1
 1201 0 l 2,33,34
 1184 0 1184 0 1184 14 c 0,35,36
 1184 17 1184 17 1185 21 c 0,37,38
 1191 46 1191 46 1245 63.5 c 128,-1,39
 1299 81 1299 81 1314 146 c 2,40,-1
 1441 697 l 1,41,-1
 596 697 l 1,42,-1
 469 146 l 2,43,44
 465 130 465 130 465 117 c 0,45,46
 465 77 465 77 500 64 c 0,47,48
 541 48 541 48 541 27 c 0,49,50
 541 24 541 24 540 21 c 0,51,52
 535 0 535 0 515 0 c 2,53,-1
 176 0 l 2,54,55
 159 0 159 0 159 14 c 0,56,57
 159 17 159 17 160 21 c 0,58,59
 166 46 166 46 220 63.5 c 128,-1,60
 274 81 274 81 289 146 c 2,61,-1
 545 1257 l 2,62,63
 549 1273 549 1273 549 1286 c 0,64,65
 549 1325 549 1325 514 1339 c 0,66,67
 473 1355 473 1355 473 1377 c 0,68,69
 473 1380 473 1380 474 1383 c 0,70,71
 479 1404 479 1404 500 1404 c 2,72,-1
 839 1404 l 2,73,74
 855 1404 855 1404 855 1391 c 0,75,76
 855 1387 855 1387 854 1383 c 0,77,78
 848 1357 848 1357 794 1339 c 128,-1,79
 740 1321 740 1321 725 1257 c 2,0,-1
EndSplineSet
Validated: 1
EndChar

StartChar: I
Encoding: 73 73 44
Width: 690
GlyphClass: 2
Flags: W
LayerCount: 2
Fore
SplineSet
725 1257 m 2,0,-1
 469 147 l 2,1,2
 465 131 465 131 465 117 c 0,3,4
 465 77 465 77 500 64 c 0,5,6
 541 48 541 48 541 27 c 0,7,8
 541 24 541 24 540 21 c 0,9,10
 535 0 535 0 514 0 c 2,11,-1
 175 0 l 2,12,13
 159 0 159 0 159 13 c 0,14,15
 159 17 159 17 160 21 c 0,16,17
 166 46 166 46 220 63.5 c 128,-1,18
 274 81 274 81 289 146 c 2,19,-1
 545 1257 l 2,20,21
 549 1273 549 1273 549 1286 c 0,22,23
 549 1326 549 1326 514 1340 c 1,24,25
 473 1355 473 1355 473 1377 c 0,26,27
 473 1380 473 1380 474 1383 c 0,28,29
 479 1404 479 1404 500 1404 c 2,30,-1
 838 1404 l 2,31,32
 855 1404 855 1404 855 1390 c 0,33,34
 855 1387 855 1387 854 1383 c 0,35,36
 848 1357 848 1357 794 1339.5 c 128,-1,37
 740 1322 740 1322 725 1257 c 2,0,-1
EndSplineSet
Validated: 1
EndChar

StartChar: J
Encoding: 74 74 45
Width: 682
GlyphClass: 2
Flags: W
LayerCount: 2
Fore
SplineSet
472 180 m 2,0,1
 426 -17 426 -17 377.5 -113 c 128,-1,2
 329 -209 329 -209 248 -277 c 0,3,4
 137 -369 137 -369 18 -399 c 1,5,-1
 29 -349 l 1,6,7
 74 -325 74 -325 116.5 -287.5 c 128,-1,8
 159 -250 159 -250 192 -189 c 0,9,10
 214 -148 214 -148 231.5 -74 c 128,-1,11
 249 0 249 0 289 174 c 2,12,-1
 539 1258 l 2,13,14
 543 1274 543 1274 543 1287 c 0,15,16
 543 1326 543 1326 509 1340 c 0,17,18
 468 1356 468 1356 468 1378 c 0,19,20
 468 1381 468 1381 469 1384 c 0,21,22
 473 1404 473 1404 494 1404 c 2,23,-1
 833 1404 l 2,24,25
 851 1404 851 1404 851 1390 c 0,26,27
 851 1387 851 1387 850 1384 c 0,28,29
 844 1358 844 1358 789.5 1340 c 128,-1,30
 735 1322 735 1322 720 1258 c 2,31,-1
 472 180 l 2,0,1
EndSplineSet
Validated: 1
EndChar

StartChar: K
Encoding: 75 75 46
Width: 1487
GlyphClass: 2
Flags: W
LayerCount: 2
Fore
SplineSet
607 746 m 1,0,-1
 1245 1241 l 2,1,2
 1339 1314 1339 1314 1406 1367 c 0,3,4
 1450 1403 1450 1403 1486 1403 c 0,5,6
 1504 1403 1504 1403 1520 1394 c 2,7,-1
 1614 1342 l 1,8,9
 1626 1334 1626 1334 1626 1324 c 0,10,11
 1626 1321 1626 1321 1625 1318 c 0,12,13
 1624 1312 1624 1312 1619 1305 c 2,14,-1
 1534 1159 l 1,15,-1
 1471 1188 l 2,16,17
 1436 1204 1436 1204 1403 1204 c 0,18,19
 1351 1204 1351 1204 1303 1165 c 2,20,-1
 809 772 l 1,21,-1
 1401 78 l 1,22,23
 1417 57 1417 57 1438 47 c 1,24,25
 1456 37 1456 37 1456 25 c 2,26,-1
 1456 21 l 1,27,28
 1451 0 1451 0 1431 0 c 2,29,-1
 1092 0 l 2,30,31
 1075 0 1075 0 1075 14 c 0,32,33
 1075 17 1075 17 1076 21 c 0,34,35
 1078 29 1078 29 1091 39 c 0,36,37
 1112 54 1112 54 1117 66 c 1,38,-1
 1117 70 l 2,39,40
 1117 83 1117 83 1092 111 c 2,41,-1
 595 693 l 1,42,-1
 469 146 l 2,43,44
 465 130 465 130 465 117 c 0,45,46
 465 77 465 77 500 64 c 0,47,48
 541 48 541 48 541 27 c 0,49,50
 541 24 541 24 540 21 c 0,51,52
 535 0 535 0 515 0 c 2,53,-1
 176 0 l 2,54,55
 159 0 159 0 159 14 c 0,56,57
 159 17 159 17 160 21 c 0,58,59
 166 46 166 46 220 63.5 c 128,-1,60
 274 81 274 81 289 146 c 2,61,-1
 545 1257 l 2,62,63
 549 1273 549 1273 549 1286 c 0,64,65
 549 1325 549 1325 514 1339 c 0,66,67
 473 1355 473 1355 473 1377 c 0,68,69
 473 1380 473 1380 474 1383 c 0,70,71
 479 1404 479 1404 500 1404 c 2,72,-1
 839 1404 l 2,73,74
 855 1404 855 1404 855 1391 c 0,75,76
 855 1387 855 1387 854 1383 c 0,77,78
 848 1357 848 1357 794 1339 c 128,-1,79
 740 1321 740 1321 725 1257 c 2,80,-1
 607 746 l 1,0,-1
EndSplineSet
Validated: 1
EndChar

StartChar: L
Encoding: 76 76 47
Width: 1251
GlyphClass: 2
Flags: W
LayerCount: 2
Fore
SplineSet
458 94 m 1,0,-1
 885 94 l 2,1,2
 978 94 978 94 1059 165.5 c 128,-1,3
 1140 237 1140 237 1182 277 c 0,4,5
 1205 299 1205 299 1215 299 c 0,6,7
 1232 299 1232 299 1232 285 c 0,8,9
 1232 282 1232 282 1231 278 c 0,10,11
 1228 265 1228 265 1224 257 c 2,12,-1
 1092 0 l 1,13,-1
 176 0 l 2,14,15
 159 0 159 0 159 14 c 0,16,17
 159 17 159 17 160 21 c 0,18,19
 166 46 166 46 220 63.5 c 128,-1,20
 274 81 274 81 289 146 c 2,21,-1
 545 1257 l 2,22,23
 549 1273 549 1273 549 1286 c 0,24,25
 549 1325 549 1325 514 1339 c 0,26,27
 473 1355 473 1355 473 1377 c 0,28,29
 473 1380 473 1380 474 1383 c 0,30,31
 479 1404 479 1404 500 1404 c 2,32,-1
 839 1404 l 2,33,34
 855 1404 855 1404 855 1391 c 0,35,36
 855 1387 855 1387 854 1383 c 0,37,38
 848 1357 848 1357 794 1339 c 128,-1,39
 740 1321 740 1321 725 1257 c 2,40,-1
 458 94 l 1,0,-1
EndSplineSet
Validated: 1
EndChar

StartChar: M
Encoding: 77 77 48
Width: 1908
GlyphClass: 2
Flags: W
LayerCount: 2
Fore
SplineSet
1987 1257 m 2,0,-1
 1731 146 l 2,1,2
 1727 130 1727 130 1727 117 c 0,3,4
 1727 77 1727 77 1763 64 c 0,5,6
 1804 48 1804 48 1804 27 c 0,7,8
 1804 24 1804 24 1803 21 c 0,9,10
 1798 0 1798 0 1777 0 c 2,11,-1
 1438 0 l 2,12,13
 1421 0 1421 0 1421 14 c 0,14,15
 1421 17 1421 17 1422 21 c 0,16,17
 1428 46 1428 46 1482 63.5 c 128,-1,18
 1536 81 1536 81 1551 146 c 2,19,-1
 1798 1217 l 1,20,-1
 933 -30 l 1,21,-1
 894 -30 l 1,22,-1
 600 1170 l 1,23,-1
 364 146 l 2,24,25
 360 130 360 130 360 117 c 0,26,27
 360 77 360 77 395 64 c 0,28,29
 436 48 436 48 436 27 c 0,30,31
 436 24 436 24 435 21 c 0,32,33
 430 0 430 0 409 0 c 2,34,-1
 155 0 l 2,35,36
 138 0 138 0 138 14 c 0,37,38
 138 17 138 17 139 21 c 0,39,40
 145 46 145 46 199 63.5 c 128,-1,41
 253 81 253 81 268 146 c 2,42,-1
 524 1257 l 2,43,44
 528 1273 528 1273 528 1286 c 0,45,46
 528 1325 528 1325 493 1339 c 0,47,48
 452 1355 452 1355 452 1377 c 0,49,50
 452 1380 452 1380 453 1383 c 0,51,52
 458 1404 458 1404 479 1404 c 2,53,-1
 745 1404 l 1,54,-1
 1033 282 l 1,55,-1
 1822 1404 l 1,56,-1
 2101 1404 l 2,57,58
 2118 1404 2118 1404 2118 1390 c 0,59,60
 2118 1387 2118 1387 2117 1383 c 0,61,62
 2111 1357 2111 1357 2056.5 1339 c 128,-1,63
 2002 1321 2002 1321 1987 1257 c 2,0,-1
EndSplineSet
Validated: 1
EndChar

StartChar: N
Encoding: 78 78 49
Width: 1644
GlyphClass: 2
Flags: W
LayerCount: 2
Fore
SplineSet
1416 203 m 1,0,-1
 1659 1257 l 2,1,2
 1663 1273 1663 1273 1663 1286 c 0,3,4
 1663 1325 1663 1325 1629 1339 c 0,5,6
 1588 1355 1588 1355 1588 1377 c 0,7,8
 1588 1380 1588 1380 1589 1383 c 0,9,10
 1594 1404 1594 1404 1614 1404 c 2,11,-1
 1869 1404 l 2,12,13
 1886 1404 1886 1404 1886 1390 c 0,14,15
 1886 1387 1886 1387 1885 1383 c 0,16,17
 1879 1357 1879 1357 1825 1339 c 128,-1,18
 1771 1321 1771 1321 1756 1257 c 2,19,-1
 1455 -43 l 1,20,-1
 1288 0 l 1,21,-1
 605 1189 l 1,22,-1
 364 146 l 2,23,24
 360 130 360 130 360 117 c 0,25,26
 360 77 360 77 395 64 c 0,27,28
 436 48 436 48 436 27 c 0,29,30
 436 24 436 24 435 21 c 0,31,32
 430 0 430 0 409 0 c 2,33,-1
 155 0 l 2,34,35
 138 0 138 0 138 14 c 0,36,37
 138 17 138 17 139 21 c 0,38,39
 145 46 145 46 199 63.5 c 128,-1,40
 253 81 253 81 268 146 c 2,41,-1
 524 1257 l 2,42,43
 528 1273 528 1273 528 1286 c 0,44,45
 528 1325 528 1325 493 1339 c 0,46,47
 452 1355 452 1355 452 1377 c 0,48,49
 452 1380 452 1380 453 1383 c 0,50,51
 458 1404 458 1404 479 1404 c 2,52,-1
 736 1404 l 1,53,-1
 1416 203 l 1,0,-1
EndSplineSet
Validated: 1
EndChar

StartChar: O
Encoding: 79 79 50
Width: 1610
GlyphClass: 2
Flags: W
LayerCount: 2
Fore
SplineSet
1122 1358 m 0,0,1
 814 1357 814 1357 647.5 1164.5 c 128,-1,2
 481 972 481 972 419 702 c 0,3,4
 396 603 396 603 396 515 c 0,5,6
 396 361 396 361 466 240 c 1,7,8
 574 48 574 48 819 46 c 1,9,-1
 824 46 l 2,10,11
 1063 46 1063 46 1264 250 c 0,12,13
 1462 452 1462 452 1519 696 c 1,14,-1
 1520 702 l 1,15,16
 1543 804 1543 804 1543 898 c 0,17,18
 1543 1034 1543 1034 1495 1155 c 0,19,20
 1414 1358 1414 1358 1122 1358 c 0,0,1
1142 1446 m 1,21,-1
 1152 1446 l 2,22,23
 1475 1446 1475 1446 1651 1248 c 0,24,25
 1766 1118 1766 1118 1766 931 c 0,26,27
 1766 851 1766 851 1745 760 c 0,28,29
 1739 733 1739 733 1731 705 c 0,30,31
 1630 361 1630 361 1369 171.5 c 128,-1,32
 1108 -18 1108 -18 798 -35 c 0,33,34
 775 -36 775 -36 752 -36 c 0,35,36
 474 -36 474 -36 304 156 c 0,37,38
 181 294 181 294 181 493 c 0,39,40
 181 576 181 576 202 669 c 0,41,42
 207 687 207 687 212 705 c 0,43,44
 302 1046 302 1046 556.5 1244 c 128,-1,45
 811 1442 811 1442 1142 1446 c 1,21,-1
EndSplineSet
Validated: 1
EndChar

StartChar: P
Encoding: 80 80 51
Width: 1237
GlyphClass: 2
Flags: W
LayerCount: 2
Fore
SplineSet
448 146 m 2,0,1
 444 130 444 130 444 117 c 0,2,3
 444 77 444 77 479 64 c 0,4,5
 520 48 520 48 520 27 c 0,6,7
 520 24 520 24 519 21 c 0,8,9
 514 0 514 0 494 0 c 2,10,-1
 155 0 l 2,11,12
 138 0 138 0 138 14 c 0,13,14
 138 17 138 17 139 21 c 0,15,16
 145 46 145 46 198 63.5 c 128,-1,17
 251 81 251 81 266 146 c 2,18,-1
 524 1257 l 2,19,20
 528 1273 528 1273 528 1286 c 0,21,22
 528 1325 528 1325 493 1339 c 0,23,24
 452 1355 452 1355 452 1377 c 0,25,26
 452 1380 452 1380 453 1383 c 0,27,28
 458 1404 458 1404 479 1404 c 2,29,-1
 1069 1404 l 2,30,31
 1172 1404 1172 1404 1275.5 1367.5 c 128,-1,32
 1379 1331 1379 1331 1416 1226 c 1,33,34
 1430 1183 1430 1183 1430 1131 c 0,35,36
 1430 1080 1430 1080 1417 1022 c 1,37,38
 1389 909 1389 909 1305 819 c 0,39,40
 1233 742 1233 742 1125 704.5 c 128,-1,41
 1017 667 1017 667 935 667 c 2,42,-1
 568 667 l 1,43,-1
 448 146 l 2,0,1
719 1321 m 1,44,-1
 584 737 l 1,45,-1
 816 737 l 2,46,47
 885 737 885 737 960.5 757 c 128,-1,48
 1036 777 1036 777 1099 828 c 1,49,50
 1197 905 1197 905 1226 1032 c 0,51,52
 1235 1069 1235 1069 1235 1103 c 0,53,54
 1235 1179 1235 1179 1190 1236 c 0,55,56
 1121 1321 1121 1321 971 1321 c 2,57,-1
 719 1321 l 1,44,-1
EndSplineSet
Validated: 1
EndChar

StartChar: Q
Encoding: 81 81 52
Width: 1610
GlyphClass: 2
Flags: W
LayerCount: 2
Fore
SplineSet
1122 1358 m 0,0,1
 814 1357 814 1357 647.5 1164.5 c 128,-1,2
 481 972 481 972 419 702 c 0,3,4
 396 603 396 603 396 515 c 0,5,6
 396 361 396 361 466 240 c 1,7,8
 574 48 574 48 819 46 c 1,9,-1
 824 46 l 2,10,11
 1063 46 1063 46 1264 250 c 0,12,13
 1462 452 1462 452 1519 696 c 1,14,-1
 1520 702 l 1,15,16
 1543 804 1543 804 1543 898 c 0,17,18
 1543 1034 1543 1034 1495 1155 c 0,19,20
 1414 1358 1414 1358 1122 1358 c 0,0,1
682 -33 m 1,21,22
 419 -6 419 -6 274 195 c 0,23,24
 181 323 181 323 181 496 c 0,25,26
 181 577 181 577 202 669 c 0,27,28
 207 687 207 687 212 705 c 0,29,30
 302 1046 302 1046 556.5 1244 c 128,-1,31
 811 1442 811 1442 1142 1446 c 1,32,-1
 1152 1446 l 2,33,34
 1475 1446 1475 1446 1651 1248 c 0,35,36
 1766 1118 1766 1118 1766 931 c 0,37,38
 1766 851 1766 851 1745 760 c 0,39,40
 1739 733 1739 733 1731 705 c 0,41,42
 1635 376 1635 376 1390.5 187.5 c 128,-1,43
 1146 -1 1146 -1 852 -31 c 1,44,45
 914 -56 914 -56 965 -83 c 0,46,47
 1160 -184 1160 -184 1262 -184 c 0,48,49
 1296 -184 1296 -184 1366 -165 c 1,50,-1
 1354 -215 l 1,51,52
 1244 -271 1244 -271 1188 -320 c 1,53,54
 1121 -311 1121 -311 1061 -292 c 0,55,56
 999 -272 999 -272 894 -224 c 0,57,58
 709 -141 709 -141 642 -141 c 0,59,60
 625 -141 625 -141 598 -151 c 0,61,62
 568 -162 568 -162 475 -215 c 1,63,-1
 490 -152 l 1,64,65
 615 -70 615 -70 682 -33 c 1,21,22
EndSplineSet
Validated: 1
EndChar

StartChar: R
Encoding: 82 82 53
Width: 1368
GlyphClass: 2
Flags: W
LayerCount: 2
Fore
SplineSet
1280 72 m 1,0,1
 1302 49 1302 49 1346 45 c 0,2,3
 1371 42 1371 42 1371 28 c 0,4,5
 1371 26 1371 26 1370 24 c 2,6,-1
 1369 21 l 2,7,8
 1361 0 1361 0 1343 0 c 2,9,-1
 1076 0 l 2,10,11
 1067 0 1067 0 1026 78 c 128,-1,12
 985 156 985 156 932 264 c 128,-1,13
 879 372 879 372 823 485 c 128,-1,14
 767 598 767 598 728 667 c 1,15,-1
 568 667 l 1,16,-1
 448 146 l 2,17,18
 444 130 444 130 444 117 c 0,19,20
 444 77 444 77 479 64 c 0,21,22
 520 48 520 48 520 27 c 0,23,24
 520 24 520 24 519 21 c 0,25,26
 514 0 514 0 494 0 c 2,27,-1
 155 0 l 2,28,29
 138 0 138 0 138 14 c 0,30,31
 138 17 138 17 139 21 c 0,32,33
 145 46 145 46 199 63.5 c 128,-1,34
 253 81 253 81 268 146 c 2,35,-1
 524 1257 l 2,36,37
 528 1273 528 1273 528 1286 c 0,38,39
 528 1325 528 1325 493 1339 c 0,40,41
 452 1355 452 1355 452 1377 c 0,42,43
 452 1380 452 1380 453 1383 c 0,44,45
 458 1404 458 1404 479 1404 c 2,46,-1
 1069 1404 l 2,47,48
 1172 1404 1172 1404 1275.5 1367.5 c 128,-1,49
 1379 1331 1379 1331 1416 1226 c 1,50,51
 1430 1183 1430 1183 1430 1131 c 0,52,53
 1430 1080 1430 1080 1417 1022 c 1,54,55
 1389 909 1389 909 1305 819 c 0,56,57
 1239 748 1239 748 1141 710.5 c 128,-1,58
 1043 673 1043 673 962 668 c 1,59,-1
 1280 72 l 1,0,1
719 1321 m 1,60,-1
 584 737 l 1,61,-1
 816 737 l 2,62,63
 885 737 885 737 960.5 757 c 128,-1,64
 1036 777 1036 777 1099 828 c 1,65,66
 1197 905 1197 905 1226 1032 c 0,67,68
 1235 1069 1235 1069 1235 1103 c 0,69,70
 1235 1179 1235 1179 1190 1236 c 0,71,72
 1121 1321 1121 1321 971 1321 c 2,73,-1
 719 1321 l 1,60,-1
EndSplineSet
Validated: 1
EndChar

StartChar: S
Encoding: 83 83 54
Width: 1075
GlyphClass: 2
Flags: W
LayerCount: 2
Fore
SplineSet
548 55 m 0,0,1
 630 60 630 60 713 97.5 c 128,-1,2
 796 135 796 135 858 207 c 0,3,4
 922 282 922 282 947 388 c 1,5,-1
 949 399 l 2,6,7
 955 427 955 427 955 452 c 0,8,9
 955 527 955 527 903 572 c 0,10,11
 872 600 872 600 821 616 c 1,12,13
 722 645 722 645 614 657 c 128,-1,14
 506 669 506 669 419 717 c 1,15,16
 339 759 339 759 314 841 c 0,17,18
 301 884 301 884 301 931 c 0,19,20
 301 973 301 973 311 1018 c 0,21,22
 354 1206 354 1206 513 1325 c 1,23,24
 676 1449 676 1449 880 1449 c 2,25,-1
 910 1449 l 1,26,27
 1130 1439 1130 1439 1263 1338 c 1,28,-1
 1190 1128 l 2,29,30
 1184 1110 1184 1110 1167 1110 c 2,31,-1
 1163 1110 l 1,32,33
 1150 1111 1150 1111 1145 1138 c 1,34,35
 1123 1228 1123 1228 1055.5 1291.5 c 128,-1,36
 988 1355 988 1355 894 1359 c 1,37,-1
 878 1359 l 2,38,39
 786 1359 786 1359 706 1326 c 1,40,41
 654 1302 654 1302 619 1273 c 0,42,43
 586 1245 586 1245 557 1204 c 0,44,45
 533 1171 533 1171 514 1127 c 0,46,47
 500 1095 500 1095 493 1066 c 0,48,49
 487 1039 487 1039 487 1015 c 0,50,51
 487 1004 487 1004 488 994 c 0,52,53
 494 927 494 927 537 891 c 1,54,55
 569 862 569 862 612 851 c 0,56,57
 636 844 636 844 670.5 837.5 c 128,-1,58
 705 831 705 831 742 825 c 0,59,60
 797 816 797 816 858.5 806.5 c 128,-1,61
 920 797 920 797 976 779 c 1,62,63
 1068 747 1068 747 1105 694 c 1,64,65
 1132 653 1132 653 1143 604 c 0,66,67
 1148 578 1148 578 1148 549 c 0,68,69
 1148 506 1148 506 1137 459 c 0,70,71
 1088 245 1088 245 881 103 c 0,72,73
 774 29 774 29 657 -6 c 0,74,75
 562 -34 562 -34 461 -38 c 0,76,77
 439 -39 439 -39 418 -39 c 0,78,79
 279 -39 279 -39 161 0 c 1,80,-1
 127 264 l 1,81,-1
 127 274 l 1,82,83
 130 284 130 284 139 294 c 0,84,85
 150 307 150 307 163 307 c 1,86,87
 174 304 174 304 181 278 c 0,88,89
 213 139 213 139 299 92 c 0,90,91
 370 53 370 53 493 53 c 0,92,93
 519 53 519 53 548 55 c 0,0,1
EndSplineSet
Validated: 1
EndChar

StartChar: T
Encoding: 84 84 55
Width: 1255
GlyphClass: 2
Flags: W
LayerCount: 2
Fore
SplineSet
1480 1147 m 2,0,1
 1475 1126 1475 1126 1454 1126 c 0,2,3
 1445 1126 1445 1126 1425 1166 c 0,4,5
 1390 1235 1390 1235 1362.5 1273 c 128,-1,6
 1335 1311 1335 1311 1275 1311 c 2,7,-1
 1024 1311 l 1,8,-1
 755 146 l 2,9,10
 751 130 751 130 751 117 c 0,11,12
 751 77 751 77 786 63 c 0,13,14
 826 47 826 47 826 25 c 2,15,-1
 826 20 l 1,16,17
 821 0 821 0 801 0 c 2,18,-1
 462 0 l 2,19,20
 445 0 445 0 445 13 c 0,21,22
 445 16 445 16 446 20 c 0,23,24
 451 45 451 45 505.5 63 c 128,-1,25
 560 81 560 81 575 146 c 2,26,-1
 844 1311 l 1,27,-1
 589 1311 l 2,28,29
 529 1311 529 1311 482.5 1273 c 128,-1,30
 436 1235 436 1235 370 1166 c 0,31,32
 333 1126 333 1126 324 1126 c 0,33,34
 307 1126 307 1126 307 1140 c 0,35,36
 307 1143 307 1143 308 1147 c 2,37,-1
 351 1332 l 2,38,39
 363 1386 363 1386 384 1397.5 c 128,-1,40
 405 1409 405 1409 482 1409 c 2,41,-1
 1426 1409 l 2,42,43
 1509 1409 1509 1409 1523 1399 c 0,44,45
 1529 1394 1529 1394 1529 1377 c 256,46,47
 1529 1360 1529 1360 1523 1332 c 2,48,-1
 1480 1147 l 2,0,1
EndSplineSet
Validated: 1
EndChar

StartChar: U
Encoding: 85 85 56
Width: 1554
GlyphClass: 2
Flags: W
LayerCount: 2
Fore
SplineSet
370 588 m 2,0,-1
 524 1258 l 2,1,2
 528 1274 528 1274 528 1287 c 0,3,4
 528 1326 528 1326 493 1340 c 1,5,6
 452 1355 452 1355 452 1377 c 0,7,8
 452 1380 452 1380 453 1383 c 0,9,10
 458 1404 458 1404 479 1404 c 2,11,-1
 818 1404 l 2,12,13
 834 1404 834 1404 834 1391 c 0,14,15
 834 1387 834 1387 833 1383 c 0,16,17
 827 1357 827 1357 774.5 1340.5 c 128,-1,18
 722 1324 722 1324 707 1260 c 2,19,-1
 582 721 l 2,20,21
 547 568 547 568 530 450 c 0,22,23
 523 400 523 400 523 356 c 0,24,25
 523 298 523 298 536 251 c 0,26,27
 558 170 558 170 633.5 128 c 128,-1,28
 709 86 709 86 859 86 c 0,29,30
 1123 86 1123 86 1265 294 c 1,31,32
 1366 440 1366 440 1430 721 c 2,33,-1
 1554 1257 l 2,34,35
 1558 1273 1558 1273 1558 1286 c 0,36,37
 1558 1325 1558 1325 1523 1339 c 0,38,39
 1482 1355 1482 1355 1482 1377 c 0,40,41
 1482 1380 1482 1380 1483 1383 c 0,42,43
 1488 1404 1488 1404 1509 1404 c 2,44,-1
 1764 1404 l 2,45,46
 1780 1404 1780 1404 1780 1391 c 0,47,48
 1780 1387 1780 1387 1779 1383 c 0,49,50
 1773 1357 1773 1357 1719.5 1339 c 128,-1,51
 1666 1321 1666 1321 1651 1257 c 2,52,-1
 1497 588 l 1,53,54
 1461 439 1461 439 1406 315.5 c 128,-1,55
 1351 192 1351 192 1261 108 c 1,56,57
 1100 -39 1100 -39 830 -39 c 0,58,59
 659 -39 659 -39 546.5 -7 c 128,-1,60
 434 25 434 25 381 109 c 0,61,62
 334 184 334 184 334 315 c 0,63,64
 334 430 334 430 370 588 c 2,0,-1
EndSplineSet
Validated: 1
EndChar

StartChar: V
Encoding: 86 86 57
Width: 1479
GlyphClass: 2
Flags: W
LayerCount: 2
Fore
SplineSet
684 1263 m 2,0,-1
 857 177 l 1,1,-1
 1526 1107 l 2,2,3
 1545 1133 1545 1133 1549 1154 c 0,4,5
 1551 1162 1551 1162 1551 1169 c 0,6,7
 1551 1178 1551 1178 1548 1186 c 0,8,9
 1536 1216 1536 1216 1507 1264 c 1,10,-1
 1471 1321 l 1,11,-1
 1617 1415 l 1,12,13
 1626 1422 1626 1422 1635 1422 c 0,14,15
 1645 1422 1645 1422 1655 1412 c 1,16,-1
 1718 1328 l 2,17,18
 1731 1310 1731 1310 1731 1286 c 0,19,20
 1731 1275 1731 1275 1728 1262 c 0,21,22
 1723 1240 1723 1240 1710 1215 c 1,23,24
 1669 1144 1669 1144 1600 1048 c 2,25,-1
 875 32 l 2,26,27
 864 15 864 15 855 6 c 1,28,29
 846 0 846 0 838 0 c 2,30,-1
 687 0 l 2,31,32
 677 0 677 0 673 8 c 0,33,34
 671 11 671 11 668 31 c 128,-1,35
 665 51 665 51 664 60 c 2,36,-1
 528 1110 l 1,37,38
 513 1216 513 1216 504 1258 c 1,39,40
 495 1295 495 1295 461 1325 c 1,41,42
 440 1340 440 1340 420 1349.5 c 128,-1,43
 400 1359 400 1359 388 1369 c 1,44,45
 380 1374 380 1374 379 1383 c 0,46,47
 378 1386 378 1386 378 1389 c 2,48,-1
 378 1392 l 1,49,50
 379 1395 379 1395 382 1398 c 0,51,52
 387 1404 387 1404 395 1404 c 2,53,-1
 734 1404 l 2,54,55
 743 1404 743 1404 751 1398 c 1,56,57
 758 1390 758 1390 759 1383 c 0,58,59
 760 1382 760 1382 760 1380 c 0,60,61
 760 1379 760 1379 759 1378 c 0,62,63
 757 1368 757 1368 744 1358 c 0,64,65
 731 1349 731 1349 716.5 1338.5 c 128,-1,66
 702 1328 702 1328 692 1313 c 0,67,68
 686 1303 686 1303 683 1292 c 0,69,70
 682 1286 682 1286 682 1280 c 0,71,72
 682 1272 682 1272 684 1263 c 2,0,-1
EndSplineSet
Validated: 1
EndChar

StartChar: W
Encoding: 87 87 58
Width: 2048
GlyphClass: 2
Flags: W
LayerCount: 2
Fore
SplineSet
642 1263 m 2,0,-1
 815 177 l 1,1,-1
 1174 676 l 1,2,-1
 1117 1110 l 2,3,4
 1111 1161 1111 1161 1105 1197 c 128,-1,5
 1099 1233 1099 1233 1094 1258 c 1,6,7
 1085 1295 1085 1295 1051 1325 c 1,8,9
 1030 1340 1030 1340 1010 1349.5 c 128,-1,10
 990 1359 990 1359 978 1369 c 0,11,12
 971 1374 971 1374 968 1383 c 1,13,14
 968 1388 968 1388 969 1391 c 0,15,16
 970 1395 970 1395 972 1398 c 0,17,18
 976 1404 976 1404 985 1404 c 2,19,-1
 1324 1404 l 2,20,21
 1333 1404 1333 1404 1340 1398 c 0,22,23
 1348 1391 1348 1391 1349 1383 c 0,24,25
 1350 1382 1350 1382 1350 1380 c 0,26,27
 1350 1379 1350 1379 1349 1378 c 0,28,29
 1347 1368 1347 1368 1334 1358 c 0,30,31
 1321 1349 1321 1349 1306.5 1338.5 c 128,-1,32
 1292 1328 1292 1328 1282 1313 c 0,33,34
 1276 1303 1276 1303 1273 1292 c 0,35,36
 1272 1286 1272 1286 1272 1280 c 0,37,38
 1272 1272 1272 1272 1274 1263 c 2,39,-1
 1332 897 l 1,40,-1
 1484 1107 l 2,41,42
 1502 1133 1502 1133 1506 1154 c 1,43,44
 1509 1163 1509 1163 1509 1171 c 256,45,46
 1509 1179 1509 1179 1506 1186 c 0,47,48
 1493 1216 1493 1216 1465 1264 c 1,49,-1
 1428 1321 l 1,50,-1
 1575 1415 l 1,51,52
 1584 1422 1584 1422 1593 1422 c 0,53,54
 1603 1422 1603 1422 1613 1412 c 1,55,-1
 1676 1328 l 2,56,57
 1689 1310 1689 1310 1689 1286 c 0,58,59
 1689 1275 1689 1275 1686 1262 c 0,60,61
 1681 1240 1681 1240 1668 1215 c 1,62,63
 1627 1144 1627 1144 1558 1048 c 2,64,-1
 1354 762 l 1,65,-1
 1447 177 l 1,66,-1
 2116 1107 l 2,67,68
 2134 1133 2134 1133 2138 1154 c 1,69,70
 2141 1163 2141 1163 2141 1171 c 256,71,72
 2141 1179 2141 1179 2138 1186 c 0,73,74
 2125 1216 2125 1216 2096 1264 c 1,75,-1
 2060 1321 l 1,76,-1
 2206 1415 l 1,77,78
 2215 1422 2215 1422 2224 1422 c 0,79,80
 2235 1422 2235 1422 2245 1412 c 1,81,-1
 2308 1328 l 2,82,83
 2321 1310 2321 1310 2321 1286 c 0,84,85
 2321 1275 2321 1275 2318 1262 c 0,86,87
 2313 1240 2313 1240 2300 1215 c 1,88,89
 2259 1144 2259 1144 2190 1048 c 2,90,-1
 1465 32 l 1,91,92
 1454 14 1454 14 1444 6 c 0,93,94
 1437 0 1437 0 1427 0 c 2,95,-1
 1277 0 l 2,96,97
 1266 0 1266 0 1263 8 c 1,98,99
 1260 11 1260 11 1257.5 31 c 128,-1,100
 1255 51 1255 51 1254 60 c 2,101,-1
 1193 535 l 1,102,-1
 833 32 l 1,103,104
 822 14 822 14 812 6 c 0,105,106
 805 0 805 0 795 0 c 2,107,-1
 645 0 l 2,108,109
 634 0 634 0 631 8 c 1,110,111
 628 11 628 11 625.5 31 c 128,-1,112
 623 51 623 51 622 60 c 2,113,-1
 462 1258 l 2,114,115
 457 1293 457 1293 419 1325 c 1,116,117
 398 1340 398 1340 378 1349.5 c 128,-1,118
 358 1359 358 1359 346 1369 c 0,119,120
 339 1374 339 1374 336 1383 c 1,121,122
 336 1388 336 1388 337 1391 c 0,123,124
 338 1395 338 1395 340 1398 c 0,125,126
 344 1404 344 1404 353 1404 c 2,127,-1
 692 1404 l 2,128,129
 701 1404 701 1404 709 1398 c 1,130,131
 716 1390 716 1390 717 1383 c 0,132,133
 718 1382 718 1382 718 1380 c 0,134,135
 718 1379 718 1379 717 1378 c 0,136,137
 715 1368 715 1368 702 1358 c 0,138,139
 689 1349 689 1349 674.5 1338.5 c 128,-1,140
 660 1328 660 1328 650 1313 c 0,141,142
 644 1303 644 1303 641 1292 c 0,143,144
 640 1286 640 1286 640 1280 c 0,145,146
 640 1272 640 1272 642 1263 c 2,0,-1
EndSplineSet
Validated: 1
EndChar

StartChar: X
Encoding: 88 88 59
Width: 1366
GlyphClass: 2
Flags: W
LayerCount: 2
Fore
SplineSet
350 78 m 1,0,-1
 350 39 l 1,1,2
 347 27 347 27 334 13.5 c 128,-1,3
 321 0 321 0 307 0 c 2,4,-1
 49 0 l 2,5,6
 37 0 37 0 37 6 c 1,7,-1
 39 11 l 1,8,9
 42 27 42 27 77 41 c 1,10,-1
 134 62 l 1,11,12
 217 94 217 94 267 146 c 2,13,-1
 788 698 l 1,14,-1
 554 1258 l 2,15,16
 529 1316 529 1316 446 1350 c 1,17,18
 423 1358 423 1358 410 1366 c 0,19,20
 393 1378 393 1378 393 1390 c 2,21,-1
 393 1394 l 1,22,-1
 394 1398 l 2,23,24
 396 1404 396 1404 405 1404 c 2,25,-1
 744 1404 l 2,26,27
 761 1404 761 1404 769 1391 c 0,28,29
 776 1380 776 1380 776 1374 c 2,30,-1
 776 1372 l 1,31,32
 774 1366 774 1366 765 1357.5 c 128,-1,33
 756 1349 756 1349 744 1338.5 c 128,-1,34
 732 1328 732 1328 727 1313 c 1,35,-1
 726 1308 l 2,36,37
 724 1301 724 1301 724 1294 c 0,38,39
 724 1278 724 1278 732 1263 c 1,40,-1
 913 831 l 1,41,-1
 1266 1204 l 2,42,43
 1357 1300 1357 1300 1418 1355 c 128,-1,44
 1479 1410 1479 1410 1521 1410 c 0,45,46
 1531 1410 1531 1410 1540 1407 c 2,47,-1
 1632 1376 l 1,48,49
 1645 1370 1645 1370 1645 1361 c 2,50,-1
 1645 1359 l 1,51,52
 1642 1348 1642 1348 1639 1341 c 2,53,-1
 1557 1171 l 1,54,-1
 1496 1186 l 2,55,56
 1445 1198 1445 1198 1412 1200 c 1,57,-1
 1409 1200 l 2,58,59
 1377 1200 1377 1200 1334 1153 c 2,60,-1
 950 742 l 1,61,-1
 1200 146 l 1,62,63
 1220 95 1220 95 1308 54 c 0,64,65
 1330 44 1330 44 1342 36 c 0,66,67
 1363 22 1363 22 1363 13 c 2,68,-1
 1363 11 l 1,69,70
 1360 0 1360 0 1349 0 c 2,71,-1
 1010 0 l 2,72,73
 1001 0 1001 0 991 6 c 0,74,75
 977 15 977 15 977 24 c 0,76,77
 977 26 977 26 978 27 c 0,78,79
 980 38 980 38 1001 58 c 128,-1,80
 1022 78 1022 78 1027 91 c 1,81,-1
 1029 98 l 2,82,83
 1030 105 1030 105 1030 113 c 0,84,85
 1030 126 1030 126 1026 141 c 1,86,-1
 826 609 l 1,87,-1
 395 147 l 2,88,89
 356 106 356 106 350 78 c 1,0,-1
EndSplineSet
Validated: 1
EndChar

StartChar: Y
Encoding: 89 89 60
Width: 1366
GlyphClass: 2
Flags: W
LayerCount: 2
Fore
SplineSet
745 677 m 2,0,-1
 530 1258 l 1,1,2
 515 1292 515 1292 469 1325 c 1,3,4
 444 1340 444 1340 421 1349.5 c 128,-1,5
 398 1359 398 1359 384 1369 c 0,6,7
 374 1375 374 1375 370 1383 c 0,8,9
 369 1387 369 1387 369 1391 c 2,10,-1
 369 1394 l 1,11,-1
 370 1398 l 2,12,13
 372 1404 372 1404 381 1404 c 2,14,-1
 720 1404 l 2,15,16
 730 1404 730 1404 738 1398 c 0,17,18
 747 1391 747 1391 751 1383 c 0,19,20
 752 1380 752 1380 752 1376 c 2,21,-1
 752 1373 l 1,22,23
 750 1366 750 1366 742 1358 c 0,24,25
 732 1349 732 1349 720 1338.5 c 128,-1,26
 708 1328 708 1328 703 1313 c 1,27,-1
 702 1308 l 2,28,29
 700 1301 700 1301 700 1294 c 0,30,31
 700 1279 700 1279 708 1263 c 1,32,-1
 921 729 l 1,33,-1
 1271 1124 l 2,34,35
 1311 1168 1311 1168 1323 1200 c 0,36,37
 1325 1205 1325 1205 1326 1210 c 0,38,39
 1328 1221 1328 1221 1328 1233 c 0,40,41
 1328 1257 1328 1257 1320 1288 c 2,42,-1
 1302 1356 l 1,43,-1
 1459 1418 l 2,44,45
 1467 1421 1467 1421 1473 1421 c 0,46,47
 1486 1421 1486 1421 1493 1405 c 1,48,-1
 1530 1304 l 2,49,50
 1534 1293 1534 1293 1534 1282 c 0,51,52
 1534 1274 1534 1274 1532 1266 c 0,53,54
 1524 1232 1524 1232 1482 1197 c 0,55,56
 1416 1141 1416 1141 1336 1054 c 2,57,-1
 981 666 l 2,58,59
 957 639 957 639 940 590 c 128,-1,60
 923 541 923 541 913 497 c 2,61,-1
 832 146 l 2,62,63
 828 130 828 130 828 117 c 0,64,65
 828 77 828 77 863 64 c 0,66,67
 904 48 904 48 904 27 c 0,68,69
 904 24 904 24 903 21 c 0,70,71
 898 0 898 0 877 0 c 2,72,-1
 538 0 l 2,73,74
 521 0 521 0 521 14 c 0,75,76
 521 17 521 17 522 21 c 0,77,78
 528 46 528 46 582 63.5 c 128,-1,79
 636 81 636 81 651 146 c 2,80,-1
 749 573 l 2,81,82
 755 598 755 598 755 621 c 0,83,84
 755 651 755 651 745 677 c 2,0,-1
EndSplineSet
Validated: 1
EndChar

StartChar: Z
Encoding: 90 90 61
Width: 1366
GlyphClass: 2
Flags: W
LayerCount: 2
Fore
SplineSet
62 61 m 2,0,-1
 1323 1312 l 1,1,-1
 715 1311 l 2,2,3
 655 1311 655 1311 609 1273 c 128,-1,4
 563 1235 563 1235 497 1166 c 0,5,6
 460 1126 460 1126 450 1126 c 0,7,8
 433 1126 433 1126 433 1140 c 0,9,10
 433 1143 433 1143 434 1147 c 2,11,-1
 477 1332 l 2,12,13
 489 1386 489 1386 510.5 1397.5 c 128,-1,14
 532 1409 532 1409 608 1409 c 2,15,-1
 1532 1409 l 2,16,17
 1614 1409 1614 1409 1628 1392 c 0,18,19
 1632 1387 1632 1387 1632 1381 c 0,20,21
 1632 1378 1632 1378 1631 1374 c 0,22,23
 1627 1357 1627 1357 1607 1332 c 1,24,-1
 340 98 l 1,25,-1
 1121 99 l 2,26,27
 1181 99 1181 99 1226.5 136.5 c 128,-1,28
 1272 174 1272 174 1339 244 c 0,29,30
 1376 283 1376 283 1385 283 c 0,31,32
 1402 283 1402 283 1402 269 c 0,33,34
 1402 266 1402 266 1401 262 c 2,35,-1
 1359 77 l 2,36,37
 1345 19 1345 19 1327.5 9.5 c 128,-1,38
 1310 0 1310 0 1228 0 c 2,39,-1
 157 0 l 2,40,41
 73 0 73 0 46 9 c 0,42,43
 35 12 35 12 35 21 c 0,44,45
 35 23 35 23 36 25 c 0,46,47
 39 38 39 38 62 61 c 2,0,-1
EndSplineSet
Validated: 1
EndChar

StartChar: lsqb
Encoding: 91 91 62
Width: 682
GlyphClass: 2
Flags: W
LayerCount: 2
Fore
SplineSet
398 -367 m 2,0,1
 411 -367 411 -367 411 -382 c 0,2,3
 411 -387 411 -387 409 -394 c 0,4,5
 403 -420 403 -420 391 -420 c 2,6,-1
 144 -420 l 2,7,8
 127 -420 127 -420 127 -407 c 0,9,10
 127 -404 127 -404 128 -400 c 2,11,-1
 552 1436 l 2,12,13
 558 1466 558 1466 579 1466 c 2,14,-1
 826 1466 l 2,15,16
 834 1466 834 1466 834 1454 c 0,17,18
 834 1447 834 1447 832 1438 c 0,19,20
 825 1409 825 1409 808 1409 c 2,21,-1
 663 1409 l 1,22,-1
 253 -367 l 1,23,-1
 398 -367 l 2,0,1
EndSplineSet
Validated: 1
EndChar

StartChar: bsol
Encoding: 92 92 63
Width: 1024
GlyphClass: 2
Flags: W
LayerCount: 2
Fore
SplineSet
973 -70 m 1,0,-1
 832 -70 l 1,1,-1
 345 1474 l 1,2,-1
 486 1474 l 1,3,-1
 973 -70 l 1,0,-1
EndSplineSet
Validated: 1
EndChar

StartChar: rsqb
Encoding: 93 93 64
Width: 682
GlyphClass: 2
Flags: W
LayerCount: 2
Fore
SplineSet
152 -367 m 2,0,-1
 298 -367 l 1,1,-1
 708 1409 l 1,2,-1
 562 1409 l 2,3,4
 550 1409 550 1409 550 1423 c 0,5,6
 550 1430 550 1430 552 1438 c 0,7,8
 558 1466 558 1466 571 1466 c 2,9,-1
 818 1466 l 2,10,11
 834 1466 834 1466 834 1448 c 0,12,13
 834 1443 834 1443 833 1436 c 0,14,15
 793 1266 793 1266 736 1021.5 c 128,-1,16
 679 777 679 777 619 517 c 2,17,-1
 503 13 l 2,18,19
 447 -231 447 -231 409 -400 c 0,20,21
 404 -420 404 -420 383 -420 c 2,22,-1
 136 -420 l 2,23,24
 127 -420 127 -420 127 -408 c 0,25,26
 127 -402 127 -402 129 -394 c 0,27,28
 135 -367 135 -367 152 -367 c 2,0,-1
EndSplineSet
Validated: 1
EndChar

StartChar: circ
Encoding: 94 94 65
Width: 1024
GlyphClass: 2
Flags: W
LayerCount: 2
Fore
SplineSet
809 1430 m 1,0,-1
 916 1430 l 1,1,-1
 1110 912 l 1,2,-1
 1054 912 l 1,3,-1
 835 1312 l 1,4,-1
 431 912 l 1,5,-1
 377 912 l 1,6,-1
 809 1430 l 1,0,-1
EndSplineSet
Validated: 1
EndChar

StartChar: lowbar
Encoding: 95 95 66
Width: 1024
GlyphClass: 2
Flags: W
LayerCount: 2
Fore
SplineSet
-50 -218 m 1,0,-1
 971 -218 l 1,1,-1
 943 -336 l 1,2,-1
 -78 -336 l 1,3,-1
 -50 -218 l 1,0,-1
EndSplineSet
Validated: 1
EndChar

StartChar: grave
Encoding: 96 96 67
Width: 1024
GlyphClass: 2
Flags: W
LayerCount: 2
Fore
SplineSet
847 1105 m 2,0,-1
 589 1293 l 2,1,2
 571 1306 571 1306 555 1327 c 1,3,4
 543 1341 543 1341 543 1360 c 0,5,6
 543 1367 543 1367 545 1375 c 0,7,8
 557 1423 557 1423 599 1440 c 0,9,10
 618 1447 618 1447 635 1447 c 0,11,12
 656 1447 656 1447 674 1435 c 0,13,14
 695 1420 695 1420 743.5 1353 c 128,-1,15
 792 1286 792 1286 811 1261 c 2,16,-1
 902 1137 l 2,17,18
 926 1104 926 1104 926 1090 c 2,19,-1
 926 1087 l 1,20,21
 924 1080 924 1080 915 1079 c 0,22,23
 912 1078 912 1078 909 1078 c 0,24,25
 884 1078 884 1078 847 1105 c 2,0,-1
EndSplineSet
Validated: 1
EndChar

StartChar: a
Encoding: 97 97 68
Width: 1155
GlyphClass: 2
Flags: W
LayerCount: 2
Fore
SplineSet
817 87 m 1,0,-1
 519 -14 l 2,1,2
 484 -25 484 -25 463 -25 c 2,3,-1
 422 -25 l 1,4,5
 282 -18 282 -18 204 91 c 0,6,7
 144 175 144 175 144 289 c 0,8,9
 144 323 144 323 149 359 c 0,10,11
 155 401 155 401 164 440 c 0,12,13
 176 492 176 492 194 541 c 0,14,15
 226 626 226 626 299 711 c 1,16,17
 335 755 335 755 409 803 c 1,18,19
 435 818 435 818 465 830 c 1,20,21
 552 860 552 860 639 890 c 128,-1,22
 726 920 726 920 814 950 c 0,23,24
 833 956 833 956 848 956 c 2,25,-1
 853 956 l 1,26,27
 916 953 916 953 1000 924 c 0,28,29
 1008 921 1008 921 1009 920 c 0,30,31
 1029 911 1029 911 1059 900 c 0,32,33
 1071 896 1071 896 1082 896 c 0,34,35
 1098 896 1098 896 1112 905 c 0,36,37
 1137 923 1137 923 1149 935 c 0,38,39
 1155 942 1155 942 1163 942 c 0,40,41
 1168 942 1168 942 1173 940 c 0,42,43
 1190 933 1190 933 1190 923 c 2,44,-1
 1190 920 l 1,45,-1
 1012 146 l 2,46,47
 1008 130 1008 130 1008 117 c 0,48,49
 1008 77 1008 77 1043 64 c 0,50,51
 1084 48 1084 48 1084 27 c 0,52,53
 1084 24 1084 24 1083 21 c 0,54,55
 1078 0 1078 0 1057 0 c 2,56,-1
 814 0 l 2,57,58
 800 0 800 0 800 9 c 2,59,-1
 800 13 l 1,60,-1
 817 87 l 1,0,-1
975 769 m 1,61,62
 942 807 942 807 882.5 839.5 c 128,-1,63
 823 872 823 872 772 874 c 1,64,-1
 768 874 l 2,65,66
 748 874 748 874 726 866 c 0,67,68
 687 853 687 853 648.5 839.5 c 128,-1,69
 610 826 610 826 571 813 c 0,70,71
 543 803 543 803 525 787 c 0,72,73
 447 721 447 721 405 627 c 1,74,75
 371 556 371 556 355 486 c 0,76,77
 350 464 350 464 347 441 c 0,78,79
 340 394 340 394 340 354 c 0,80,81
 340 268 340 268 371 207 c 1,82,83
 416 114 416 114 511 86 c 0,84,85
 546 75 546 75 585 75 c 0,86,87
 597 75 597 75 611 76 c 0,88,89
 633 78 633 78 666 89 c 0,90,91
 690 97 690 97 743.5 115.5 c 128,-1,92
 797 134 797 134 831 146 c 1,93,-1
 975 769 l 1,61,62
EndSplineSet
Validated: 1
EndChar

StartChar: b
Encoding: 98 98 69
Width: 1139
GlyphClass: 2
Flags: W
LayerCount: 2
Fore
SplineSet
380 161 m 1,0,1
 411 122 411 122 470 89.5 c 128,-1,2
 529 57 529 57 583 56 c 1,3,-1
 589 56 l 2,4,5
 605 56 605 56 628 64 c 0,6,7
 667 77 667 77 706 90 c 128,-1,8
 745 103 745 103 784 117 c 0,9,10
 808 125 808 125 830 143 c 0,11,12
 906 208 906 208 950 302 c 1,13,14
 983 375 983 375 999 448 c 0,15,16
 1004 469 1004 469 1008 489 c 0,17,18
 1015 535 1015 535 1015 576 c 0,19,20
 1015 661 1015 661 984 723 c 0,21,22
 938 814 938 814 844 844 c 1,23,24
 805 855 805 855 765 855 c 0,25,26
 754 855 754 855 743 854 c 0,27,28
 719 851 719 851 688 841 c 0,29,30
 663 832 663 832 610 814 c 128,-1,31
 557 796 557 796 524 785 c 1,32,-1
 380 161 l 1,0,1
345 10 m 0,33,34
 324 19 324 19 295 30 c 0,35,36
 282 34 282 34 271 34 c 0,37,38
 256 34 256 34 243 25 c 0,39,40
 216 6 216 6 206 -4 c 0,41,42
 199 -11 199 -11 191 -11 c 0,43,44
 186 -11 186 -11 182 -9 c 0,45,46
 165 -2 165 -2 165 8 c 2,47,-1
 165 11 l 1,48,-1
 452 1257 l 2,49,50
 456 1273 456 1273 456 1286 c 0,51,52
 456 1325 456 1325 421 1339 c 0,53,54
 380 1355 380 1355 380 1377 c 0,55,56
 380 1380 380 1380 381 1383 c 0,57,58
 386 1404 386 1404 407 1404 c 0,59,60
 474 1407 474 1407 542.5 1424 c 128,-1,61
 611 1441 611 1441 681 1463 c 1,62,-1
 538 843 l 1,63,-1
 836 945 l 2,64,65
 867 955 867 955 891 957 c 0,66,67
 900 957 900 957 910.5 956.5 c 128,-1,68
 921 956 921 956 933 956 c 0,69,70
 1073 949 1073 949 1150 840 c 1,71,72
 1210 753 1210 753 1210 637 c 0,73,74
 1210 605 1210 605 1205 571 c 0,75,76
 1199 529 1199 529 1190 489 c 0,77,78
 1178 437 1178 437 1160 388 c 0,79,80
 1128 303 1128 303 1056 219 c 0,81,82
 1016 172 1016 172 945 127 c 0,83,84
 918 110 918 110 889 100 c 0,85,86
 801 70 801 70 714 40 c 128,-1,87
 627 10 627 10 541 -19 c 1,88,89
 520 -25 520 -25 505 -25 c 2,90,-1
 501 -25 l 1,91,92
 439 -22 439 -22 353 6 c 0,93,94
 348 8 348 8 345 10 c 0,33,34
EndSplineSet
Validated: 1
EndChar

StartChar: c
Encoding: 99 99 70
Width: 925
GlyphClass: 2
Flags: W
LayerCount: 2
Fore
SplineSet
776 956 m 1,0,-1
 797 956 l 2,1,2
 960 956 960 956 1076 868 c 1,3,-1
 1020 699 l 2,4,5
 1015 686 1015 686 1004 686 c 2,6,-1
 1001 686 l 1,7,8
 992 687 992 687 988 706 c 0,9,10
 968 793 968 793 912 832 c 0,11,12
 857 870 857 870 765 870 c 2,13,-1
 741 870 l 1,14,15
 630 864 630 864 557 807 c 0,16,17
 492 755 492 755 450 682 c 256,18,19
 408 609 408 609 387 519 c 0,20,21
 380 489 380 489 376 458 c 0,22,23
 368 408 368 408 368 363 c 0,24,25
 368 277 368 277 400 214 c 0,26,27
 465 89 465 89 576 72 c 0,28,29
 594 69 594 69 614 69 c 0,30,31
 704 69 704 69 827 129 c 0,32,33
 891 160 891 160 911 160 c 0,34,35
 916 160 916 160 918 158 c 0,36,37
 919 157 919 157 919 154 c 2,38,-1
 919 150 l 1,39,40
 916 138 916 138 898 112 c 0,41,42
 876 82 876 82 853 65 c 0,43,44
 784 14 784 14 696.5 -5.5 c 128,-1,45
 609 -25 609 -25 534 -25 c 0,46,47
 348 -24 348 -24 246 79 c 1,48,49
 164 160 164 160 164 296 c 0,50,51
 164 332 164 332 170 372 c 0,52,53
 176 416 176 416 186 458 c 0,54,55
 198 512 198 512 217 563 c 0,56,57
 250 651 250 651 326 739 c 0,58,59
 405 832 405 832 522 891 c 128,-1,60
 639 950 639 950 776 956 c 1,0,-1
EndSplineSet
Validated: 1
EndChar

StartChar: d
Encoding: 100 100 71
Width: 1231
GlyphClass: 2
Flags: W
LayerCount: 2
Fore
SplineSet
837 87 m 1,0,-1
 539 -14 l 2,1,2
 504 -25 504 -25 483 -25 c 2,3,-1
 442 -25 l 1,4,5
 302 -18 302 -18 224 91 c 0,6,7
 164 175 164 175 164 289 c 0,8,9
 164 323 164 323 169 359 c 0,10,11
 175 401 175 401 184 440 c 0,12,13
 196 492 196 492 214 541 c 0,14,15
 246 626 246 626 319 711 c 1,16,17
 355 755 355 755 429 803 c 1,18,19
 455 818 455 818 485 830 c 1,20,21
 572 860 572 860 659 890 c 128,-1,22
 746 920 746 920 834 950 c 0,23,24
 853 956 853 956 868 956 c 2,25,-1
 873 956 l 1,26,27
 936 953 936 953 1020 924 c 0,28,29
 1028 921 1028 921 1029 920 c 1,30,-1
 1107 1257 l 2,31,32
 1111 1273 1111 1273 1111 1286 c 0,33,34
 1111 1325 1111 1325 1076 1339 c 0,35,36
 1035 1355 1035 1355 1035 1377 c 0,37,38
 1035 1380 1035 1380 1036 1383 c 0,39,40
 1041 1404 1041 1404 1062 1404 c 0,41,42
 1129 1407 1129 1407 1197.5 1424 c 128,-1,43
 1266 1441 1266 1441 1336 1463 c 1,44,-1
 1032 146 l 2,45,46
 1028 130 1028 130 1028 117 c 0,47,48
 1028 77 1028 77 1063 64 c 0,49,50
 1104 48 1104 48 1104 27 c 0,51,52
 1104 24 1104 24 1103 21 c 0,53,54
 1098 0 1098 0 1077 0 c 2,55,-1
 834 0 l 2,56,57
 820 0 820 0 820 9 c 2,58,-1
 820 13 l 1,59,-1
 837 87 l 1,0,-1
995 770 m 1,60,61
 959 811 959 811 900.5 841.5 c 128,-1,62
 842 872 842 872 792 874 c 1,63,-1
 788 874 l 2,64,65
 768 874 768 874 746 866 c 0,66,67
 707 853 707 853 668.5 839.5 c 128,-1,68
 630 826 630 826 591 813 c 0,69,70
 563 803 563 803 545 787 c 0,71,72
 467 721 467 721 425 627 c 1,73,74
 391 556 391 556 375 486 c 0,75,76
 370 464 370 464 367 441 c 0,77,78
 360 394 360 394 360 354 c 0,79,80
 360 268 360 268 391 207 c 1,81,82
 436 114 436 114 531 86 c 0,83,84
 566 75 566 75 605 75 c 0,85,86
 617 75 617 75 631 76 c 0,87,88
 653 78 653 78 686 89 c 0,89,90
 710 97 710 97 763.5 115.5 c 128,-1,91
 817 134 817 134 851 146 c 1,92,-1
 995 770 l 1,60,61
EndSplineSet
Validated: 1
EndChar

StartChar: e
Encoding: 101 101 72
Width: 1000
GlyphClass: 2
Flags: W
LayerCount: 2
Fore
SplineSet
511 -25 m 0,0,1
 241 -25 241 -25 171 150 c 0,2,3
 139 228 139 228 139 316 c 0,4,5
 139 377 139 377 154 443 c 0,6,7
 166 495 166 495 188 551 c 0,8,9
 263 743 263 743 402.5 849.5 c 128,-1,10
 542 956 542 956 738 956 c 0,11,12
 1076 956 1076 956 1076 687 c 0,13,14
 1076 626 1076 626 1059 551 c 0,15,16
 1049 511 1049 511 1043 494.5 c 128,-1,17
 1037 478 1037 478 998 478 c 2,18,-1
 365 478 l 1,19,20
 349 407 349 407 349 346 c 0,21,22
 349 253 349 253 386 184 c 0,23,24
 448 69 448 69 610 69 c 0,25,26
 650 69 650 69 701 79.5 c 128,-1,27
 752 90 752 90 829 126 c 0,28,29
 893 157 893 157 913 157 c 0,30,31
 918 157 918 157 921 155 c 1,32,33
 922 153 922 153 922 150 c 2,34,-1
 922 146 l 1,35,36
 919 133 919 133 900 109 c 1,37,38
 883 85 883 85 873.5 77 c 128,-1,39
 864 69 864 69 857 63 c 0,40,41
 777 6 777 6 685.5 -9.5 c 128,-1,42
 594 -25 594 -25 511 -25 c 0,0,1
382 551 m 1,43,-1
 905 551 l 1,44,45
 923 629 923 629 923 687 c 0,46,47
 923 755 923 755 898 796 c 0,48,49
 852 870 852 870 718 870 c 0,50,51
 583 870 583 870 498.5 779 c 128,-1,52
 414 688 414 688 382 551 c 1,43,-1
EndSplineSet
Validated: 1
EndChar

StartChar: f
Encoding: 102 102 73
Width: 683
GlyphClass: 2
Flags: W
LayerCount: 2
Fore
SplineSet
625 1027 m 2,0,-1
 607 948 l 1,1,-1
 846 953 l 1,2,-1
 847 953 l 2,3,4
 858 953 858 953 858 940 c 0,5,6
 858 934 858 934 856 927 c 0,7,8
 853 913 853 913 844 893 c 0,9,10
 823 846 823 846 788 846 c 2,11,-1
 584 847 l 1,12,-1
 422 146 l 2,13,14
 418 130 418 130 418 117 c 0,15,16
 418 77 418 77 453 64 c 0,17,18
 494 48 494 48 494 27 c 0,19,20
 494 24 494 24 493 21 c 0,21,22
 488 0 488 0 467 0 c 2,23,-1
 128 0 l 2,24,25
 111 0 111 0 111 14 c 0,26,27
 111 17 111 17 112 21 c 0,28,29
 118 46 118 46 172 63.5 c 128,-1,30
 226 81 226 81 241 146 c 2,31,-1
 402 845 l 1,32,33
 364 844 364 844 287 840 c 1,34,-1
 282 840 l 2,35,36
 266 840 266 840 266 854 c 0,37,38
 266 857 266 857 267 860 c 1,39,-1
 267 862 l 1,40,41
 271 878 271 878 292 887 c 0,42,43
 314 896 314 896 385 930 c 0,44,45
 402 938 402 938 417 944 c 0,46,47
 420 945 420 945 425 945 c 1,48,-1
 444 1027 l 2,49,50
 473 1154 473 1154 515 1234 c 0,51,52
 542 1285 542 1285 578 1319 c 1,53,54
 594 1336 594 1336 622 1345 c 2,55,-1
 898 1440 l 2,56,57
 908 1443 908 1443 934 1445 c 1,58,-1
 938 1445 l 2,59,60
 960 1445 960 1445 976 1433 c 1,61,62
 998 1414 998 1414 1003 1400 c 0,63,64
 1004 1395 1004 1395 1004 1388 c 0,65,66
 1004 1379 1004 1379 1002 1368 c 0,67,68
 1000 1360 1000 1360 997 1351 c 0,69,70
 984 1304 984 1304 972 1301 c 1,71,-1
 969 1301 l 2,72,73
 958 1301 958 1301 941 1316 c 1,74,75
 900 1347 900 1347 853 1347 c 0,76,77
 825 1347 825 1347 795 1336 c 0,78,79
 703 1300 703 1300 670 1199 c 0,80,81
 657 1161 657 1161 646.5 1117 c 128,-1,82
 636 1073 636 1073 625 1027 c 2,0,-1
EndSplineSet
Validated: 1
EndChar

StartChar: g
Encoding: 103 103 74
Width: 1103
GlyphClass: 2
Flags: W
LayerCount: 2
Fore
SplineSet
843 199 m 1,0,-1
 975 769 l 1,1,2
 942 807 942 807 882.5 839.5 c 128,-1,3
 823 872 823 872 772 874 c 1,4,-1
 768 874 l 2,5,6
 748 874 748 874 726 866 c 0,7,8
 687 853 687 853 648.5 839.5 c 128,-1,9
 610 826 610 826 571 813 c 0,10,11
 543 803 543 803 525 787 c 0,12,13
 447 721 447 721 405 627 c 1,14,15
 371 556 371 556 355 486 c 0,16,17
 350 464 350 464 347 441 c 0,18,19
 340 394 340 394 340 354 c 0,20,21
 340 268 340 268 371 207 c 1,22,23
 416 114 416 114 511 86 c 0,24,25
 546 75 546 75 585 75 c 0,26,27
 597 75 597 75 611 76 c 0,28,29
 633 78 633 78 666 89 c 0,30,31
 690 97 690 97 743 115 c 128,-1,32
 796 133 796 133 829 145 c 1,33,-1
 842 199 l 1,34,-1
 843 199 l 1,0,-1
816 87 m 1,35,-1
 519 -14 l 2,36,37
 484 -25 484 -25 463 -25 c 2,38,-1
 422 -25 l 1,39,40
 282 -18 282 -18 204 91 c 0,41,42
 144 175 144 175 144 289 c 0,43,44
 144 323 144 323 149 359 c 0,45,46
 155 401 155 401 164 440 c 0,47,48
 176 492 176 492 194 541 c 0,49,50
 226 626 226 626 299 711 c 1,51,52
 335 755 335 755 409 803 c 1,53,54
 435 818 435 818 465 830 c 1,55,56
 552 860 552 860 639 890 c 128,-1,57
 726 920 726 920 814 950 c 0,58,59
 833 956 833 956 848 956 c 2,60,-1
 853 956 l 1,61,62
 916 953 916 953 1000 924 c 0,63,64
 1008 921 1008 921 1009 920 c 0,65,66
 1029 911 1029 911 1059 900 c 0,67,68
 1071 896 1071 896 1082 896 c 0,69,70
 1098 896 1098 896 1112 905 c 0,71,72
 1137 923 1137 923 1149 935 c 0,73,74
 1155 942 1155 942 1163 942 c 0,75,76
 1168 942 1168 942 1173 940 c 0,77,78
 1190 933 1190 933 1190 923 c 2,79,-1
 1190 920 l 1,80,-1
 936 -180 l 2,81,82
 898 -345 898 -345 841.5 -386 c 128,-1,83
 785 -427 785 -427 691 -459 c 2,84,-1
 392 -562 l 2,85,86
 358 -573 358 -573 337 -573 c 0,87,88
 311 -573 311 -573 296 -572 c 0,89,90
 156 -567 156 -567 78 -456 c 0,91,92
 37 -397 37 -397 24 -315 c 1,93,94
 119 -281 119 -281 218 -248 c 1,95,96
 224 -299 224 -299 245 -340 c 0,97,98
 291 -432 291 -432 385 -461 c 0,99,100
 420 -471 420 -471 457 -471 c 0,101,102
 471 -471 471 -471 484 -470 c 0,103,104
 507 -468 507 -468 539 -458 c 0,105,106
 552 -453 552 -453 573 -446 c 128,-1,107
 594 -439 594 -439 617 -431 c 1,108,109
 671 -407 671 -407 704 -334 c 128,-1,110
 737 -261 737 -261 742 -237 c 2,111,-1
 816 87 l 1,35,-1
EndSplineSet
Validated: 1
EndChar

StartChar: h
Encoding: 104 104 75
Width: 1207
GlyphClass: 2
Flags: W
LayerCount: 2
Fore
SplineSet
396 146 m 2,0,1
 392 130 392 130 392 117 c 0,2,3
 392 77 392 77 427 64 c 0,4,5
 468 48 468 48 468 27 c 0,6,7
 468 24 468 24 467 21 c 0,8,9
 462 0 462 0 442 0 c 2,10,-1
 103 0 l 2,11,12
 86 0 86 0 86 14 c 0,13,14
 86 17 86 17 87 21 c 0,15,16
 93 46 93 46 147 63.5 c 128,-1,17
 201 81 201 81 216 146 c 2,18,-1
 472 1257 l 2,19,20
 476 1273 476 1273 476 1286 c 0,21,22
 476 1325 476 1325 441 1339 c 0,23,24
 400 1355 400 1355 400 1377 c 0,25,26
 400 1380 400 1380 401 1383 c 0,27,28
 406 1404 406 1404 427 1404 c 0,29,30
 494 1407 494 1407 562.5 1424 c 128,-1,31
 631 1441 631 1441 700 1463 c 1,32,-1
 559 853 l 1,33,34
 619 874 619 874 664.5 890 c 128,-1,35
 710 906 710 906 751 919 c 0,36,37
 851 951 851 951 952 961 c 0,38,39
 964 962 964 962 977 962 c 0,40,41
 1061 962 1061 962 1124 905 c 1,42,43
 1182 851 1182 851 1182 723 c 0,44,45
 1182 633 1182 633 1153 506 c 2,46,-1
 1070 146 l 2,47,48
 1066 130 1066 130 1066 117 c 0,49,50
 1066 77 1066 77 1101 64 c 0,51,52
 1142 48 1142 48 1142 27 c 0,53,54
 1142 24 1142 24 1141 21 c 0,55,56
 1136 0 1136 0 1116 0 c 2,57,-1
 873 0 l 2,58,59
 859 0 859 0 859 9 c 2,60,-1
 859 13 l 1,61,-1
 973 506 l 2,62,63
 994 597 994 597 994 666 c 0,64,65
 994 762 994 762 953 814 c 0,66,67
 908 871 908 871 824 871 c 0,68,69
 776 871 776 871 715 852 c 0,70,71
 691 844 691 844 654.5 831.5 c 128,-1,72
 618 819 618 819 592 810 c 256,73,74
 566 801 566 801 545 794 c 1,75,-1
 396 146 l 2,0,1
EndSplineSet
Validated: 1
EndChar

StartChar: i
Encoding: 105 105 76
Width: 593
GlyphClass: 2
Flags: W
LayerCount: 2
Fore
SplineSet
625 1400 m 0,0,1
 714 1400 714 1400 714 1327 c 0,2,3
 714 1311 714 1311 709 1290 c 0,4,5
 683 1179 683 1179 574 1179 c 0,6,7
 486 1179 486 1179 486 1251 c 0,8,9
 486 1269 486 1269 491 1290 c 0,10,11
 516 1400 516 1400 625 1400 c 0,0,1
426 146 m 2,12,13
 422 130 422 130 422 117 c 0,14,15
 422 77 422 77 457 64 c 0,16,17
 498 48 498 48 498 27 c 0,18,19
 498 24 498 24 497 21 c 0,20,21
 492 0 492 0 472 0 c 2,22,-1
 133 0 l 2,23,24
 116 0 116 0 116 14 c 0,25,26
 116 17 116 17 117 21 c 0,27,28
 123 46 123 46 177 63.5 c 128,-1,29
 231 81 231 81 246 146 c 2,30,-1
 393 786 l 2,31,32
 397 801 397 801 397 814 c 0,33,34
 397 853 397 853 362 867 c 0,35,36
 321 883 321 883 321 905 c 0,37,38
 321 908 321 908 322 911 c 0,39,40
 327 932 327 932 348 932 c 0,41,42
 415 935 415 935 483.5 952.5 c 128,-1,43
 552 970 552 970 621 992 c 1,44,-1
 426 146 l 2,12,13
EndSplineSet
Validated: 1
EndChar

StartChar: j
Encoding: 106 106 77
Width: 487
GlyphClass: 2
Flags: W
LayerCount: 2
Fore
SplineSet
575 1400 m 0,0,1
 665 1400 665 1400 665 1327 c 0,2,3
 665 1310 665 1310 660 1290 c 0,4,5
 634 1179 634 1179 524 1179 c 0,6,7
 436 1179 436 1179 436 1251 c 0,8,9
 436 1269 436 1269 441 1290 c 0,10,11
 466 1400 466 1400 575 1400 c 0,0,1
346 12 m 1,12,13
 299 -185 299 -185 251 -281 c 128,-1,14
 203 -377 203 -377 122 -445 c 0,15,16
 7 -540 7 -540 -109 -567 c 1,17,-1
 -97 -517 l 1,18,19
 11 -460 11 -460 67 -357 c 1,20,21
 88 -316 88 -316 105.5 -242 c 128,-1,22
 123 -168 123 -168 163 6 c 2,23,-1
 343 786 l 2,24,25
 347 801 347 801 347 814 c 0,26,27
 347 853 347 853 312 867 c 0,28,29
 271 883 271 883 271 905 c 0,30,31
 271 908 271 908 272 911 c 0,32,33
 277 932 277 932 298 932 c 0,34,35
 365 935 365 935 433.5 952.5 c 128,-1,36
 502 970 502 970 572 992 c 1,37,-1
 346 12 l 1,12,13
EndSplineSet
Validated: 1
EndChar

StartChar: k
Encoding: 107 107 78
Width: 1163
GlyphClass: 2
Flags: W
LayerCount: 2
Fore
SplineSet
484 443 m 1,0,-1
 416 146 l 2,1,2
 412 130 412 130 412 117 c 0,3,4
 412 77 412 77 447 64 c 0,5,6
 488 48 488 48 488 27 c 0,7,8
 488 24 488 24 487 21 c 0,9,10
 482 0 482 0 462 0 c 2,11,-1
 123 0 l 2,12,13
 106 0 106 0 106 14 c 0,14,15
 106 17 106 17 107 21 c 0,16,17
 113 46 113 46 167 63.5 c 128,-1,18
 221 81 221 81 236 146 c 2,19,-1
 492 1257 l 2,20,21
 496 1273 496 1273 496 1286 c 0,22,23
 496 1325 496 1325 461 1339 c 0,24,25
 420 1355 420 1355 420 1377 c 0,26,27
 420 1380 420 1380 421 1383 c 0,28,29
 426 1404 426 1404 447 1404 c 0,30,31
 514 1407 514 1407 582.5 1424 c 128,-1,32
 651 1441 651 1441 720 1463 c 1,33,-1
 509 551 l 1,34,-1
 929 834 l 1,35,36
 1001 884 1001 884 1055 913 c 0,37,38
 1085 929 1085 929 1109 929 c 0,39,40
 1127 929 1127 929 1142 920 c 1,41,-1
 1206 874 l 1,42,43
 1214 867 1214 867 1214 859 c 2,44,-1
 1214 856 l 1,45,46
 1212 851 1212 851 1208 846 c 2,47,-1
 1137 741 l 1,48,-1
 1093 767 l 2,49,50
 1067 782 1067 782 1039 782 c 0,51,52
 1005 782 1005 782 969 760 c 0,53,54
 799 651 799 651 668 565 c 1,55,-1
 938 225 l 2,56,57
 1022 120 1022 120 1050 106 c 0,58,59
 1071 95 1071 95 1095 95 c 0,60,61
 1105 95 1105 95 1116 97 c 0,62,63
 1125 99 1125 99 1132 99 c 0,64,65
 1152 99 1152 99 1155 84 c 0,66,67
 1156 81 1156 81 1156 79 c 0,68,69
 1156 76 1156 76 1155 74 c 0,70,71
 1153 64 1153 64 1142 60 c 2,72,-1
 1071 29 l 1,73,74
 1013 6 1013 6 968 6 c 0,75,76
 939 6 939 6 916 17 c 0,77,78
 857 43 857 43 815 96 c 2,79,-1
 520 467 l 1,80,81
 510 459 510 459 484 443 c 1,0,-1
EndSplineSet
Validated: 1
EndChar

StartChar: l
Encoding: 108 108 79
Width: 597
GlyphClass: 2
Flags: W
LayerCount: 2
Fore
SplineSet
416 146 m 2,0,1
 412 130 412 130 412 117 c 0,2,3
 412 77 412 77 447 64 c 0,4,5
 488 48 488 48 488 27 c 0,6,7
 488 24 488 24 487 21 c 0,8,9
 482 0 482 0 462 0 c 2,10,-1
 123 0 l 2,11,12
 106 0 106 0 106 14 c 0,13,14
 106 17 106 17 107 21 c 0,15,16
 113 46 113 46 167 63.5 c 128,-1,17
 221 81 221 81 236 146 c 2,18,-1
 492 1257 l 2,19,20
 496 1273 496 1273 496 1286 c 0,21,22
 496 1325 496 1325 461 1339 c 0,23,24
 420 1355 420 1355 420 1377 c 0,25,26
 420 1380 420 1380 421 1383 c 0,27,28
 426 1404 426 1404 447 1404 c 0,29,30
 514 1407 514 1407 582.5 1424 c 128,-1,31
 651 1441 651 1441 720 1463 c 1,32,-1
 416 146 l 2,0,1
EndSplineSet
Validated: 1
EndChar

StartChar: m
Encoding: 109 109 80
Width: 1797
GlyphClass: 2
Flags: W
LayerCount: 2
Fore
SplineSet
578 861 m 5,0,1
 629 879 629 879 669.5 893 c 132,-1,2
 710 907 710 907 747 919 c 4,3,4
 847 951 847 951 948 961 c 4,5,6
 960 962 960 962 973 962 c 4,7,8
 1057 962 1057 962 1120 905 c 5,9,10
 1141 884 1141 884 1152 863 c 5,11,12
 1201 880 1201 880 1240.5 893.5 c 132,-1,13
 1280 907 1280 907 1316 919 c 4,14,15
 1416 951 1416 951 1516 961 c 4,16,17
 1529 962 1529 962 1542 962 c 4,18,19
 1625 962 1625 962 1688 905 c 5,20,21
 1747 850 1747 850 1747 722 c 4,22,23
 1747 632 1747 632 1718 506 c 6,24,-1
 1635 146 l 6,25,26
 1631 130 1631 130 1631 117 c 4,27,28
 1631 77 1631 77 1666 64 c 4,29,30
 1707 48 1707 48 1707 27 c 4,31,32
 1707 24 1707 24 1706 21 c 4,33,34
 1701 0 1701 0 1680 0 c 6,35,-1
 1437 0 l 6,36,37
 1424 0 1424 0 1424 9 c 6,38,-1
 1424 13 l 5,39,-1
 1538 506 l 6,40,41
 1559 597 1559 597 1559 666 c 4,42,43
 1559 762 1559 762 1518 814 c 4,44,45
 1473 871 1473 871 1389 871 c 4,46,47
 1341 871 1341 871 1280 852 c 4,48,49
 1258 845 1258 845 1227 834.5 c 132,-1,50
 1196 824 1196 824 1170 815 c 5,51,52
 1179 778 1179 778 1179 729 c 4,53,54
 1179 639 1179 639 1149 506 c 6,55,-1
 1066 146 l 6,56,57
 1062 130 1062 130 1062 117 c 4,58,59
 1062 77 1062 77 1097 64 c 4,60,61
 1138 48 1138 48 1138 27 c 4,62,63
 1138 24 1138 24 1137 21 c 4,64,65
 1132 0 1132 0 1112 0 c 6,66,-1
 773 0 l 6,67,68
 756 0 756 0 756 14 c 4,69,70
 756 17 756 17 757 21 c 4,71,72
 763 46 763 46 817 63.5 c 132,-1,73
 871 81 871 81 886 146 c 6,74,-1
 969 506 l 6,75,76
 990 597 990 597 990 666 c 4,77,78
 990 762 990 762 949 814 c 4,79,80
 904 871 904 871 820 871 c 4,81,82
 772 871 772 871 711 852 c 4,83,84
 673 840 673 840 636.5 827 c 132,-1,85
 600 814 600 814 564 802 c 5,86,-1
 413 146 l 6,87,88
 409 130 409 130 409 117 c 4,89,90
 409 77 409 77 444 64 c 4,91,92
 485 48 485 48 485 27 c 4,93,94
 485 24 485 24 484 21 c 4,95,96
 479 0 479 0 459 0 c 6,97,-1
 120 0 l 6,98,99
 103 0 103 0 103 14 c 4,100,101
 103 17 103 17 104 21 c 4,102,103
 110 46 110 46 164 63.5 c 132,-1,104
 218 81 218 81 233 146 c 6,105,-1
 380 786 l 6,106,107
 384 801 384 801 384 814 c 4,108,109
 384 853 384 853 349 867 c 4,110,111
 308 883 308 883 308 905 c 4,112,113
 308 908 308 908 309 911 c 4,114,115
 314 932 314 932 335 932 c 4,116,117
 402 935 402 935 470.5 952.5 c 132,-1,118
 539 970 539 970 608 992 c 5,119,-1
 578 861 l 5,0,1
EndSplineSet
Validated: 1
EndChar

StartChar: n
Encoding: 110 110 81
Width: 1191
GlyphClass: 2
Flags: W
LayerCount: 2
Fore
SplineSet
559 853 m 1,0,1
 619 874 619 874 664.5 890 c 128,-1,2
 710 906 710 906 751 919 c 0,3,4
 851 951 851 951 952 961 c 0,5,6
 964 962 964 962 977 962 c 0,7,8
 1061 962 1061 962 1124 905 c 1,9,10
 1182 851 1182 851 1182 723 c 0,11,12
 1182 633 1182 633 1153 506 c 2,13,-1
 1070 146 l 2,14,15
 1066 130 1066 130 1066 117 c 0,16,17
 1066 77 1066 77 1101 64 c 0,18,19
 1142 48 1142 48 1142 27 c 0,20,21
 1142 24 1142 24 1141 21 c 0,22,23
 1136 0 1136 0 1116 0 c 2,24,-1
 873 0 l 2,25,26
 859 0 859 0 859 9 c 2,27,-1
 859 13 l 1,28,-1
 973 506 l 2,29,30
 994 597 994 597 994 666 c 0,31,32
 994 762 994 762 953 814 c 0,33,34
 908 871 908 871 824 871 c 0,35,36
 776 871 776 871 715 852 c 0,37,38
 691 844 691 844 654.5 831.5 c 128,-1,39
 618 819 618 819 592 810 c 256,40,41
 566 801 566 801 545 794 c 1,42,-1
 396 146 l 2,43,44
 392 130 392 130 392 117 c 0,45,46
 392 77 392 77 427 64 c 0,47,48
 468 48 468 48 468 27 c 0,49,50
 468 24 468 24 467 21 c 0,51,52
 462 0 462 0 442 0 c 2,53,-1
 103 0 l 2,54,55
 86 0 86 0 86 14 c 0,56,57
 86 17 86 17 87 21 c 0,58,59
 93 46 93 46 147 63.5 c 128,-1,60
 201 81 201 81 216 146 c 2,61,-1
 363 786 l 2,62,63
 367 801 367 801 367 814 c 0,64,65
 367 853 367 853 332 867 c 0,66,67
 291 883 291 883 291 905 c 0,68,69
 291 908 291 908 292 911 c 0,70,71
 297 932 297 932 318 932 c 0,72,73
 385 935 385 935 453.5 952.5 c 128,-1,74
 522 970 522 970 591 992 c 1,75,-1
 559 853 l 1,0,1
EndSplineSet
Validated: 1
EndChar

StartChar: o
Encoding: 111 111 82
Width: 1107
GlyphClass: 2
Flags: W
LayerCount: 2
Fore
SplineSet
798 956 m 1,0,1
 991 948 991 948 1093 806 c 0,2,3
 1165 705 1165 705 1165 577 c 0,4,5
 1165 524 1165 524 1152 465 c 1,6,-1
 1151 459 l 1,7,8
 1105 259 1105 259 932 121 c 0,9,10
 756 -19 756 -19 547 -25 c 1,11,-1
 531 -25 l 2,12,13
 339 -25 339 -25 233 117 c 0,14,15
 155 220 155 220 155 349 c 0,16,17
 155 403 155 403 169 462 c 1,18,-1
 169 465 l 1,19,20
 221 684 221 684 419 833 c 0,21,22
 442 851 442 851 482.5 864 c 128,-1,23
 523 877 523 877 604 904 c 0,24,25
 651 920 651 920 709 939 c 0,26,27
 763 956 763 956 795 956 c 2,28,-1
 798 956 l 1,0,1
761 889 m 1,29,-1
 749 889 l 2,30,31
 632 889 632 889 522 776 c 0,32,33
 405 656 405 656 365 481 c 0,34,35
 349 409 349 409 349 345 c 0,36,37
 349 253 349 253 383 178 c 0,38,39
 440 49 440 49 564 43 c 1,40,-1
 578 43 l 2,41,42
 694 43 694 43 804 156 c 0,43,44
 919 275 919 275 960 450 c 0,45,46
 976 521 976 521 976 585 c 0,47,48
 976 677 976 677 942 754 c 0,49,50
 884 882 884 882 761 889 c 1,29,-1
EndSplineSet
Validated: 1
EndChar

StartChar: p
Encoding: 112 112 83
Width: 1197
GlyphClass: 2
Flags: W
LayerCount: 2
Fore
SplineSet
588 848 m 1,0,-1
 873 945 l 2,1,2
 904 955 904 955 928 957 c 0,3,4
 937 957 937 957 947 956.5 c 128,-1,5
 957 956 957 956 969 956 c 0,6,7
 1108 950 1108 950 1187 840 c 1,8,9
 1247 753 1247 753 1247 637 c 0,10,11
 1247 605 1247 605 1242 571 c 0,12,13
 1236 530 1236 530 1227 491 c 0,14,15
 1215 437 1215 437 1197 388 c 0,16,17
 1164 303 1164 303 1093 219 c 0,18,19
 1054 174 1054 174 981 127 c 0,20,21
 956 111 956 111 926 100 c 0,22,23
 736 34 736 34 577 -19 c 0,24,25
 558 -25 558 -25 542 -25 c 2,26,-1
 538 -25 l 1,27,28
 480 -22 480 -22 393 5 c 1,29,-1
 290 -441 l 2,30,31
 286 -457 286 -457 286 -470 c 0,32,33
 286 -509 286 -509 321 -523 c 0,34,35
 362 -539 362 -539 362 -561 c 0,36,37
 362 -564 362 -564 361 -567 c 0,38,39
 356 -587 356 -587 336 -587 c 2,40,-1
 -3 -587 l 2,41,42
 -20 -587 -20 -587 -20 -574 c 0,43,44
 -20 -571 -20 -571 -19 -567 c 0,45,46
 -13 -541 -13 -541 41 -523 c 128,-1,47
 95 -505 95 -505 110 -441 c 2,48,-1
 393 786 l 2,49,50
 397 801 397 801 397 814 c 0,51,52
 397 853 397 853 362 867 c 0,53,54
 321 883 321 883 321 905 c 0,55,56
 321 908 321 908 322 911 c 0,57,58
 327 932 327 932 348 932 c 0,59,60
 415 935 415 935 483.5 952.5 c 128,-1,61
 552 970 552 970 621 992 c 1,62,-1
 588 848 l 1,0,-1
427 150 m 1,63,64
 460 114 460 114 515 85.5 c 128,-1,65
 570 57 570 57 620 56 c 1,66,-1
 626 56 l 2,67,68
 642 56 642 56 665 64 c 0,69,70
 704 77 704 77 742.5 90 c 128,-1,71
 781 103 781 103 820 117 c 0,72,73
 845 125 845 125 867 143 c 0,74,75
 942 208 942 208 986 302 c 0,76,77
 1019 373 1019 373 1036 444 c 0,78,79
 1041 467 1041 467 1044 489 c 0,80,81
 1051 535 1051 535 1051 576 c 0,82,83
 1051 661 1051 661 1020 723 c 0,84,85
 973 815 973 815 880 844 c 0,86,87
 842 855 842 855 803 855 c 0,88,89
 791 855 791 855 780 854 c 0,90,91
 756 851 756 851 725 841 c 0,92,93
 702 833 702 833 656 817.5 c 128,-1,94
 610 802 610 802 574 790 c 1,95,-1
 427 150 l 1,63,64
EndSplineSet
Validated: 1
EndChar

StartChar: q
Encoding: 113 113 84
Width: 1173
GlyphClass: 2
Flags: W
LayerCount: 2
Fore
SplineSet
833 86 m 1,0,-1
 538 -14 l 2,1,2
 505 -25 505 -25 483 -25 c 2,3,-1
 441 -25 l 1,4,5
 300 -18 300 -18 224 91 c 1,6,7
 164 175 164 175 164 289 c 0,8,9
 164 323 164 323 169 359 c 0,10,11
 175 402 175 402 184 442 c 0,12,13
 196 493 196 493 214 541 c 0,14,15
 245 626 245 626 318 711 c 0,16,17
 357 757 357 757 428 803 c 0,18,19
 454 819 454 819 485 830 c 0,20,21
 572 860 572 860 658.5 890 c 128,-1,22
 745 920 745 920 833 950 c 0,23,24
 853 956 853 956 869 956 c 2,25,-1
 873 956 l 1,26,27
 937 953 937 953 1020 924 c 0,28,29
 1022 923 1022 923 1024.5 921.5 c 128,-1,30
 1027 920 1027 920 1030 920 c 1,31,-1
 1030 918 l 1,32,33
 1051 909 1051 909 1079 900 c 0,34,35
 1090 896 1090 896 1099 896 c 0,36,37
 1115 896 1115 896 1128 905 c 0,38,39
 1153 923 1153 923 1165 935 c 0,40,41
 1171 942 1171 942 1179 942 c 0,42,43
 1184 942 1184 942 1189 940 c 0,44,45
 1206 933 1206 933 1206 923 c 2,46,-1
 1206 920 l 1,47,-1
 892 -441 l 2,48,49
 888 -457 888 -457 888 -470 c 0,50,51
 888 -509 888 -509 923 -523 c 0,52,53
 964 -539 964 -539 964 -561 c 0,54,55
 964 -564 964 -564 963 -567 c 0,56,57
 958 -587 958 -587 937 -587 c 2,58,-1
 598 -587 l 2,59,60
 581 -587 581 -587 581 -574 c 0,61,62
 581 -571 581 -571 582 -567 c 0,63,64
 588 -541 588 -541 642 -523 c 128,-1,65
 696 -505 696 -505 711 -441 c 2,66,-1
 833 86 l 1,0,-1
991 772 m 1,67,68
 958 809 958 809 899.5 840.5 c 128,-1,69
 841 872 841 872 791 874 c 1,70,-1
 787 874 l 2,71,72
 767 874 767 874 746 866 c 0,73,74
 707 853 707 853 668 839.5 c 128,-1,75
 629 826 629 826 590 813 c 0,76,77
 565 804 565 804 544 787 c 0,78,79
 466 721 466 721 424 627 c 1,80,81
 390 556 390 556 374 486 c 0,82,83
 369 464 369 464 366 441 c 0,84,85
 359 394 359 394 359 354 c 0,86,87
 359 268 359 268 390 207 c 1,88,89
 435 115 435 115 530 86 c 0,90,91
 566 75 566 75 604 75 c 0,92,93
 617 75 617 75 630 76 c 0,94,95
 653 78 653 78 686 89 c 0,96,97
 708 97 708 97 759.5 114.5 c 128,-1,98
 811 132 811 132 846 144 c 1,99,-1
 991 772 l 1,67,68
EndSplineSet
Validated: 1
EndChar

StartChar: r
Encoding: 114 114 85
Width: 831
GlyphClass: 2
Flags: W
LayerCount: 2
Fore
SplineSet
540 595 m 1,0,-1
 437 146 l 2,1,2
 433 130 433 130 433 117 c 0,3,4
 433 77 433 77 468 64 c 0,5,6
 508 48 508 48 508 27 c 0,7,8
 508 24 508 24 507 21 c 0,9,10
 502 0 502 0 482 0 c 2,11,-1
 143 0 l 2,12,13
 126 0 126 0 126 14 c 0,14,15
 126 17 126 17 127 21 c 0,16,17
 133 46 133 46 187 63.5 c 128,-1,18
 241 81 241 81 256 146 c 2,19,-1
 403 786 l 2,20,21
 407 801 407 801 407 814 c 0,22,23
 407 853 407 853 372 867 c 0,24,25
 331 883 331 883 331 905 c 0,26,27
 331 908 331 908 332 911 c 0,28,29
 337 932 337 932 358 932 c 0,30,31
 425 935 425 935 493.5 952.5 c 128,-1,32
 562 970 562 970 632 992 c 1,33,-1
 602 860 l 1,34,-1
 753 913 l 2,35,36
 836 942 836 942 883 956 c 0,37,38
 897 960 897 960 915 960 c 0,39,40
 952 960 952 960 1004 940 c 1,41,-1
 924 689 l 1,42,-1
 878 689 l 1,43,44
 873 835 873 835 762 835 c 0,45,46
 751 835 751 835 740 834 c 0,47,48
 661 825 661 825 613 756.5 c 128,-1,49
 565 688 565 688 540 595 c 1,0,-1
EndSplineSet
Validated: 1
EndChar

StartChar: s
Encoding: 115 115 86
Width: 884
GlyphClass: 2
Flags: W
LayerCount: 2
Fore
SplineSet
711 958 m 0,0,1
 856 950 856 950 969 869 c 1,2,-1
 907 694 l 2,3,4
 902 679 902 679 888 679 c 2,5,-1
 885 679 l 1,6,7
 873 680 873 680 868 703 c 0,8,9
 850 778 850 778 792.5 828.5 c 128,-1,10
 735 879 735 879 656 882 c 1,11,-1
 652 882 l 2,12,13
 590 882 590 882 523 851 c 0,14,15
 454 819 454 819 425 753 c 0,16,17
 415 731 415 731 411 713 c 0,18,19
 408 698 408 698 408 686 c 0,20,21
 408 644 408 644 446 623 c 0,22,23
 509 587 509 587 598 566 c 0,24,25
 720 537 720 537 814 488 c 0,26,27
 888 450 888 450 888 346 c 0,28,29
 888 317 888 317 882 283 c 2,30,-1
 880 273 l 1,31,32
 863 199 863 199 789 125 c 0,33,34
 708 45 708 45 582 4 c 1,35,36
 503 -20 503 -20 414 -23 c 1,37,-1
 387 -23 l 2,38,39
 264 -23 264 -23 159 9 c 1,40,-1
 129 229 l 1,41,-1
 136 249 l 2,42,43
 141 264 141 264 158 264 c 2,44,-1
 160 264 l 1,45,46
 169 262 169 262 175 240 c 0,47,48
 199 141 199 141 255.5 99.5 c 128,-1,49
 312 58 312 58 414 55 c 1,50,-1
 426 55 l 2,51,52
 497 55 497 55 589 88 c 0,53,54
 690 124 690 124 715 218 c 1,55,-1
 717 224 l 1,56,57
 722 246 722 246 722 265 c 0,58,59
 722 338 722 338 646 361 c 0,60,61
 547 391 547 391 473 414 c 1,62,63
 380 441 380 441 306 500 c 0,64,65
 253 543 253 543 253 615 c 0,66,67
 253 642 253 642 260 672 c 2,68,-1
 261 677 l 1,69,70
 298 832 298 832 432 898 c 0,71,72
 555 959 555 959 687 959 c 0,73,74
 699 959 699 959 711 958 c 0,0,1
EndSplineSet
Validated: 1
EndChar

StartChar: t
Encoding: 116 116 87
Width: 682
GlyphClass: 2
Flags: W
LayerCount: 2
Fore
SplineSet
402 845 m 1,0,1
 364 844 364 844 287 840 c 1,2,-1
 282 840 l 2,3,4
 266 840 266 840 266 854 c 0,5,6
 266 857 266 857 267 860 c 1,7,-1
 267 862 l 1,8,9
 271 878 271 878 292 887 c 0,10,11
 314 896 314 896 385 930 c 0,12,13
 402 938 402 938 417 944 c 0,14,15
 420 945 420 945 425 945 c 1,16,-1
 465 1116 l 2,17,18
 476 1166 476 1166 501 1185.5 c 128,-1,19
 526 1205 526 1205 608 1240 c 0,20,21
 638 1253 638 1253 654 1253 c 0,22,23
 672 1253 672 1253 672 1237 c 0,24,25
 672 1232 672 1232 671 1227 c 2,26,-1
 607 948 l 1,27,-1
 846 953 l 1,28,-1
 847 953 l 2,29,30
 858 953 858 953 858 940 c 0,31,32
 858 934 858 934 856 927 c 0,33,34
 853 913 853 913 844 893 c 0,35,36
 823 846 823 846 788 846 c 2,37,-1
 584 847 l 1,38,-1
 439 220 l 2,39,40
 433 194 433 194 433 172 c 0,41,42
 433 116 433 116 471 84 c 0,43,44
 524 39 524 39 568 33 c 1,45,-1
 560 1 l 1,46,47
 411 1 411 1 316 29 c 0,48,49
 251 48 251 48 251 143 c 0,50,51
 251 188 251 188 265 250 c 2,52,-1
 402 845 l 1,0,1
EndSplineSet
Validated: 1
EndChar

StartChar: u
Encoding: 117 117 88
Width: 1239
GlyphClass: 2
Flags: W
LayerCount: 2
Fore
SplineSet
1074 146 m 2,0,1
 1070 130 1070 130 1070 117 c 0,2,3
 1070 77 1070 77 1105 64 c 0,4,5
 1146 48 1146 48 1146 27 c 0,6,7
 1146 24 1146 24 1145 21 c 0,8,9
 1140 0 1140 0 1119 0 c 2,10,-1
 876 0 l 2,11,12
 862 0 862 0 862 9 c 2,13,-1
 862 13 l 1,14,-1
 877 78 l 1,15,16
 817 57 817 57 771 40.5 c 128,-1,17
 725 24 725 24 686 12 c 0,18,19
 586 -19 586 -19 485 -29 c 0,20,21
 471 -30 471 -30 458 -30 c 0,22,23
 375 -30 375 -30 313 26 c 0,24,25
 254 80 254 80 254 208 c 0,26,27
 254 298 254 298 283 425 c 2,28,-1
 366 786 l 2,29,30
 370 801 370 801 370 814 c 0,31,32
 370 853 370 853 335 867 c 0,33,34
 294 883 294 883 294 905 c 0,35,36
 294 908 294 908 295 911 c 0,37,38
 300 932 300 932 321 932 c 0,39,40
 388 935 388 935 456.5 952.5 c 128,-1,41
 525 970 525 970 595 992 c 1,42,-1
 464 425 l 2,43,44
 443 333 443 333 443 264 c 0,45,46
 443 168 443 168 484 117 c 0,47,48
 529 60 529 60 613 60 c 0,49,50
 661 60 661 60 722 79 c 0,51,52
 745 86 745 86 782 99 c 128,-1,53
 819 112 819 112 845 121 c 0,54,55
 850 123 850 123 862.5 127 c 128,-1,56
 875 131 875 131 891 137 c 1,57,-1
 1040 786 l 2,58,59
 1044 801 1044 801 1044 814 c 0,60,61
 1044 853 1044 853 1009 867 c 0,62,63
 968 883 968 883 968 905 c 0,64,65
 968 908 968 908 969 911 c 0,66,67
 974 932 974 932 995 932 c 0,68,69
 1062 935 1062 935 1130.5 952.5 c 128,-1,70
 1199 970 1199 970 1269 992 c 1,71,-1
 1074 146 l 2,0,1
EndSplineSet
Validated: 1
EndChar

StartChar: v
Encoding: 118 118 89
Width: 1036
GlyphClass: 2
Flags: W
LayerCount: 2
Fore
SplineSet
541 805 m 2,0,-1
 655 166 l 1,1,-1
 1013 717 l 2,2,3
 1026 738 1026 738 1031 758 c 0,4,5
 1033 768 1033 768 1033 778 c 0,6,7
 1033 802 1033 802 1019 826 c 2,8,-1
 995 865 l 1,9,-1
 1101 936 l 1,10,11
 1108 942 1108 942 1113 942 c 0,12,13
 1120 942 1120 942 1127 934 c 2,14,-1
 1169 877 l 2,15,16
 1178 865 1178 865 1178 849 c 0,17,18
 1178 841 1178 841 1176 833 c 0,19,20
 1173 818 1173 818 1163 800 c 0,21,22
 1136 752 1136 752 1090 688 c 1,23,-1
 624 2 l 2,24,25
 617 -8 617 -8 611 -14 c 0,26,27
 605 -19 605 -19 599 -19 c 2,28,-1
 515 -19 l 2,29,30
 508 -19 508 -19 505 -13 c 0,31,32
 503 -10 503 -10 501 2.5 c 128,-1,33
 499 15 499 15 499 21 c 1,34,-1
 352 800 l 1,35,36
 343 838 343 838 317 860 c 1,37,38
 299 873 299 873 280.5 882 c 128,-1,39
 262 891 262 891 252 900 c 1,40,41
 246 904 246 904 243 913 c 1,42,-1
 243 920 l 1,43,44
 244 923 244 923 246 926 c 0,45,46
 250 931 250 931 258 931 c 2,47,-1
 586 931 l 2,48,49
 593 931 593 931 601 926 c 1,50,51
 607 919 607 919 609 913 c 1,52,-1
 609 908 l 1,53,54
 607 899 607 899 594 890 c 0,55,56
 553 859 553 859 548 849 c 0,57,58
 543 840 543 840 541 830 c 0,59,60
 540 824 540 824 540 818 c 256,61,62
 540 812 540 812 541 805 c 2,0,-1
EndSplineSet
Validated: 1
EndChar

StartChar: w
Encoding: 119 119 90
Width: 1647
GlyphClass: 2
Flags: W
LayerCount: 2
Fore
SplineSet
1152 805 m 2,0,-1
 1266 166 l 1,1,-1
 1624 717 l 2,2,3
 1637 738 1637 738 1642 758 c 0,4,5
 1644 768 1644 768 1644 778 c 0,6,7
 1644 802 1644 802 1630 826 c 2,8,-1
 1606 865 l 1,9,-1
 1711 936 l 2,10,11
 1717 941 1717 941 1724 941 c 256,12,13
 1731 941 1731 941 1738 934 c 1,14,-1
 1780 877 l 2,15,16
 1789 865 1789 865 1789 849 c 0,17,18
 1789 841 1789 841 1787 833 c 0,19,20
 1784 818 1784 818 1774 800 c 0,21,22
 1747 752 1747 752 1701 688 c 1,23,-1
 1235 2 l 2,24,25
 1228 -8 1228 -8 1222 -14 c 0,26,27
 1216 -19 1216 -19 1210 -19 c 2,28,-1
 1126 -19 l 2,29,30
 1119 -19 1119 -19 1116 -13 c 0,31,32
 1114 -10 1114 -10 1112 2.5 c 128,-1,33
 1110 15 1110 15 1109 21 c 2,34,-1
 1006 565 l 1,35,-1
 624 2 l 2,36,37
 617 -8 617 -8 611 -14 c 0,38,39
 605 -19 605 -19 599 -19 c 2,40,-1
 515 -19 l 2,41,42
 508 -19 508 -19 505 -13 c 0,43,44
 503 -10 503 -10 501 2.5 c 128,-1,45
 499 15 499 15 499 21 c 1,46,-1
 352 800 l 1,47,48
 343 838 343 838 317 860 c 1,49,50
 299 873 299 873 280.5 882 c 128,-1,51
 262 891 262 891 252 900 c 1,52,53
 246 904 246 904 243 913 c 1,54,-1
 243 920 l 1,55,56
 244 923 244 923 246 926 c 0,57,58
 250 931 250 931 258 931 c 2,59,-1
 586 931 l 2,60,61
 593 931 593 931 601 926 c 1,62,63
 607 919 607 919 609 913 c 1,64,-1
 609 908 l 1,65,66
 607 899 607 899 594 890 c 0,67,68
 553 859 553 859 548 849 c 0,69,70
 543 840 543 840 541 830 c 0,71,72
 540 824 540 824 540 818 c 256,73,74
 540 812 540 812 541 805 c 2,75,-1
 655 166 l 1,76,-1
 986 676 l 1,77,-1
 963 800 l 1,78,79
 954 838 954 838 928 860 c 1,80,81
 910 873 910 873 891.5 882 c 128,-1,82
 873 891 873 891 863 900 c 1,83,84
 854 906 854 906 854 913 c 2,85,-1
 854 920 l 1,86,87
 855 923 855 923 857 926 c 0,88,89
 861 931 861 931 869 931 c 2,90,-1
 1197 931 l 2,91,92
 1204 931 1204 931 1212 926 c 1,93,94
 1218 919 1218 919 1220 913 c 1,95,-1
 1220 908 l 1,96,97
 1218 899 1218 899 1205 890 c 0,98,99
 1164 859 1164 859 1159 849 c 0,100,101
 1154 840 1154 840 1152 830 c 0,102,103
 1151 824 1151 824 1151 818 c 256,104,105
 1151 812 1151 812 1152 805 c 2,0,-1
EndSplineSet
Validated: 1
EndChar

StartChar: x
Encoding: 120 120 91
Width: 1098
GlyphClass: 2
Flags: W
LayerCount: 2
Fore
SplineSet
185 97 m 2,0,-1
 552 447 l 1,1,-1
 376 832 l 2,2,3
 366 856 366 856 332 876 c 0,4,5
 316 886 316 886 299.5 892.5 c 128,-1,6
 283 899 283 899 273 906 c 0,7,8
 254 918 254 918 254 924 c 1,9,10
 255 929 255 929 270 929 c 2,11,-1
 592 929 l 2,12,13
 607 929 607 929 614 915 c 0,14,15
 615 912 615 912 615 909 c 2,16,-1
 615 906 l 1,17,18
 614 900 614 900 604 895 c 0,19,20
 587 886 587 886 581 868 c 0,21,22
 580 864 580 864 580 860 c 0,23,24
 580 848 580 848 586 836 c 2,25,-1
 700 587 l 1,26,-1
 918 796 l 2,27,28
 1034 907 1034 907 1064 929 c 0,29,30
 1075 937 1075 937 1091 937 c 0,31,32
 1115 937 1115 937 1149 917 c 2,33,-1
 1205 883 l 2,34,35
 1211 879 1211 879 1211 872 c 2,36,-1
 1211 869 l 1,37,38
 1209 864 1209 864 1205 858 c 2,39,-1
 1130 754 l 1,40,41
 1098 774 1098 774 1070 789 c 0,42,43
 1063 793 1063 793 1055 793 c 0,44,45
 1031 793 1031 793 995 758 c 2,46,-1
 735 510 l 1,47,-1
 924 97 l 1,48,49
 936 68 936 68 973 51 c 0,50,51
 986 44 986 44 1000 37.5 c 128,-1,52
 1014 31 1014 31 1027 23 c 0,53,54
 1046 11 1046 11 1046 5 c 1,55,56
 1045 0 1045 0 1030 0 c 2,57,-1
 708 0 l 2,58,59
 693 0 693 0 686 13 c 0,60,61
 685 16 685 16 685 19 c 2,62,-1
 685 22 l 1,63,64
 686 28 686 28 697 34 c 0,65,66
 713 42 713 42 719 60 c 1,67,-1
 719 62 l 1,68,69
 720 66 720 66 720 71 c 0,70,71
 720 81 720 81 714 93 c 2,72,-1
 588 370 l 1,73,-1
 301 97 l 1,74,75
 276 71 276 71 273 55 c 1,76,-1
 272 52 l 2,77,78
 271 46 271 46 271 41 c 256,79,80
 271 36 271 36 272 32 c 0,81,82
 273 31 273 31 273 29 c 0,83,84
 273 28 273 28 272 26 c 0,85,86
 271 20 271 20 264 14 c 1,87,88
 252 0 252 0 242 0 c 2,89,-1
 34 0 l 2,90,91
 25 0 25 0 25 4 c 2,92,-1
 25 5 l 1,93,94
 26 9 26 9 31 14 c 0,95,96
 48 30 48 30 93.5 41 c 128,-1,97
 139 52 139 52 185 97 c 2,0,-1
EndSplineSet
Validated: 1
EndChar

StartChar: y
Encoding: 121 121 92
Width: 1036
GlyphClass: 2
Flags: W
LayerCount: 2
Fore
SplineSet
352 800 m 1,0,1
 343 838 343 838 317 860 c 1,2,3
 294 876 294 876 269.5 887 c 128,-1,4
 245 898 245 898 243 913 c 1,5,-1
 243 922 l 1,6,7
 245 931 245 931 258 931 c 2,8,-1
 586 931 l 2,9,10
 605 931 605 931 609 913 c 0,11,12
 610 911 610 911 610 909 c 256,13,14
 610 907 610 907 609 905 c 0,15,16
 606 893 606 893 587 885 c 1,17,18
 563 873 563 873 548 849 c 0,19,20
 543 840 543 840 541 830 c 0,21,22
 540 824 540 824 540 818 c 256,23,24
 540 812 540 812 541 805 c 2,25,-1
 655 166 l 1,26,-1
 1013 717 l 2,27,28
 1026 738 1026 738 1031 758 c 0,29,30
 1033 768 1033 768 1033 778 c 0,31,32
 1033 802 1033 802 1019 826 c 2,33,-1
 995 865 l 1,34,-1
 1101 936 l 1,35,36
 1108 942 1108 942 1113 942 c 0,37,38
 1120 942 1120 942 1127 934 c 2,39,-1
 1169 877 l 2,40,41
 1178 865 1178 865 1178 849 c 0,42,43
 1178 841 1178 841 1176 833 c 0,44,45
 1173 818 1173 818 1163 800 c 0,46,47
 1136 752 1136 752 1090 688 c 1,48,-1
 340 -414 l 2,49,50
 295 -480 295 -480 261 -524 c 1,51,52
 227 -566 227 -566 190 -566 c 2,53,-1
 187 -566 l 1,54,-1
 108 -563 l 1,55,56
 93 -560 93 -560 93 -548 c 2,57,-1
 93 -544 l 1,58,-1
 114 -430 l 1,59,-1
 165 -429 l 2,60,61
 232 -427 232 -427 274 -370 c 1,62,-1
 524 -19 l 1,63,64
 509 -19 509 -19 505 -13 c 0,65,66
 503 -10 503 -10 501 2.5 c 128,-1,67
 499 15 499 15 499 21 c 1,68,-1
 352 800 l 1,0,1
EndSplineSet
Validated: 1
EndChar

StartChar: z
Encoding: 122 122 93
Width: 1019
GlyphClass: 2
Flags: W
LayerCount: 2
Fore
SplineSet
1135 880 m 2,0,-1
 312 79 l 1,1,-1
 746 79 l 1,2,3
 798 81 798 81 840.5 114 c 128,-1,4
 883 147 883 147 940 207 c 0,5,6
 973 241 973 241 980 241 c 0,7,8
 994 241 994 241 994 230 c 0,9,10
 994 227 994 227 993 223 c 2,11,-1
 957 65 l 2,12,13
 946 16 946 16 931 8 c 128,-1,14
 916 0 916 0 845 0 c 2,15,-1
 160 -1 l 1,16,17
 88 0 88 0 65 8 c 0,18,19
 56 11 56 11 56 18 c 2,20,-1
 56 21 l 1,21,22
 58 32 58 32 79 51 c 1,23,-1
 898 861 l 1,24,-1
 546 861 l 2,25,26
 494 861 494 861 454.5 828 c 128,-1,27
 415 795 415 795 359 736 c 1,28,29
 326 703 326 703 319 703 c 0,30,31
 303 703 303 703 303 715 c 0,32,33
 303 717 303 717 304 720 c 2,34,-1
 341 879 l 2,35,36
 351 924 351 924 369.5 934.5 c 128,-1,37
 388 945 388 945 454 945 c 2,38,-1
 1076 945 l 2,39,40
 1159 945 1159 945 1159 918 c 0,41,42
 1159 915 1159 915 1158 913 c 0,43,44
 1155 899 1155 899 1135 880 c 2,0,-1
EndSplineSet
Validated: 1
EndChar

StartChar: lcub
Encoding: 123 123 94
Width: 1024
GlyphClass: 2
Flags: W
LayerCount: 2
Fore
SplineSet
300 613 m 0,0,1
 284 614 284 614 280 624 c 0,2,3
 277 629 277 629 277 636 c 0,4,5
 277 639 277 639 278 643 c 256,6,7
 279 647 279 647 282 652 c 0,8,9
 289 670 289 670 313 673 c 0,10,11
 468 686 468 686 538 746 c 0,12,13
 580 782 580 782 604.5 843 c 128,-1,14
 629 904 629 904 642 961 c 2,15,-1
 691 1173 l 2,16,17
 707 1245 707 1245 739.5 1321.5 c 128,-1,18
 772 1398 772 1398 829 1443 c 0,19,20
 920 1516 920 1516 1124 1516 c 0,21,22
 1144 1516 1144 1516 1150 1507 c 1,23,24
 1155 1496 1155 1496 1155 1487 c 0,25,26
 1155 1485 1155 1485 1154 1482 c 0,27,28
 1150 1466 1150 1466 1120 1466 c 0,29,30
 987 1464 987 1464 928 1411 c 1,31,32
 889 1378 889 1378 866.5 1317.5 c 128,-1,33
 844 1257 844 1257 832 1204 c 2,34,-1
 799 1061 l 2,35,36
 781 984 781 984 750 895.5 c 128,-1,37
 719 807 719 807 671 755 c 0,38,39
 595 673 595 673 434 642 c 1,40,41
 580 611 580 611 619 529 c 0,42,43
 636 492 636 492 636 438 c 0,44,45
 636 415 636 415 633 389 c 0,46,47
 623 301 623 301 605 223 c 2,48,-1
 572 80 l 2,49,50
 555 5 555 5 555 -47 c 256,51,52
 555 -99 555 -99 573 -126 c 0,53,54
 609 -178 609 -178 740 -180 c 0,55,56
 756 -180 756 -180 759 -195 c 1,57,-1
 759 -199 l 2,58,59
 759 -203 759 -203 758 -207 c 0,60,61
 756 -215 756 -215 749 -223 c 1,62,63
 740 -231 740 -231 721 -231 c 0,64,65
 519 -231 519 -231 460 -158 c 0,66,67
 426 -116 426 -116 426 -48 c 2,68,-1
 426 -37 l 1,69,70
 429 39 429 39 446 112 c 2,71,-1
 495 323 l 2,72,73
 508 380 508 380 511 442 c 1,74,-1
 511 455 l 2,75,76
 511 507 511 507 490 541 c 1,77,78
 463 577 463 577 408.5 593 c 128,-1,79
 354 609 354 609 300 613 c 0,0,1
EndSplineSet
Validated: 1
EndChar

StartChar: verbar
Encoding: 124 124 95
Width: 1024
GlyphClass: 2
Flags: W
LayerCount: 2
Fore
SplineSet
794 1490 m 1,0,-1
 935 1490 l 1,1,-1
 539 -227 l 1,2,-1
 398 -227 l 1,3,-1
 794 1490 l 1,0,-1
EndSplineSet
Validated: 1
EndChar

StartChar: rcub
Encoding: 125 125 96
Width: 1024
GlyphClass: 2
Flags: W
LayerCount: 2
Fore
SplineSet
921 613 m 0,0,1
 864 609 864 609 801 593 c 128,-1,2
 738 577 738 577 696 541 c 0,3,4
 653 503 653 503 628.5 441.5 c 128,-1,5
 604 380 604 380 591 323 c 2,6,-1
 542 112 l 2,7,8
 525 39 525 39 492.5 -37 c 128,-1,9
 460 -113 460 -113 405 -158 c 1,10,11
 310 -231 310 -231 109 -231 c 0,12,13
 90 -231 90 -231 85 -223 c 0,14,15
 81 -217 81 -217 81 -210 c 2,16,-1
 81 -206 l 1,17,18
 83 -201 83 -201 86 -195 c 0,19,20
 95 -180 95 -180 112 -180 c 0,21,22
 246 -178 246 -178 306 -126 c 0,23,24
 366 -73 366 -73 401 80 c 2,25,-1
 434 223 l 2,26,27
 452 301 452 301 483 389 c 128,-1,28
 514 477 514 477 562 529 c 0,29,30
 638 612 638 612 799 642 c 1,31,32
 651 673 651 673 614 755 c 1,33,34
 596 792 596 792 596 846 c 0,35,36
 596 869 596 869 600 896 c 0,37,38
 610 984 610 984 628 1061 c 2,39,-1
 661 1204 l 2,40,41
 673 1257 673 1257 678 1318 c 1,42,-1
 678 1337 l 2,43,44
 678 1384 678 1384 660 1411 c 0,45,46
 624 1464 624 1464 492 1466 c 0,47,48
 466 1466 466 1466 466 1478 c 2,49,-1
 466 1482 l 1,50,51
 468 1492 468 1492 483 1507 c 0,52,53
 491 1516 491 1516 512 1516 c 0,54,55
 715 1516 715 1516 774 1443 c 0,56,57
 807 1402 807 1402 807 1335 c 2,58,-1
 807 1322 l 1,59,60
 803 1245 803 1245 787 1173 c 2,61,-1
 738 961 l 2,62,63
 725 904 725 904 722 843 c 0,64,65
 721 835 721 835 721 828 c 0,66,67
 721 777 721 777 742 746 c 0,68,69
 782 686 782 686 934 673 c 1,70,71
 957 670 957 670 957 652 c 1,72,-1
 954 643 l 1,73,74
 952 631 952 631 944 624 c 1,75,76
 935 614 935 614 921 613 c 0,0,1
EndSplineSet
Validated: 1
EndChar

StartChar: tld
Encoding: 126 126 97
Width: 1024
GlyphClass: 2
Flags: W
LayerCount: 2
Fore
SplineSet
1131 729 m 0,0,1
 1044 616 1044 616 977 565 c 0,2,3
 905 510 905 510 840 510 c 0,4,5
 727 510 727 510 611 594 c 0,6,7
 547 640 547 640 480 640 c 0,8,9
 428 640 428 640 374 611 c 0,10,11
 360 603 360 603 340.5 592.5 c 128,-1,12
 321 582 321 582 297 564 c 0,13,14
 255 531 255 531 219 491 c 0,15,16
 210 481 210 481 200 481 c 0,17,18
 192 481 192 481 183 487 c 0,19,20
 174 492 174 492 174 501 c 0,21,22
 174 503 174 503 175 506 c 0,23,24
 177 516 177 516 188 529 c 0,25,26
 252 601 252 601 318 677 c 128,-1,27
 384 753 384 753 486 753 c 0,28,29
 612 753 612 753 721 666 c 0,30,31
 779 619 779 619 847 619 c 0,32,33
 906 619 906 619 972 654 c 0,34,35
 1034 686 1034 686 1093 761 c 0,36,37
 1102 773 1102 773 1116 773 c 0,38,39
 1119 773 1119 773 1122 772 c 0,40,41
 1139 769 1139 769 1139 754 c 2,42,-1
 1139 751 l 1,43,44
 1140 750 1140 750 1140 748 c 0,45,46
 1140 747 1140 747 1139 745 c 0,47,48
 1137 738 1137 738 1131 729 c 0,0,1
EndSplineSet
Validated: 1
EndChar

StartChar: iexcl
Encoding: 161 161 98
Width: 569
GlyphClass: 2
Flags: W
LayerCount: 2
Fore
SplineSet
414 518 m 2,0,-1
 263 -436 l 1,1,-1
 261 -444 l 1,2,3
 246 -509 246 -509 172 -509 c 2,4,-1
 109 -509 l 2,5,6
 48 -509 48 -509 48 -466 c 0,7,8
 48 -457 48 -457 51 -446 c 2,9,-1
 53 -436 l 1,10,-1
 344 518 l 1,11,12
 349 543 349 543 373 543 c 2,13,-1
 394 543 l 2,14,15
 415 543 415 543 415 526 c 0,16,17
 415 522 415 522 414 518 c 2,0,-1
412 664 m 0,18,19
 319 664 319 664 319 726 c 0,20,21
 319 738 319 738 322 751 c 2,22,-1
 341 833 l 2,23,24
 361 920 361 920 471 920 c 0,25,26
 564 920 564 920 564 858 c 0,27,28
 564 846 564 846 561 833 c 2,29,-1
 542 751 l 2,30,31
 522 664 522 664 412 664 c 0,18,19
EndSplineSet
Validated: 1
EndChar

StartChar: cent
Encoding: 162 162 99
Width: 1024
GlyphClass: 2
Flags: W
LayerCount: 2
Fore
SplineSet
843 956 m 1,0,-1
 847 956 l 2,1,2
 1011 956 1011 956 1126 868 c 1,3,-1
 1071 700 l 2,4,5
 1066 687 1066 687 1055 687 c 2,6,-1
 1052 687 l 1,7,8
 1042 688 1042 688 1038 707 c 0,9,10
 1018 792 1018 792 962 833 c 1,11,12
 912 867 912 867 823 871 c 1,13,-1
 639 73 l 1,14,15
 652 72 652 72 665 72 c 0,16,17
 754 72 754 72 877 131 c 0,18,19
 943 163 943 163 963 163 c 0,20,21
 968 163 968 163 969 161 c 0,22,23
 970 158 970 158 970 155 c 2,24,-1
 970 151 l 1,25,26
 967 138 967 138 948 114 c 0,27,28
 925 83 925 83 903 67 c 0,29,30
 842 21 842 21 765 1 c 128,-1,31
 688 -19 688 -19 617 -22 c 1,32,-1
 573 -212 l 1,33,-1
 489 -212 l 1,34,-1
 533 -20 l 1,35,36
 371 -5 371 -5 283 96 c 0,37,38
 214 175 214 175 214 299 c 0,39,40
 214 335 214 335 220 374 c 0,41,42
 227 418 227 418 236 460 c 1,43,44
 249 514 249 514 267 564 c 1,45,46
 301 652 301 652 376 740 c 0,47,48
 526 915 526 915 757 949 c 1,49,-1
 795 1115 l 1,50,-1
 879 1115 l 1,51,-1
 843 956 l 1,0,-1
737 863 m 1,52,53
 660 848 660 848 607 807 c 1,54,55
 541 754 541 754 501 683 c 1,56,57
 458 610 458 610 437 519 c 0,58,59
 430 490 430 490 426 459 c 1,60,61
 418 410 418 410 418 367 c 0,62,63
 418 280 418 280 451 216 c 0,64,65
 493 132 493 132 560 96 c 1,66,-1
 737 863 l 1,52,53
EndSplineSet
Validated: 1
EndChar

StartChar: pound
Encoding: 163 163 100
Width: 1024
GlyphClass: 2
Flags: W
LayerCount: 2
Fore
SplineSet
97 108 m 0,0,1
 93 90 93 90 93 77 c 0,2,3
 93 29 93 29 142 29 c 0,4,5
 198 29 198 29 231 74.5 c 128,-1,6
 264 120 264 120 288 164 c 1,7,8
 259 201 259 201 220 201 c 0,9,10
 118 201 118 201 97 108 c 0,0,1
245 784 m 2,11,-1
 421 784 l 1,12,13
 431 862 431 862 446 928 c 0,14,15
 459 985 459 985 476 1033 c 0,16,17
 517 1152 517 1152 581 1238 c 0,18,19
 735 1443 735 1443 971 1443 c 0,20,21
 1041 1443 1041 1443 1099 1408 c 128,-1,22
 1157 1373 1157 1373 1175 1308 c 0,23,24
 1180 1290 1180 1290 1180 1269 c 0,25,26
 1180 1254 1180 1254 1177 1237 c 1,27,-1
 1175 1230 l 1,28,29
 1167 1195 1167 1195 1136 1170 c 0,30,31
 1103 1143 1103 1143 1075 1143 c 0,32,33
 1050 1143 1050 1143 1028 1165 c 1,34,35
 1010 1181 1010 1181 1010 1214 c 0,36,37
 1010 1221 1010 1221 1011 1229 c 0,38,39
 1015 1273 1015 1273 1018 1302 c 1,40,-1
 1018 1309 l 2,41,42
 1018 1372 1018 1372 946 1383 c 0,43,44
 929 1385 929 1385 913 1385 c 0,45,46
 858 1385 858 1385 816 1355 c 0,47,48
 740 1301 740 1301 707 1229 c 128,-1,49
 674 1157 674 1157 656 1079 c 0,50,51
 639 1004 639 1004 628.5 930.5 c 128,-1,52
 618 857 618 857 607 784 c 1,53,-1
 868 784 l 2,54,55
 880 784 880 784 880 774 c 2,56,-1
 880 769 l 1,57,-1
 863 699 l 2,58,59
 860 684 860 684 845 684 c 2,60,-1
 590 684 l 1,61,62
 584 650 584 650 576 615 c 256,63,64
 568 580 568 580 558 545 c 0,65,66
 533 463 533 463 497 389 c 128,-1,67
 461 315 461 315 427 237 c 1,68,69
 476 218 476 218 526 199.5 c 128,-1,70
 576 181 576 181 629 167 c 0,71,72
 686 152 686 152 738 152 c 0,73,74
 780 152 780 152 819 162 c 0,75,76
 900 183 900 183 959 249 c 0,77,78
 978 270 978 270 986 292 c 128,-1,79
 994 314 994 314 1022 314 c 0,80,81
 1038 314 1038 314 1038 299 c 0,82,83
 1038 296 1038 296 1037 291 c 0,84,85
 1030 258 1030 258 1011.5 228.5 c 128,-1,86
 993 199 993 199 975 170 c 0,87,88
 916 75 916 75 822 17 c 1,89,90
 739 -31 739 -31 660 -31 c 0,91,92
 649 -31 649 -31 639 -30 c 0,93,94
 550 -23 550 -23 485 29 c 0,95,96
 469 42 469 42 422.5 76.5 c 128,-1,97
 376 111 376 111 359 129 c 1,98,99
 283 43 283 43 203 -10 c 0,100,101
 168 -32 168 -32 133 -32 c 0,102,103
 113 -32 113 -32 93 -25 c 0,104,105
 39 -5 39 -5 28 45 c 0,106,107
 26 53 26 53 26 62 c 0,108,109
 26 75 26 75 30 90 c 0,110,111
 35 114 35 114 51 143 c 0,112,113
 81 201 81 201 121 228 c 0,114,115
 177 266 177 266 218 266 c 2,116,-1
 224 266 l 1,117,118
 266 263 266 263 322 259 c 1,119,120
 339 309 339 309 350 357 c 2,121,-1
 357 387 l 1,122,123
 369 449 369 449 381 511 c 1,124,125
 394 585 394 585 407 684 c 1,126,-1
 222 684 l 2,127,128
 210 684 210 684 210 694 c 2,129,-1
 210 699 l 1,130,-1
 227 769 l 2,131,132
 230 784 230 784 245 784 c 2,11,-1
EndSplineSet
Validated: 1
EndChar

StartChar: curren
Encoding: 164 164 101
Width: 1024
GlyphClass: 2
Flags: W
LayerCount: 2
Fore
SplineSet
682 732 m 0,0,1
 575 732 575 732 482.5 656.5 c 128,-1,2
 390 581 390 581 366 475 c 0,3,4
 358 443 358 443 358 414 c 0,5,6
 358 346 358 346 399 294 c 0,7,8
 457 219 457 219 564 219 c 0,9,10
 669 219 669 219 761.5 294 c 128,-1,11
 854 369 854 369 879 475 c 0,12,13
 886 506 886 506 886 534 c 0,14,15
 886 603 886 603 845 657 c 0,16,17
 787 732 787 732 682 732 c 0,0,1
703 822 m 256,18,19
 819 822 819 822 896 751 c 1,20,-1
 1074 895 l 2,21,22
 1081 901 1081 901 1086 901 c 256,23,24
 1091 901 1091 901 1094 896 c 2,25,-1
 1130 850 l 2,26,27
 1132 846 1132 846 1132 843 c 2,28,-1
 1132 840 l 1,29,30
 1131 835 1131 835 1125 830 c 2,31,-1
 946 685 l 1,32,33
 978 625 978 625 978 555 c 0,34,35
 978 517 978 517 969 476 c 0,36,37
 942 358 942 358 850 267 c 1,38,-1
 961 123 l 2,39,40
 964 118 964 118 964 114 c 2,41,-1
 964 112 l 1,42,43
 963 107 963 107 958 102 c 2,44,-1
 900 56 l 2,45,46
 894 51 894 51 889 51 c 256,47,48
 884 51 884 51 880 57 c 2,49,-1
 769 201 l 1,50,51
 660 131 660 131 543 131 c 256,52,53
 426 131 426 131 350 201 c 1,54,-1
 173 57 l 2,55,56
 166 51 166 51 161 51 c 256,57,58
 156 51 156 51 152 56 c 2,59,-1
 117 102 l 2,60,61
 114 106 114 106 114 110 c 2,62,-1
 114 112 l 1,63,64
 115 117 115 117 122 123 c 2,65,-1
 300 267 l 1,66,67
 268 326 268 326 268 396 c 0,68,69
 268 434 268 434 278 476 c 0,70,71
 305 592 305 592 396 685 c 1,72,-1
 286 830 l 2,73,74
 282 834 282 834 282 838 c 2,75,-1
 282 840 l 1,76,77
 283 845 283 845 289 850 c 2,78,-1
 346 896 l 2,79,80
 352 901 352 901 357 901 c 256,81,82
 362 901 362 901 367 895 c 2,83,-1
 477 751 l 1,84,85
 587 822 587 822 703 822 c 256,18,19
EndSplineSet
Validated: 1
EndChar

StartChar: yen
Encoding: 165 165 102
Width: 1366
GlyphClass: 2
Flags: W
LayerCount: 2
Fore
SplineSet
728 721 m 1,0,-1
 530 1258 l 1,1,2
 515 1292 515 1292 469 1325 c 1,3,4
 444 1340 444 1340 421 1349.5 c 128,-1,5
 398 1359 398 1359 384 1369 c 0,6,7
 374 1375 374 1375 370 1383 c 0,8,9
 369 1387 369 1387 369 1391 c 2,10,-1
 369 1394 l 1,11,-1
 370 1398 l 2,12,13
 372 1404 372 1404 381 1404 c 2,14,-1
 720 1404 l 2,15,16
 730 1404 730 1404 738 1398 c 0,17,18
 747 1391 747 1391 751 1383 c 0,19,20
 752 1380 752 1380 752 1376 c 2,21,-1
 752 1373 l 1,22,23
 750 1366 750 1366 742 1358 c 0,24,25
 732 1349 732 1349 720 1338.5 c 128,-1,26
 708 1328 708 1328 703 1313 c 1,27,-1
 702 1308 l 2,28,29
 700 1301 700 1301 700 1294 c 0,30,31
 700 1279 700 1279 708 1263 c 1,32,-1
 921 729 l 1,33,34
 1007 818 1007 818 1099.5 924.5 c 128,-1,35
 1192 1031 1192 1031 1271 1124 c 0,36,37
 1310 1169 1310 1169 1323 1201 c 1,38,-1
 1326 1211 l 1,39,40
 1328 1222 1328 1222 1328 1234 c 0,41,42
 1328 1257 1328 1257 1320 1288 c 2,43,-1
 1302 1356 l 1,44,-1
 1459 1418 l 2,45,46
 1467 1421 1467 1421 1473 1421 c 0,47,48
 1486 1421 1486 1421 1493 1405 c 1,49,-1
 1530 1304 l 2,50,51
 1534 1293 1534 1293 1534 1282 c 0,52,53
 1534 1273 1534 1273 1532 1265 c 0,54,55
 1524 1231 1524 1231 1484 1196 c 0,56,57
 1419 1139 1419 1139 1336 1054 c 0,58,59
 1264 980 1264 980 1187 893 c 128,-1,60
 1110 806 1110 806 1032 721 c 1,61,-1
 1305 721 l 1,62,-1
 1287 642 l 1,63,-1
 964 642 l 1,64,65
 947 614 947 614 934.5 575 c 128,-1,66
 922 536 922 536 913 500 c 1,67,-1
 1254 500 l 1,68,-1
 1236 421 l 1,69,-1
 895 421 l 1,70,-1
 832 146 l 2,71,72
 828 130 828 130 828 117 c 0,73,74
 828 77 828 77 863 64 c 0,75,76
 904 48 904 48 904 27 c 0,77,78
 904 24 904 24 903 21 c 0,79,80
 898 0 898 0 877 0 c 2,81,-1
 538 0 l 2,82,83
 521 0 521 0 521 14 c 0,84,85
 521 17 521 17 522 21 c 0,86,87
 528 46 528 46 582 63.5 c 128,-1,88
 636 81 636 81 651 146 c 0,89,90
 692 324 692 324 695.5 336.5 c 128,-1,91
 699 349 699 349 715 421 c 1,92,-1
 412 421 l 1,93,-1
 430 500 l 1,94,-1
 733 500 l 1,95,96
 737 515 737 515 740.5 533.5 c 128,-1,97
 744 552 744 552 749 573 c 0,98,99
 757 607 757 607 757 629 c 0,100,101
 757 636 757 636 756 642 c 1,102,-1
 463 642 l 1,103,-1
 481 721 l 1,104,-1
 728 721 l 1,0,-1
EndSplineSet
Validated: 1
EndChar

StartChar: brvbar
Encoding: 166 166 103
Width: 1024
GlyphClass: 2
Flags: W
LayerCount: 2
Fore
SplineSet
684 1490 m 1,0,-1
 816 1490 l 1,1,-1
 660 813 l 1,2,-1
 528 813 l 1,3,-1
 684 1490 l 1,0,-1
289 -223 m 1,4,-1
 445 453 l 1,5,-1
 577 453 l 1,6,-1
 421 -223 l 1,7,-1
 289 -223 l 1,4,-1
EndSplineSet
Validated: 1
EndChar

StartChar: sect
Encoding: 167 167 104
Width: 1024
GlyphClass: 2
Flags: W
LayerCount: 2
Fore
SplineSet
415 -365 m 0,0,1
 491 -359 491 -359 568 -325 c 128,-1,2
 645 -291 645 -291 702 -224 c 0,3,4
 761 -154 761 -154 784 -58 c 1,5,-1
 786 -47 l 2,6,7
 791 -21 791 -21 791 2 c 0,8,9
 791 70 791 70 744 111 c 0,10,11
 714 137 714 137 667 152 c 1,12,13
 575 179 575 179 476 190 c 128,-1,14
 377 201 377 201 296 246 c 1,15,16
 223 285 223 285 200 360 c 0,17,18
 187 400 187 400 187 443 c 0,19,20
 187 482 187 482 197 524 c 0,21,22
 236 692 236 692 375 802 c 1,23,24
 308 864 308 864 308 964 c 0,25,26
 308 1004 308 1004 319 1051 c 0,27,28
 359 1224 359 1224 504 1335 c 1,29,30
 656 1450 656 1450 843 1450 c 0,31,32
 857 1450 857 1450 871 1449 c 0,33,34
 1074 1440 1074 1440 1198 1347 c 1,35,-1
 1130 1153 l 2,36,37
 1124 1135 1124 1135 1111 1135 c 0,38,39
 1108 1135 1108 1135 1105 1136 c 0,40,41
 1092 1137 1092 1137 1088 1162 c 1,42,43
 1068 1245 1068 1245 1005 1303.5 c 128,-1,44
 942 1362 942 1362 856 1366 c 1,45,-1
 841 1366 l 2,46,47
 756 1366 756 1366 683 1335 c 0,48,49
 637 1315 637 1315 602 1286 c 0,50,51
 571 1261 571 1261 545 1222 c 1,52,53
 521 1188 521 1188 506 1152 c 0,54,55
 493 1122 493 1122 487 1094 c 0,56,57
 481 1070 481 1070 481 1048 c 0,58,59
 481 1038 481 1038 482 1029 c 0,60,61
 486 967 486 967 526 933 c 1,62,63
 553 908 553 908 596 896 c 0,64,65
 618 890 618 890 650 884.5 c 128,-1,66
 682 879 682 879 717 873 c 0,67,68
 766 864 766 864 823 855 c 128,-1,69
 880 846 880 846 932 830 c 1,70,71
 1018 799 1018 799 1051 751 c 0,72,73
 1076 716 1076 716 1087 668 c 1,74,75
 1091 644 1091 644 1091 618 c 0,76,77
 1091 578 1091 578 1081 534 c 0,78,79
 1044 371 1044 371 906 252 c 1,80,81
 919 240 919 240 930 225 c 0,82,83
 955 187 955 187 966 141 c 1,84,85
 970 118 970 118 970 92 c 0,86,87
 970 52 970 52 960 7 c 0,88,89
 915 -188 915 -188 723 -321 c 0,90,91
 626 -387 626 -387 516 -422 c 1,92,93
 434 -447 434 -447 335 -453 c 0,94,95
 316 -454 316 -454 297 -454 c 0,96,97
 167 -454 167 -454 57 -417 c 1,98,-1
 26 -172 l 1,99,-1
 26 -163 l 1,100,101
 29 -153 29 -153 38 -144 c 1,102,103
 46 -133 46 -133 56 -133 c 2,104,-1
 59 -133 l 1,105,106
 69 -134 69 -134 76 -159 c 0,107,108
 107 -287 107 -287 187 -330 c 1,109,110
 252 -367 252 -367 365 -367 c 0,111,112
 389 -367 389 -367 415 -365 c 0,0,1
821 299 m 1,113,-1
 823 301 l 1,114,115
 882 370 882 370 905 468 c 1,116,-1
 908 479 l 1,117,118
 913 505 913 505 913 527 c 0,119,120
 913 597 913 597 865 638 c 0,121,122
 833 665 833 665 789 679 c 1,123,124
 711 701 711 701 627.5 711.5 c 128,-1,125
 544 722 544 722 469 749 c 1,126,127
 444 727 444 727 424 696 c 1,128,129
 400 663 400 663 384 625 c 0,130,131
 371 595 371 595 365 567 c 0,132,133
 359 542 359 542 359 519 c 0,134,135
 359 510 359 510 360 502 c 0,136,137
 365 439 365 439 405 407 c 1,138,139
 430 381 430 381 474 370 c 0,140,141
 508 361 508 361 595 346 c 0,142,143
 645 337 645 337 702 328 c 128,-1,144
 759 319 759 319 810 303 c 0,145,146
 813 302 813 302 815.5 300.5 c 128,-1,147
 818 299 818 299 821 299 c 1,113,-1
EndSplineSet
Validated: 1
EndChar

StartChar: uml
Encoding: 168 168 105
Width: 682
GlyphClass: 2
Flags: W
LayerCount: 2
Fore
SplineSet
823 1165 m 0,0,1
 776 1165 776 1165 753 1197 c 1,2,3
 736 1218 736 1218 736 1247 c 0,4,5
 736 1260 736 1260 739 1274 c 0,6,7
 764 1383 764 1383 873 1383 c 0,8,9
 920 1383 920 1383 944 1352 c 0,10,11
 961 1330 961 1330 961 1301 c 0,12,13
 961 1288 961 1288 958 1274 c 0,14,15
 948 1229 948 1229 908 1197 c 0,16,17
 869 1165 869 1165 823 1165 c 0,0,1
399 1165 m 0,18,19
 353 1165 353 1165 328 1197 c 0,20,21
 306 1226 306 1226 306 1256 c 0,22,23
 306 1265 306 1265 308 1274 c 0,24,25
 317 1312 317 1312 364 1351 c 0,26,27
 403 1383 403 1383 449 1383 c 256,28,29
 495 1383 495 1383 519 1352 c 0,30,31
 536 1330 536 1330 536 1301 c 0,32,33
 536 1288 536 1288 533 1274 c 0,34,35
 523 1229 523 1229 483 1197 c 0,36,37
 444 1165 444 1165 399 1165 c 0,18,19
EndSplineSet
Validated: 1
EndChar

StartChar: copy
Encoding: 169 169 106
Width: 1532
GlyphClass: 2
Flags: W
LayerCount: 2
Fore
SplineSet
1102 1452 m 256,0,1
 1411 1452 1411 1452 1580 1234 c 0,2,3
 1699 1081 1699 1081 1699 884 c 0,4,5
 1699 800 1699 800 1677 708 c 0,6,7
 1606 399 1606 399 1337 181.5 c 128,-1,8
 1068 -36 1068 -36 759 -36 c 256,9,10
 450 -36 450 -36 281 182 c 0,11,12
 162 335 162 335 162 533 c 0,13,14
 162 617 162 617 183 708 c 0,15,16
 255 1016 255 1016 524 1234 c 128,-1,17
 793 1452 793 1452 1102 1452 c 256,0,1
1084 1372 m 256,18,19
 808 1372 808 1372 568 1177.5 c 128,-1,20
 328 983 328 983 264 708 c 0,21,22
 245 626 245 626 245 552 c 0,23,24
 245 375 245 375 351 238 c 0,25,26
 501 44 501 44 777 44 c 256,27,28
 1053 44 1053 44 1293.5 238 c 128,-1,29
 1534 432 1534 432 1597 708 c 0,30,31
 1616 790 1616 790 1616 865 c 0,32,33
 1616 1041 1616 1041 1511 1178 c 1,34,35
 1360 1372 1360 1372 1084 1372 c 256,18,19
1090 1128 m 1,36,-1
 1104 1128 l 2,37,38
 1246 1128 1246 1128 1348 1053 c 1,39,-1
 1300 909 l 2,40,41
 1297 898 1297 898 1286 898 c 2,42,-1
 1283 898 l 2,43,44
 1276 898 1276 898 1272 915 c 0,45,46
 1255 988 1255 988 1207 1023 c 1,47,48
 1161 1055 1161 1055 1081 1055 c 2,49,-1
 1061 1055 l 1,50,51
 965 1050 965 1050 903 1001 c 0,52,53
 849 959 849 959 811 894 c 0,54,55
 775 831 775 831 757 753 c 0,56,57
 751 728 751 728 747 702 c 0,58,59
 740 660 740 660 740 623 c 0,60,61
 740 547 740 547 768 493 c 0,62,63
 824 386 824 386 919 372 c 0,64,65
 934 369 934 369 952 369 c 0,66,67
 1028 369 1028 369 1134 420 c 0,68,69
 1190 448 1190 448 1207 448 c 0,70,71
 1211 448 1211 448 1213 446 c 0,72,73
 1214 444 1214 444 1214 441 c 2,74,-1
 1214 438 l 1,75,76
 1211 426 1211 426 1195 406 c 0,77,78
 1175 379 1175 379 1157 366 c 0,79,80
 1097 321 1097 321 1023 304 c 0,81,82
 952 288 952 288 890 288 c 2,83,-1
 883 288 l 2,84,85
 723 288 723 288 635 377 c 0,86,87
 565 447 565 447 565 564 c 0,88,89
 565 595 565 595 570 629 c 0,90,91
 575 668 575 668 584 705 c 0,92,93
 594 750 594 750 610 792 c 0,94,95
 638 867 638 867 704 943 c 0,96,97
 856 1120 856 1120 1090 1128 c 1,36,-1
EndSplineSet
Validated: 1
EndChar

StartChar: ordf
Encoding: 170 170 107
Width: 686
GlyphClass: 2
Flags: W
LayerCount: 2
Fore
SplineSet
694 900 m 1,0,-1
 515 838 l 2,1,2
 494 831 494 831 483 831 c 0,3,4
 467 831 467 831 458 832 c 0,5,6
 373 835 373 835 328 901 c 1,7,8
 292 952 292 952 292 1021 c 0,9,10
 292 1040 292 1040 295 1061 c 0,11,12
 298 1084 298 1084 303 1106 c 0,13,14
 326 1203 326 1203 384 1271 c 0,15,16
 408 1298 408 1298 450 1326 c 0,17,18
 464 1336 464 1336 484 1342 c 0,19,20
 536 1360 536 1360 588 1378 c 128,-1,21
 640 1396 640 1396 692 1414 c 0,22,23
 703 1418 703 1418 715 1418 c 0,24,25
 755 1415 755 1415 804 1398 c 0,26,27
 814 1394 814 1394 833 1385 c 0,28,29
 841 1381 841 1381 848 1381 c 0,30,31
 857 1381 857 1381 865 1387 c 0,32,33
 893 1409 893 1409 904 1409 c 0,34,35
 906 1409 906 1409 907 1408 c 0,36,37
 916 1403 916 1403 916 1398 c 2,38,-1
 916 1396 l 1,39,40
 908 1360 908 1360 899 1335 c 128,-1,41
 890 1310 890 1310 881 1274 c 0,42,43
 876 1256 876 1256 865 1210 c 2,44,-1
 801 926 l 2,45,46
 799 917 799 917 799 910 c 0,47,48
 799 888 799 888 819 881 c 0,49,50
 843 873 843 873 843 861 c 2,51,-1
 843 858 l 1,52,53
 840 846 840 846 828 846 c 2,54,-1
 693 847 l 2,55,56
 685 847 685 847 685 853 c 2,57,-1
 685 854 l 1,58,-1
 694 900 l 1,0,-1
245 731 m 2,59,-1
 786 731 l 2,60,61
 795 731 795 731 795 724 c 0,62,63
 795 722 795 722 794 720 c 2,64,-1
 782 667 l 2,65,66
 779 655 779 655 768 655 c 2,67,-1
 227 655 l 2,68,69
 217 655 217 655 217 663 c 0,70,71
 217 665 217 665 218 667 c 2,72,-1
 230 720 l 2,73,74
 233 731 233 731 245 731 c 2,59,-1
571 893 m 0,75,76
 586 894 586 894 604 900 c 0,77,78
 649 916 649 916 703 934 c 1,79,-1
 788 1306 l 1,80,81
 737 1365 737 1365 667 1369 c 0,82,83
 653 1369 653 1369 640 1364 c 0,84,85
 616 1356 616 1356 592.5 1348 c 128,-1,86
 569 1340 569 1340 547 1332 c 0,87,88
 532 1327 532 1327 519 1317 c 0,89,90
 473 1278 473 1278 447 1221 c 0,91,92
 428 1180 428 1180 419 1140 c 0,93,94
 416 1125 416 1125 413 1110 c 0,95,96
 409 1083 409 1083 409 1058 c 0,97,98
 409 1008 409 1008 427 970 c 1,99,100
 455 915 455 915 511 898 c 0,101,102
 532 892 532 892 554 892 c 0,103,104
 563 892 563 892 571 893 c 0,75,76
EndSplineSet
Validated: 1
EndChar

StartChar: laquo
Encoding: 171 171 108
Width: 1024
GlyphClass: 2
Flags: W
LayerCount: 2
Fore
SplineSet
245 616 m 0,0,1
 241 620 241 620 241 624 c 0,2,3
 241 625 241 625 242 627 c 0,4,5
 243 633 243 633 251 640 c 0,6,7
 327 712 327 712 457 811 c 128,-1,8
 587 910 587 910 680 988 c 0,9,10
 684 991 684 991 688 991 c 0,11,12
 690 991 690 991 693 990 c 1,13,-1
 724 964 l 1,14,15
 725 961 725 961 725 959 c 2,16,-1
 725 957 l 1,17,18
 724 955 724 955 723 953 c 2,19,-1
 393 629 l 1,20,-1
 574 302 l 2,21,22
 575 300 575 300 575 297 c 0,23,24
 574 294 574 294 568 291 c 2,25,-1
 525 265 l 2,26,27
 522 263 522 263 520 263 c 0,28,29
 516 263 516 263 514 267 c 0,30,31
 447 351 447 351 378.5 439 c 128,-1,32
 310 527 310 527 245 616 c 0,0,1
666 616 m 0,33,34
 663 619 663 619 663 622 c 0,35,36
 663 624 663 624 664 626 c 0,37,38
 665 632 665 632 672 640 c 0,39,40
 748 712 748 712 878 811 c 128,-1,41
 1008 910 1008 910 1101 988 c 0,42,43
 1106 992 1106 992 1109 992 c 256,44,45
 1112 992 1112 992 1114 990 c 2,46,-1
 1145 964 l 1,47,48
 1147 961 1147 961 1147 959 c 2,49,-1
 1147 957 l 1,50,51
 1146 955 1146 955 1144 953 c 2,52,-1
 815 629 l 1,53,-1
 996 302 l 1,54,-1
 996 299 l 1,55,56
 995 294 995 294 989 291 c 2,57,-1
 946 265 l 2,58,59
 944 263 944 263 941 263 c 256,60,61
 938 263 938 263 935 267 c 0,62,63
 869 351 869 351 800 439 c 128,-1,64
 731 527 731 527 666 616 c 0,33,34
EndSplineSet
Validated: 1
EndChar

StartChar: not
Encoding: 172 172 109
Width: 1024
GlyphClass: 2
Flags: W
LayerCount: 2
Fore
SplineSet
1077 341 m 1,0,-1
 960 341 l 1,1,-1
 1060 775 l 1,2,-1
 209 775 l 1,3,-1
 235 887 l 1,4,-1
 1203 887 l 1,5,-1
 1077 341 l 1,0,-1
EndSplineSet
Validated: 1
EndChar

StartChar: shy
Encoding: 173 173 110
Width: 670
GlyphClass: 2
Flags: W
LayerCount: 2
Fore
SplineSet
250 409 m 2,0,1
 216 409 216 409 216 429 c 0,2,3
 216 433 216 433 217 437 c 2,4,-1
 236 520 l 2,5,6
 243 549 243 549 284 549 c 2,7,-1
 640 549 l 2,8,9
 675 549 675 549 675 528 c 0,10,11
 675 524 675 524 674 520 c 2,12,-1
 655 437 l 2,13,14
 648 409 648 409 608 409 c 2,15,-1
 250 409 l 2,0,1
EndSplineSet
Validated: 1
EndChar

StartChar: reg
Encoding: 174 174 111
Width: 1530
GlyphClass: 2
Flags: W
LayerCount: 2
Fore
SplineSet
1003 688 m 1,0,-1
 1189 338 l 1,1,2
 1203 324 1203 324 1228 322 c 1,3,4
 1242 319 1242 319 1242 311 c 2,5,-1
 1242 307 l 1,6,7
 1238 295 1238 295 1227 295 c 2,8,-1
 1070 295 l 2,9,10
 1059 295 1059 295 985 450.5 c 128,-1,11
 911 606 911 606 866 688 c 1,12,-1
 772 688 l 1,13,-1
 701 381 l 2,14,15
 699 372 699 372 699 364 c 0,16,17
 699 340 699 340 719 333 c 1,18,19
 743 323 743 323 743 311 c 2,20,-1
 743 308 l 1,21,22
 740 295 740 295 727 295 c 2,23,-1
 528 295 l 2,24,25
 518 295 518 295 518 303 c 0,26,27
 518 305 518 305 519 308 c 0,28,29
 522 322 522 322 554 332.5 c 128,-1,30
 586 343 586 343 595 381 c 2,31,-1
 746 1034 l 2,32,33
 748 1043 748 1043 748 1050 c 0,34,35
 748 1074 748 1074 727 1083 c 1,36,37
 703 1092 703 1092 703 1104 c 0,38,39
 703 1106 703 1106 704 1108 c 0,40,41
 707 1120 707 1120 719 1120 c 2,42,-1
 1066 1121 l 2,43,44
 1127 1121 1127 1121 1187.5 1099.5 c 128,-1,45
 1248 1078 1248 1078 1270 1016 c 0,46,47
 1278 991 1278 991 1278 960 c 0,48,49
 1278 931 1278 931 1271 896 c 1,50,51
 1253 829 1253 829 1204 777 c 1,52,53
 1166 735 1166 735 1108.5 713 c 128,-1,54
 1051 691 1051 691 1003 688 c 1,0,-1
1102 1452 m 256,55,56
 1411 1452 1411 1452 1580 1234 c 0,57,58
 1699 1081 1699 1081 1699 884 c 0,59,60
 1699 800 1699 800 1677 708 c 0,61,62
 1606 399 1606 399 1337 181.5 c 128,-1,63
 1068 -36 1068 -36 759 -36 c 256,64,65
 450 -36 450 -36 281 182 c 0,66,67
 162 335 162 335 162 533 c 0,68,69
 162 617 162 617 183 708 c 0,70,71
 255 1016 255 1016 524 1234 c 128,-1,72
 793 1452 793 1452 1102 1452 c 256,55,56
860 1072 m 1,73,-1
 781 729 l 1,74,-1
 917 729 l 2,75,76
 1016 729 1016 729 1084 782 c 0,77,78
 1141 827 1141 827 1158 902 c 0,79,80
 1163 924 1163 924 1163 944 c 0,81,82
 1163 989 1163 989 1137 1022 c 0,83,84
 1096 1072 1096 1072 1008 1072 c 2,85,-1
 860 1072 l 1,73,-1
1084 1372 m 256,86,87
 808 1372 808 1372 568 1177.5 c 128,-1,88
 328 983 328 983 264 708 c 0,89,90
 245 626 245 626 245 552 c 0,91,92
 245 375 245 375 351 238 c 0,93,94
 501 44 501 44 777 44 c 256,95,96
 1053 44 1053 44 1293.5 238 c 128,-1,97
 1534 432 1534 432 1597 708 c 0,98,99
 1616 790 1616 790 1616 865 c 0,100,101
 1616 1041 1616 1041 1511 1178 c 1,102,103
 1360 1372 1360 1372 1084 1372 c 256,86,87
EndSplineSet
Validated: 1
EndChar

StartChar: macr
Encoding: 175 175 112
Width: 680
GlyphClass: 2
Flags: W
LayerCount: 2
Fore
SplineSet
362 1347 m 2,0,-1
 961 1347 l 2,1,2
 970 1347 970 1347 970 1340 c 2,3,-1
 970 1337 l 1,4,-1
 950 1251 l 2,5,6
 947 1240 947 1240 936 1240 c 2,7,-1
 337 1240 l 2,8,9
 328 1240 328 1240 328 1247 c 0,10,11
 328 1249 328 1249 329 1251 c 2,12,-1
 349 1337 l 2,13,14
 351 1347 351 1347 362 1347 c 2,0,-1
EndSplineSet
Validated: 1
EndChar

StartChar: deg
Encoding: 176 176 113
Width: 819
GlyphClass: 2
Flags: W
LayerCount: 2
Fore
SplineSet
726 1387 m 0,0,1
 854 1387 854 1387 924 1297 c 0,2,3
 973 1233 973 1233 973 1150 c 0,4,5
 973 1116 973 1116 964 1078 c 0,6,7
 934 950 934 950 823 859.5 c 128,-1,8
 712 769 712 769 584 769 c 0,9,10
 455 769 455 769 386 860 c 0,11,12
 337 923 337 923 337 1004 c 0,13,14
 337 1039 337 1039 346 1078 c 0,15,16
 375 1206 375 1206 486 1296.5 c 128,-1,17
 597 1387 597 1387 726 1387 c 0,0,1
707 1305 m 0,18,19
 613 1305 613 1305 531.5 1238 c 128,-1,20
 450 1171 450 1171 429 1078 c 0,21,22
 422 1050 422 1050 422 1024 c 0,23,24
 422 964 422 964 458 918 c 0,25,26
 509 852 509 852 603 852 c 0,27,28
 696 852 696 852 777.5 918 c 128,-1,29
 859 984 859 984 881 1078 c 0,30,31
 887 1105 887 1105 887 1130 c 0,32,33
 887 1191 887 1191 851 1238 c 0,34,35
 800 1305 800 1305 707 1305 c 0,18,19
EndSplineSet
Validated: 1
EndChar

StartChar: plusmn
Encoding: 177 177 114
Width: 1024
GlyphClass: 2
Flags: W
LayerCount: 2
Fore
SplineSet
386 806 m 2,0,-1
 665 806 l 1,1,-1
 730 1086 l 2,2,3
 738 1122 738 1122 765 1122 c 2,4,-1
 817 1122 l 2,5,6
 838 1122 838 1122 838 1101 c 0,7,8
 838 1094 838 1094 836 1086 c 2,9,-1
 771 806 l 1,10,-1
 1050 806 l 2,11,12
 1082 806 1082 806 1082 787 c 0,13,14
 1082 784 1082 784 1081 780 c 2,15,-1
 1069 727 l 2,16,17
 1063 701 1063 701 1026 701 c 2,18,-1
 747 701 l 1,19,-1
 682 422 l 2,20,21
 674 385 674 385 647 385 c 2,22,-1
 595 385 l 2,23,24
 574 385 574 385 574 407 c 0,25,26
 574 414 574 414 576 422 c 2,27,-1
 641 701 l 1,28,-1
 362 701 l 2,29,30
 330 701 330 701 330 720 c 0,31,32
 330 723 330 723 331 727 c 2,33,-1
 343 780 l 2,34,35
 349 806 349 806 386 806 c 2,0,-1
255 238 m 2,36,-1
 919 238 l 2,37,38
 951 238 951 238 951 218 c 0,39,40
 951 215 951 215 950 211 c 2,41,-1
 938 159 l 2,42,43
 931 132 931 132 894 132 c 2,44,-1
 230 132 l 2,45,46
 199 132 199 132 199 151 c 0,47,48
 199 155 199 155 200 159 c 2,49,-1
 212 211 l 2,50,51
 218 238 218 238 255 238 c 2,36,-1
EndSplineSet
Validated: 1
EndChar

StartChar: sup2
Encoding: 178 178 115
Width: 735
GlyphClass: 2
Flags: W
LayerCount: 2
Fore
SplineSet
212 451 m 1,0,-1
 224 502 l 2,1,2
 237 557 237 557 279 598 c 0,3,4
 322 640 322 640 412 718 c 1,5,6
 463 759 463 759 515.5 805.5 c 128,-1,7
 568 852 568 852 617 897 c 0,8,9
 684 959 684 959 729 1030 c 0,10,11
 759 1077 759 1077 768 1117 c 0,12,13
 772 1135 772 1135 772 1151 c 0,14,15
 772 1170 772 1170 767 1186 c 0,16,17
 748 1250 748 1250 688 1275 c 0,18,19
 655 1289 655 1289 614 1289 c 0,20,21
 584 1289 584 1289 549 1281 c 0,22,23
 467 1262 467 1262 402 1190 c 1,24,25
 375 1162 375 1162 364 1137 c 1,26,-1
 386 1230 l 1,27,28
 393 1245 393 1245 406 1261 c 0,29,30
 492 1363 492 1363 623 1383 c 0,31,32
 650 1387 650 1387 676 1387 c 0,33,34
 762 1387 762 1387 831 1343 c 1,35,36
 897 1299 897 1299 897 1214 c 0,37,38
 897 1186 897 1186 890 1153 c 1,39,-1
 889 1149 l 1,40,41
 848 972 848 972 657 833 c 0,42,43
 463 691 463 691 361 567 c 1,44,-1
 599 567 l 2,45,46
 686 567 686 567 764 594 c 1,47,-1
 737 478 l 1,48,49
 695 454 695 454 652 452.5 c 128,-1,50
 609 451 609 451 572 451 c 2,51,-1
 212 451 l 1,0,-1
EndSplineSet
Validated: 1
EndChar

StartChar: sup3
Encoding: 179 179 116
Width: 735
GlyphClass: 2
Flags: W
LayerCount: 2
Fore
SplineSet
585 483 m 0,0,1
 502 432 502 432 395 422 c 0,2,3
 378 420 378 420 363 420 c 0,4,5
 279 420 279 420 229 468 c 1,6,-1
 253 585 l 1,7,8
 274 513 274 513 363 490 c 0,9,10
 396 481 396 481 429 481 c 0,11,12
 482 481 482 481 532 504 c 0,13,14
 607 539 607 539 648 606 c 0,15,16
 669 642 669 642 678 678 c 0,17,18
 683 700 683 700 683 721 c 0,19,20
 683 730 683 730 682 739 c 0,21,22
 676 805 676 805 621.5 854 c 128,-1,23
 567 903 567 903 456 905 c 1,24,-1
 459 924 l 1,25,26
 508 938 508 938 571 963.5 c 128,-1,27
 634 989 634 989 679 1043 c 0,28,29
 713 1085 713 1085 723 1127 c 0,30,31
 726 1140 726 1140 727 1153 c 1,32,-1
 727 1164 l 2,33,34
 727 1212 727 1212 703 1245 c 0,35,36
 671 1288 671 1288 608 1295 c 1,37,-1
 594 1295 l 2,38,39
 536 1295 536 1295 467 1244 c 0,40,41
 427 1214 427 1214 406 1166 c 1,42,-1
 432 1278 l 1,43,44
 555 1384 555 1384 683 1384 c 1,45,46
 831 1382 831 1382 854 1264 c 0,47,48
 857 1249 857 1249 857 1234 c 0,49,50
 857 1215 857 1215 852 1196 c 0,51,52
 833 1112 833 1112 726 1030 c 0,53,54
 707 1015 707 1015 674 994 c 1,55,56
 759 947 759 947 784 874 c 0,57,58
 797 836 797 836 797 797 c 0,59,60
 797 769 797 769 790 740 c 0,61,62
 788 730 788 730 784 720 c 0,63,64
 740 580 740 580 585 483 c 0,0,1
EndSplineSet
Validated: 1
EndChar

StartChar: acute
Encoding: 180 180 117
Width: 682
GlyphClass: 2
Flags: W
LayerCount: 2
Fore
SplineSet
469 1124 m 2,0,1
 420 1097 420 1097 394 1097 c 0,2,3
 391 1097 391 1097 388 1098 c 0,4,5
 381 1099 381 1099 381 1105 c 2,6,-1
 381 1106 l 1,7,8
 384 1119 384 1119 429 1156 c 2,9,-1
 578 1280 l 2,10,11
 607 1305 607 1305 687 1372 c 128,-1,12
 767 1439 767 1439 795 1454 c 0,13,14
 817 1466 817 1466 838 1466 c 0,15,16
 855 1466 855 1466 872 1458 c 0,17,18
 899 1445 899 1445 899 1414 c 0,19,20
 899 1404 899 1404 896 1393 c 0,21,22
 889 1366 889 1366 864 1345 c 128,-1,23
 839 1324 839 1324 815 1311 c 2,24,-1
 469 1124 l 2,0,1
EndSplineSet
Validated: 1
EndChar

StartChar: micro
Encoding: 181 181 118
Width: 1325
GlyphClass: 2
Flags: W
LayerCount: 2
Fore
SplineSet
1064 752 m 2,0,1
 1067 766 1067 766 1067 779 c 0,2,3
 1067 819 1067 819 1031 833 c 0,4,5
 989 849 989 849 989 871 c 0,6,7
 989 874 989 874 990 877 c 0,8,9
 995 898 995 898 1016 898 c 0,10,11
 1072 900 1072 900 1135 915 c 1,12,13
 1208 930 1208 930 1291 958 c 1,14,-1
 1103 142 l 2,15,16
 1099 127 1099 127 1099 114 c 0,17,18
 1099 73 1099 73 1136 62 c 0,19,20
 1179 48 1179 48 1179 26 c 0,21,22
 1179 24 1179 24 1178 21 c 0,23,24
 1173 0 1173 0 1152 0 c 2,25,-1
 889 0 l 1,26,-1
 909 87 l 1,27,-1
 683 6 l 2,28,29
 618 -17 618 -17 559 -17 c 0,30,31
 543 -17 543 -17 528 -15 c 0,32,33
 454 -7 454 -7 406 24 c 0,34,35
 328 73 328 73 307 139 c 1,36,37
 295 85 295 85 285 22 c 2,38,-1
 204 -532 l 1,39,-1
 204 -534 l 1,40,41
 199 -553 199 -553 179 -553 c 2,42,-1
 87 -553 l 2,43,44
 71 -553 71 -553 71 -540 c 0,45,46
 71 -536 71 -536 72 -532 c 2,47,-1
 382 811 l 1,48,49
 364 835 364 835 338 847 c 0,50,51
 314 857 314 857 314 872 c 0,52,53
 314 875 314 875 315 877 c 0,54,55
 320 898 320 898 341 898 c 1,56,57
 401 901 401 901 461 916 c 1,58,59
 499 923 499 923 534.5 934.5 c 128,-1,60
 570 946 570 946 609 958 c 1,61,-1
 486 424 l 2,62,63
 469 350 469 350 469 289 c 0,64,65
 469 205 469 205 502 149 c 0,66,67
 550 67 550 67 648 67 c 0,68,69
 699 67 699 67 765 89 c 2,70,-1
 923 143 l 1,71,-1
 1064 752 l 2,0,1
EndSplineSet
Validated: 1
EndChar

StartChar: para
Encoding: 182 182 119
Width: 1266
GlyphClass: 2
Flags: W
LayerCount: 2
Fore
SplineSet
986 1337 m 1,0,-1
 623 -234 l 1,1,-1
 883 -234 l 1,2,-1
 1246 1337 l 1,3,-1
 986 1337 l 1,0,-1
713 797 m 1,4,5
 661 781 661 781 613 781 c 0,6,7
 489 781 489 781 424 873 c 1,8,9
 378 936 378 936 378 1017 c 0,10,11
 378 1053 378 1053 387 1093 c 0,12,13
 417 1221 417 1221 525 1312 c 128,-1,14
 633 1403 633 1403 756 1404 c 1,15,-1
 1505 1404 l 2,16,17
 1526 1404 1526 1404 1526 1387 c 0,18,19
 1526 1384 1526 1384 1525 1379 c 0,20,21
 1518 1348 1518 1348 1452 1326 c 128,-1,22
 1386 1304 1386 1304 1368 1226 c 2,23,-1
 1057 -122 l 2,24,25
 1053 -141 1053 -141 1053 -157 c 0,26,27
 1053 -205 1053 -205 1095 -222 c 0,28,29
 1145 -242 1145 -242 1145 -268 c 0,30,31
 1145 -272 1145 -272 1144 -275 c 0,32,33
 1138 -300 1138 -300 1112 -300 c 2,34,-1
 364 -300 l 2,35,36
 343 -300 343 -300 343 -283 c 0,37,38
 343 -280 343 -280 344 -275 c 0,39,40
 351 -244 351 -244 417 -222 c 128,-1,41
 483 -200 483 -200 501 -122 c 2,42,-1
 713 797 l 1,4,5
EndSplineSet
Validated: 1
EndChar

StartChar: middot
Encoding: 183 183 120
Width: 512
GlyphClass: 2
Flags: W
LayerCount: 2
Fore
SplineSet
370 496 m 256,0,1
 319 496 319 496 292 532 c 1,2,3
 272 556 272 556 272 588 c 0,4,5
 272 603 272 603 276 618 c 0,6,7
 287 668 287 668 331 704 c 128,-1,8
 375 740 375 740 426 740 c 256,9,10
 477 740 477 740 504 704 c 0,11,12
 523 678 523 678 523 646 c 0,13,14
 523 632 523 632 520 618 c 0,15,16
 508 567 508 567 464.5 531.5 c 128,-1,17
 421 496 421 496 370 496 c 256,0,1
EndSplineSet
Validated: 1
EndChar

StartChar: cedil
Encoding: 184 184 121
Width: 1011
GlyphClass: 2
Flags: W
LayerCount: 2
Fore
SplineSet
384 -5 m 1,0,-1
 441 -5 l 1,1,2
 429 -27 429 -27 424 -46 c 0,3,4
 422 -55 422 -55 422 -64 c 0,5,6
 422 -84 422 -84 434 -99 c 0,7,8
 462 -132 462 -132 494 -166 c 0,9,10
 527 -200 527 -200 527 -249 c 0,11,12
 527 -268 527 -268 522 -289 c 2,13,-1
 520 -298 l 1,14,15
 497 -380 497 -380 376 -389 c 1,16,-1
 361 -389 l 2,17,18
 303 -389 303 -389 229 -362 c 1,19,-1
 230 -294 l 1,20,21
 271 -328 271 -328 315 -328 c 0,22,23
 349 -328 349 -328 385 -307 c 0,24,25
 420 -287 420 -287 426 -258 c 0,26,27
 428 -251 428 -251 428 -244 c 0,28,29
 428 -212 428 -212 396 -171 c 1,30,31
 370 -141 370 -141 354 -99 c 0,32,33
 350 -89 350 -89 350 -78 c 0,34,35
 350 -70 350 -70 352 -61 c 0,36,37
 358 -35 358 -35 384 -5 c 1,0,-1
EndSplineSet
Validated: 1
EndChar

StartChar: sup1
Encoding: 185 185 122
Width: 668
GlyphClass: 2
Flags: W
LayerCount: 2
Fore
SplineSet
336 451 m 2,0,1
 325 451 325 451 325 460 c 0,2,3
 325 462 325 462 326 464 c 0,4,5
 330 480 330 480 364.5 491.5 c 128,-1,6
 399 503 399 503 409 545 c 2,7,-1
 573 1258 l 1,8,-1
 442 1258 l 1,9,-1
 450 1289 l 2,10,11
 456 1316 456 1316 595 1351 c 0,12,13
 630 1360 630 1360 664 1368.5 c 128,-1,14
 698 1377 698 1377 719 1383 c 1,15,-1
 526 545 l 2,16,17
 523 534 523 534 523 526 c 0,18,19
 523 500 523 500 546 492 c 1,20,21
 571 481 571 481 571 468 c 2,22,-1
 571 464 l 1,23,24
 568 451 568 451 555 451 c 2,25,-1
 336 451 l 2,0,1
EndSplineSet
Validated: 1
EndChar

StartChar: ordm
Encoding: 186 186 123
Width: 682
GlyphClass: 2
Flags: W
LayerCount: 2
Fore
SplineSet
668 1429 m 0,0,1
 793 1429 793 1429 861 1338 c 0,2,3
 908 1275 908 1275 908 1194 c 0,4,5
 908 1158 908 1158 899 1119 c 0,6,7
 870 990 870 990 760 899 c 128,-1,8
 650 808 650 808 525 808 c 0,9,10
 399 808 399 808 331 899 c 0,11,12
 283 963 283 963 283 1045 c 0,13,14
 283 1080 283 1080 292 1119 c 0,15,16
 322 1247 322 1247 432 1338 c 128,-1,17
 542 1429 542 1429 668 1429 c 0,0,1
246 730 m 2,18,-1
 769 730 l 2,19,20
 779 730 779 730 779 722 c 0,21,22
 779 720 779 720 778 718 c 2,23,-1
 764 660 l 2,24,25
 761 647 761 647 749 647 c 2,26,-1
 226 647 l 2,27,28
 216 647 216 647 216 655 c 0,29,30
 216 657 216 657 217 660 c 2,31,-1
 231 718 l 2,32,33
 234 730 234 730 246 730 c 2,18,-1
645 1385 m 0,34,35
 567 1385 567 1385 499 1307 c 0,36,37
 438 1237 438 1237 416 1142 c 0,38,39
 413 1131 413 1131 411 1119 c 0,40,41
 404 1082 404 1082 404 1049 c 0,42,43
 404 982 404 982 432 931 c 1,44,45
 472 853 472 853 550 853 c 0,46,47
 626 853 626 853 695 931 c 0,48,49
 757 1000 757 1000 779 1096 c 0,50,51
 782 1107 782 1107 783 1119 c 1,52,53
 790 1155 790 1155 790 1188 c 0,54,55
 790 1255 790 1255 763 1307 c 0,56,57
 722 1385 722 1385 645 1385 c 0,34,35
EndSplineSet
Validated: 1
EndChar

StartChar: raquo
Encoding: 187 187 124
Width: 1024
GlyphClass: 2
Flags: W
LayerCount: 2
Fore
SplineSet
1064 616 m 0,0,1
 958 527 958 527 848.5 439 c 128,-1,2
 739 351 739 351 635 267 c 0,3,4
 630 263 630 263 627 263 c 256,5,6
 624 263 624 263 622 265 c 2,7,-1
 591 291 l 2,8,9
 588 293 588 293 588 296 c 2,10,-1
 588 297 l 2,11,12
 588 300 588 300 591 302 c 2,13,-1
 922 629 l 1,14,-1
 742 953 l 2,15,16
 741 954 741 954 741 956 c 2,17,-1
 741 957 l 1,18,19
 742 960 742 960 747 964 c 2,20,-1
 790 990 l 2,21,22
 792 991 792 991 795 991 c 256,23,24
 798 991 798 991 801 988 c 0,25,26
 858 910 858 910 941.5 811 c 128,-1,27
 1025 712 1025 712 1070 640 c 0,28,29
 1073 634 1073 634 1073 629 c 2,30,-1
 1073 627 l 1,31,32
 1071 621 1071 621 1064 616 c 0,0,1
643 616 m 0,33,34
 537 527 537 527 427.5 439 c 128,-1,35
 318 351 318 351 214 267 c 0,36,37
 209 263 209 263 206 263 c 256,38,39
 203 263 203 263 201 265 c 2,40,-1
 170 291 l 2,41,42
 167 293 167 293 167 297 c 2,43,-1
 167 298 l 2,44,45
 167 300 167 300 169 302 c 2,46,-1
 501 629 l 1,47,-1
 321 953 l 2,48,49
 320 954 320 954 320 956 c 2,50,-1
 320 957 l 1,51,52
 321 960 321 960 326 964 c 2,53,-1
 369 990 l 2,54,55
 371 992 371 992 374 992 c 256,56,57
 377 992 377 992 380 988 c 0,58,59
 437 910 437 910 520.5 811 c 128,-1,60
 604 712 604 712 649 640 c 1,61,62
 651 634 651 634 651 629 c 2,63,-1
 651 626 l 1,64,65
 649 620 649 620 643 616 c 0,33,34
EndSplineSet
Validated: 1
EndChar

StartChar: frac14
Encoding: 188 188 125
Width: 1350
GlyphClass: 2
Flags: W
LayerCount: 2
Fore
SplineSet
1498 1400 m 1,0,-1
 1609 1400 l 1,1,-1
 132 0 l 1,2,-1
 20 0 l 1,3,-1
 1498 1400 l 1,0,-1
1344 663 m 1,4,-1
 1251 262 l 1,5,-1
 1345 262 l 1,6,-1
 1330 195 l 1,7,-1
 1236 195 l 1,8,-1
 1211 86 l 2,9,10
 1210 81 1210 81 1210 76 c 0,11,12
 1210 50 1210 50 1247 38 c 0,13,14
 1288 24 1288 24 1288 12 c 2,15,-1
 1288 10 l 1,16,17
 1286 0 1286 0 1275 0 c 2,18,-1
 1015 0 l 2,19,20
 1007 0 1007 0 1007 7 c 2,21,-1
 1007 10 l 1,22,23
 1010 23 1010 23 1061.5 37 c 128,-1,24
 1113 51 1113 51 1120 84 c 2,25,-1
 1147 195 l 1,26,-1
 876 195 l 1,27,-1
 889 250 l 1,28,-1
 1255 663 l 1,29,-1
 1344 663 l 1,4,-1
1164 262 m 1,30,-1
 1240 588 l 1,31,-1
 1238 588 l 1,32,-1
 956 267 l 1,33,-1
 954 262 l 1,34,-1
 1164 262 l 1,30,-1
715 1400 m 5,35,-1
 580 814 l 6,36,37
 579 809 579 809 579 804 c 4,38,39
 579 778 579 778 616 766 c 4,40,41
 656 752 656 752 656 740 c 6,42,-1
 656 738 l 5,43,44
 654 727 654 727 643 727 c 6,45,-1
 383 727 l 6,46,47
 375 727 375 727 375 735 c 6,48,-1
 375 738 l 5,49,50
 378 751 378 751 428.5 765.5 c 132,-1,51
 479 780 479 780 487 813 c 6,52,-1
 598 1293 l 5,53,-1
 598 1297 l 6,54,55
 598 1319 598 1319 543 1325 c 5,56,57
 502 1328 502 1328 502 1335 c 5,58,59
 505 1347 505 1347 515 1349 c 6,60,-1
 715 1400 l 5,35,-1
EndSplineSet
Validated: 1
EndChar

StartChar: frac12
Encoding: 189 189 126
Width: 1312
GlyphClass: 2
Flags: W
LayerCount: 2
Fore
SplineSet
715 1400 m 1,0,-1
 580 814 l 2,1,2
 579 809 579 809 579 804 c 0,3,4
 579 778 579 778 616 766 c 0,5,6
 656 752 656 752 656 740 c 2,7,-1
 656 738 l 1,8,9
 654 727 654 727 643 727 c 2,10,-1
 383 727 l 2,11,12
 375 727 375 727 375 735 c 2,13,-1
 375 738 l 1,14,15
 378 751 378 751 428.5 765.5 c 128,-1,16
 479 780 479 780 487 813 c 2,17,-1
 598 1293 l 1,18,-1
 598 1297 l 2,19,20
 598 1319 598 1319 543 1325 c 1,21,22
 502 1328 502 1328 502 1335 c 1,23,24
 505 1347 505 1347 515 1349 c 2,25,-1
 715 1400 l 1,0,-1
1456 1362 m 1,26,-1
 1564 1362 l 1,27,-1
 128 0 l 1,28,-1
 19 0 l 1,29,-1
 1456 1362 l 1,26,-1
866 6 m 5,30,-1
 874 40 l 6,31,32
 884 81 884 81 915 111 c 132,-1,33
 946 141 946 141 1010 197 c 5,34,35
 1078 252 1078 252 1157 326 c 4,36,37
 1204 369 1204 369 1237 421 c 4,38,39
 1261 460 1261 460 1269 492 c 4,40,41
 1272 505 1272 505 1272 517 c 4,42,43
 1272 572 1272 572 1209 597 c 5,44,45
 1176 609 1176 609 1145 609 c 4,46,47
 1070 609 1070 609 1003 536 c 4,48,49
 982 512 982 512 976 498 c 5,50,-1
 991 561 l 5,51,-1
 990 562 l 6,52,53
 991 562 991 562 1005 586 c 5,54,55
 1066 659 1066 659 1162 674 c 4,56,57
 1181 677 1181 677 1199 677 c 4,58,59
 1261 677 1261 677 1311 645 c 4,60,61
 1358 614 1358 614 1358 552 c 4,62,63
 1358 532 1358 532 1353 509 c 5,64,-1
 1352 507 l 5,65,66
 1323 380 1323 380 1186 280 c 4,67,68
 1046 178 1046 178 974 89 c 5,69,-1
 1145 89 l 6,70,71
 1206 89 1206 89 1262 109 c 5,72,-1
 1243 25 l 5,73,74
 1213 8 1213 8 1182 7 c 132,-1,75
 1151 6 1151 6 1125 6 c 6,76,-1
 866 6 l 5,30,-1
EndSplineSet
Validated: 1
EndChar

StartChar: frac34
Encoding: 190 190 127
Width: 1312
GlyphClass: 2
Flags: W
LayerCount: 2
Fore
SplineSet
1456 1362 m 1,0,-1
 1564 1362 l 1,1,-1
 128 0 l 1,2,-1
 19 0 l 1,3,-1
 1456 1362 l 1,0,-1
563 734 m 0,4,5
 503 697 503 697 425 690 c 0,6,7
 413 688 413 688 403 688 c 0,8,9
 341 688 341 688 304 724 c 1,10,-1
 322 808 l 1,11,12
 337 756 337 756 402 739 c 0,13,14
 425 733 425 733 449 733 c 0,15,16
 488 733 488 733 525 750 c 0,17,18
 580 775 580 775 609 824 c 0,19,20
 624 850 624 850 630 876 c 0,21,22
 634 892 634 892 634 907 c 0,23,24
 634 914 634 914 633 920 c 0,25,26
 629 968 629 968 589.5 1004 c 128,-1,27
 550 1040 550 1040 470 1042 c 1,28,-1
 473 1055 l 1,29,30
 507 1065 507 1065 553.5 1084 c 128,-1,31
 600 1103 600 1103 632 1142 c 0,32,33
 661 1177 661 1177 668 1209 c 0,34,35
 671 1220 671 1220 671 1231 c 0,36,37
 671 1261 671 1261 650 1289 c 0,38,39
 626 1320 626 1320 579 1325 c 0,40,41
 574 1326 574 1326 569 1326 c 0,42,43
 526 1326 526 1326 477 1288 c 0,44,45
 448 1265 448 1265 433 1232 c 1,46,-1
 452 1313 l 1,47,48
 541 1390 541 1390 635 1390 c 1,49,50
 742 1388 742 1388 759 1302 c 0,51,52
 761 1292 761 1292 761 1282 c 0,53,54
 761 1267 761 1267 757 1253 c 0,55,56
 743 1192 743 1192 666 1132 c 0,57,58
 657 1126 657 1126 648 1119 c 128,-1,59
 639 1112 639 1112 629 1106 c 1,60,61
 719 1055 719 1055 719 969 c 0,62,63
 719 949 719 949 714 926 c 0,64,65
 712 917 712 917 708 907 c 0,66,67
 676 805 676 805 563 734 c 0,4,5
1307 644 m 1,68,-1
 1217 255 l 1,69,-1
 1309 255 l 1,70,-1
 1294 190 l 1,71,-1
 1202 190 l 1,72,-1
 1177 83 l 2,73,74
 1176 78 1176 78 1176 74 c 0,75,76
 1176 48 1176 48 1213 36 c 0,77,78
 1252 23 1252 23 1252 12 c 2,79,-1
 1252 10 l 1,80,81
 1250 0 1250 0 1240 0 c 2,82,-1
 987 0 l 2,83,84
 979 0 979 0 979 7 c 2,85,-1
 979 10 l 1,86,87
 982 22 982 22 1032 35.5 c 128,-1,88
 1082 49 1082 49 1090 82 c 2,89,-1
 1115 190 l 1,90,-1
 852 190 l 1,91,-1
 864 243 l 1,92,-1
 1220 644 l 1,93,-1
 1307 644 l 1,68,-1
1132 255 m 1,94,-1
 1205 572 l 1,95,-1
 1203 572 l 1,96,-1
 929 260 l 1,97,-1
 928 255 l 1,98,-1
 1132 255 l 1,94,-1
EndSplineSet
Validated: 1
EndChar

StartChar: iquest
Encoding: 191 191 128
Width: 800
GlyphClass: 2
Flags: W
LayerCount: 2
Fore
SplineSet
502 395 m 1,0,-1
 467 229 l 2,1,2
 458 189 458 189 458 161 c 0,3,4
 458 141 458 141 463 127 c 1,5,6
 472 94 472 94 522 58 c 1,7,8
 528 52 528 52 537 46 c 128,-1,9
 546 40 546 40 557 32 c 0,10,11
 668 -46 668 -46 668 -162 c 0,12,13
 668 -192 668 -192 660 -225 c 0,14,15
 631 -353 631 -353 529 -425 c 1,16,17
 428 -498 428 -498 278 -498 c 0,18,19
 133 -498 133 -498 66 -423 c 0,20,21
 20 -371 20 -371 20 -293 c 0,22,23
 20 -258 20 -258 29 -219 c 0,24,25
 36 -190 36 -190 54 -177 c 0,26,27
 72 -165 72 -165 106 -165 c 0,28,29
 138 -165 138 -165 153 -177 c 0,30,31
 165 -187 165 -187 165 -204 c 0,32,33
 165 -207 165 -207 164 -211 c 0,34,35
 155 -268 155 -268 155 -310 c 0,36,37
 155 -361 155 -361 168 -388 c 0,38,39
 193 -436 193 -436 269 -436 c 0,40,41
 356 -436 356 -436 412 -384 c 0,42,43
 467 -332 467 -332 492 -225 c 0,44,45
 502 -182 502 -182 502 -144 c 0,46,47
 502 -96 502 -96 486 -56 c 0,48,49
 457 13 457 13 357 97 c 1,50,-1
 426 394 l 2,51,52
 438 444 438 444 454 472 c 256,53,54
 470 500 470 500 487 500 c 0,55,56
 506 500 506 500 510 475 c 1,57,-1
 510 465 l 2,58,59
 510 438 510 438 502 395 c 1,0,-1
501 624 m 2,60,61
 441 624 441 624 441 673 c 0,62,63
 441 684 441 684 444 698 c 2,64,-1
 459 761 l 2,65,66
 476 835 476 835 550 835 c 2,67,-1
 613 835 l 2,68,69
 673 835 673 835 673 786 c 0,70,71
 673 775 673 775 670 761 c 2,72,-1
 655 698 l 2,73,74
 638 624 638 624 564 624 c 2,75,-1
 501 624 l 2,60,61
EndSplineSet
Validated: 1
EndChar

StartChar: Agrave
Encoding: 192 192 129
Width: 1593
GlyphClass: 2
Flags: W
LayerCount: 2
Fore
SplineSet
1167 1427 m 1,0,1
 1190 1309 1190 1309 1224 1138 c 128,-1,2
 1258 967 1258 967 1295 786 c 128,-1,3
 1332 605 1332 605 1366 434 c 128,-1,4
 1400 263 1400 263 1424 146 c 1,5,6
 1430 109 1430 109 1467 79 c 0,7,8
 1487 64 1487 64 1507 54 c 128,-1,9
 1527 44 1527 44 1539 35 c 0,10,11
 1547 28 1547 28 1549 21 c 0,12,13
 1550 19 1550 19 1550 17 c 256,14,15
 1550 15 1550 15 1549 13 c 0,16,17
 1548 10 1548 10 1545 6 c 0,18,19
 1541 0 1541 0 1532 0 c 2,20,-1
 1194 0 l 2,21,22
 1185 0 1185 0 1177 6 c 0,23,24
 1169 13 1169 13 1169 21 c 1,25,26
 1168 24 1168 24 1168 27 c 0,27,28
 1170 36 1170 36 1185 46 c 1,29,30
 1196 55 1196 55 1211 65 c 128,-1,31
 1226 75 1226 75 1236 92 c 0,32,33
 1241 100 1241 100 1243 110 c 256,34,35
 1245 120 1245 120 1245 130 c 0,36,37
 1245 138 1245 138 1244 147 c 2,38,-1
 1175 489 l 1,39,-1
 592 489 l 1,40,41
 536 403 536 403 481 317.5 c 128,-1,42
 426 232 426 232 370 147 c 0,43,44
 356 127 356 127 352 111 c 1,45,46
 349 104 349 104 347 97 c 0,47,48
 346 90 346 90 346 84 c 2,49,-1
 346 78 l 2,50,51
 346 65 346 65 351 56.5 c 128,-1,52
 356 48 356 48 357 39 c 1,53,54
 356 31 356 31 355 28 c 0,55,56
 355 25 355 25 352 21 c 0,57,58
 340 0 340 0 325 0 c 2,59,-1
 67 0 l 2,60,61
 57 0 57 0 54 6 c 1,62,63
 55 7 55 7 55 8 c 256,64,65
 55 9 55 9 54 11 c 0,66,67
 54 13 54 13 58 21 c 1,68,69
 67 34 67 34 98 47 c 0,70,71
 114 54 114 54 133.5 62.5 c 128,-1,72
 153 71 153 71 174 83 c 0,73,74
 217 109 217 109 243 146 c 2,75,-1
 1105 1427 l 1,76,-1
 1167 1427 l 1,0,1
1305 1581 m 2,77,-1
 1046 1768 l 2,78,79
 1028 1781 1028 1781 1013 1802 c 1,80,81
 1001 1817 1001 1817 1001 1836 c 0,82,83
 1001 1843 1001 1843 1003 1851 c 0,84,85
 1014 1899 1014 1899 1058 1916 c 0,86,87
 1077 1923 1077 1923 1094 1923 c 0,88,89
 1115 1923 1115 1923 1132 1911 c 0,90,91
 1153 1896 1153 1896 1201.5 1829 c 128,-1,92
 1250 1762 1250 1762 1269 1737 c 2,93,-1
 1360 1613 l 2,94,95
 1384 1580 1384 1580 1384 1566 c 2,96,-1
 1384 1563 l 1,97,98
 1382 1556 1382 1556 1374 1555 c 0,99,100
 1371 1554 1371 1554 1368 1554 c 0,101,102
 1342 1554 1342 1554 1305 1581 c 2,77,-1
1159 570 m 1,103,-1
 1038 1179 l 1,104,105
 939 1026 939 1026 840.5 874 c 128,-1,106
 742 722 742 722 644 570 c 1,107,-1
 1159 570 l 1,103,-1
EndSplineSet
Validated: 1
EndChar

StartChar: Aacute
Encoding: 193 193 130
Width: 1593
GlyphClass: 2
Flags: W
LayerCount: 2
Fore
SplineSet
1167 1427 m 1,0,1
 1190 1309 1190 1309 1224 1138 c 128,-1,2
 1258 967 1258 967 1295 786 c 128,-1,3
 1332 605 1332 605 1366 434 c 128,-1,4
 1400 263 1400 263 1424 146 c 1,5,6
 1430 109 1430 109 1467 79 c 0,7,8
 1487 64 1487 64 1507 54 c 128,-1,9
 1527 44 1527 44 1539 35 c 0,10,11
 1547 28 1547 28 1549 21 c 0,12,13
 1550 19 1550 19 1550 17 c 256,14,15
 1550 15 1550 15 1549 13 c 0,16,17
 1548 10 1548 10 1545 6 c 0,18,19
 1541 0 1541 0 1532 0 c 2,20,-1
 1194 0 l 2,21,22
 1185 0 1185 0 1177 6 c 0,23,24
 1169 13 1169 13 1169 21 c 1,25,26
 1168 24 1168 24 1168 27 c 0,27,28
 1170 36 1170 36 1185 46 c 1,29,30
 1196 55 1196 55 1211 65 c 128,-1,31
 1226 75 1226 75 1236 92 c 0,32,33
 1241 100 1241 100 1243 110 c 256,34,35
 1245 120 1245 120 1245 130 c 0,36,37
 1245 138 1245 138 1244 147 c 2,38,-1
 1175 489 l 1,39,-1
 592 489 l 1,40,41
 536 403 536 403 481 317.5 c 128,-1,42
 426 232 426 232 370 147 c 0,43,44
 356 127 356 127 352 111 c 1,45,46
 349 104 349 104 347 97 c 0,47,48
 346 90 346 90 346 84 c 2,49,-1
 346 78 l 2,50,51
 346 65 346 65 351 56.5 c 128,-1,52
 356 48 356 48 357 39 c 1,53,54
 356 31 356 31 355 28 c 0,55,56
 355 25 355 25 352 21 c 0,57,58
 340 0 340 0 325 0 c 2,59,-1
 67 0 l 2,60,61
 57 0 57 0 54 6 c 1,62,63
 55 7 55 7 55 8 c 256,64,65
 55 9 55 9 54 11 c 0,66,67
 54 13 54 13 58 21 c 1,68,69
 67 34 67 34 98 47 c 0,70,71
 114 54 114 54 133.5 62.5 c 128,-1,72
 153 71 153 71 174 83 c 0,73,74
 217 109 217 109 243 146 c 2,75,-1
 1105 1427 l 1,76,-1
 1167 1427 l 1,0,1
1022 1581 m 2,77,78
 973 1554 973 1554 947 1554 c 0,79,80
 944 1554 944 1554 941 1555 c 0,81,82
 934 1556 934 1556 934 1561 c 2,83,-1
 934 1563 l 1,84,85
 937 1576 937 1576 981 1613 c 2,86,-1
 1130 1737 l 2,87,88
 1160 1762 1160 1762 1240 1829 c 128,-1,89
 1320 1896 1320 1896 1347 1911 c 0,90,91
 1370 1923 1370 1923 1391 1923 c 0,92,93
 1408 1923 1408 1923 1424 1916 c 0,94,95
 1451 1903 1451 1903 1451 1872 c 0,96,97
 1451 1862 1451 1862 1448 1851 c 0,98,99
 1442 1823 1442 1823 1416.5 1802 c 128,-1,100
 1391 1781 1391 1781 1367 1768 c 2,101,-1
 1022 1581 l 2,77,78
1159 570 m 1,102,-1
 1038 1179 l 1,103,104
 939 1026 939 1026 840.5 874 c 128,-1,105
 742 722 742 722 644 570 c 1,106,-1
 1159 570 l 1,102,-1
EndSplineSet
Validated: 1
EndChar

StartChar: Acirc
Encoding: 194 194 131
Width: 1593
GlyphClass: 2
Flags: W
LayerCount: 2
Fore
SplineSet
1167 1427 m 1,0,1
 1190 1309 1190 1309 1224 1138 c 128,-1,2
 1258 967 1258 967 1295 786 c 128,-1,3
 1332 605 1332 605 1366 434 c 128,-1,4
 1400 263 1400 263 1424 146 c 1,5,6
 1430 109 1430 109 1467 79 c 0,7,8
 1487 64 1487 64 1507 54 c 128,-1,9
 1527 44 1527 44 1539 35 c 0,10,11
 1547 28 1547 28 1549 21 c 0,12,13
 1550 19 1550 19 1550 17 c 256,14,15
 1550 15 1550 15 1549 13 c 0,16,17
 1548 10 1548 10 1545 6 c 0,18,19
 1541 0 1541 0 1532 0 c 2,20,-1
 1194 0 l 2,21,22
 1185 0 1185 0 1177 6 c 0,23,24
 1169 13 1169 13 1169 21 c 1,25,26
 1168 24 1168 24 1168 27 c 0,27,28
 1170 36 1170 36 1185 46 c 1,29,30
 1196 55 1196 55 1211 65 c 128,-1,31
 1226 75 1226 75 1236 92 c 0,32,33
 1241 100 1241 100 1243 110 c 256,34,35
 1245 120 1245 120 1245 130 c 0,36,37
 1245 138 1245 138 1244 147 c 2,38,-1
 1175 489 l 1,39,-1
 592 489 l 1,40,41
 536 403 536 403 481 317.5 c 128,-1,42
 426 232 426 232 370 147 c 0,43,44
 356 127 356 127 352 111 c 1,45,46
 349 104 349 104 347 97 c 0,47,48
 346 90 346 90 346 84 c 2,49,-1
 346 78 l 2,50,51
 346 65 346 65 351 56.5 c 128,-1,52
 356 48 356 48 357 39 c 1,53,54
 356 31 356 31 355 28 c 0,55,56
 355 25 355 25 352 21 c 0,57,58
 340 0 340 0 325 0 c 2,59,-1
 67 0 l 2,60,61
 57 0 57 0 54 6 c 1,62,63
 55 7 55 7 55 8 c 256,64,65
 55 9 55 9 54 11 c 0,66,67
 54 13 54 13 58 21 c 1,68,69
 67 34 67 34 98 47 c 0,70,71
 114 54 114 54 133.5 62.5 c 128,-1,72
 153 71 153 71 174 83 c 0,73,74
 217 109 217 109 243 146 c 2,75,-1
 1105 1427 l 1,76,-1
 1167 1427 l 1,0,1
885 1556 m 1,77,-1
 1194 1903 l 1,78,-1
 1310 1903 l 1,79,-1
 1460 1556 l 1,80,-1
 1403 1556 l 1,81,-1
 1221 1764 l 1,82,-1
 942 1556 l 1,83,-1
 885 1556 l 1,77,-1
1159 570 m 1,84,-1
 1038 1179 l 1,85,86
 939 1026 939 1026 840.5 874 c 128,-1,87
 742 722 742 722 644 570 c 1,88,-1
 1159 570 l 1,84,-1
EndSplineSet
Validated: 1
EndChar

StartChar: Atilde
Encoding: 195 195 132
Width: 1593
GlyphClass: 2
Flags: W
LayerCount: 2
Fore
SplineSet
1167 1427 m 1,0,1
 1190 1309 1190 1309 1224 1138 c 128,-1,2
 1258 967 1258 967 1295 786 c 128,-1,3
 1332 605 1332 605 1366 434 c 128,-1,4
 1400 263 1400 263 1424 146 c 1,5,6
 1430 109 1430 109 1467 79 c 0,7,8
 1487 64 1487 64 1507 54 c 128,-1,9
 1527 44 1527 44 1539 35 c 0,10,11
 1547 28 1547 28 1549 21 c 0,12,13
 1550 19 1550 19 1550 17 c 256,14,15
 1550 15 1550 15 1549 13 c 0,16,17
 1548 10 1548 10 1545 6 c 0,18,19
 1541 0 1541 0 1532 0 c 2,20,-1
 1194 0 l 2,21,22
 1185 0 1185 0 1177 6 c 0,23,24
 1169 13 1169 13 1169 21 c 1,25,26
 1168 24 1168 24 1168 27 c 0,27,28
 1170 36 1170 36 1185 46 c 1,29,30
 1196 55 1196 55 1211 65 c 128,-1,31
 1226 75 1226 75 1236 92 c 0,32,33
 1241 100 1241 100 1243 110 c 256,34,35
 1245 120 1245 120 1245 130 c 0,36,37
 1245 138 1245 138 1244 147 c 2,38,-1
 1175 489 l 1,39,-1
 592 489 l 1,40,41
 536 403 536 403 481 317.5 c 128,-1,42
 426 232 426 232 370 147 c 0,43,44
 356 127 356 127 352 111 c 1,45,46
 349 104 349 104 347 97 c 0,47,48
 346 90 346 90 346 84 c 2,49,-1
 346 78 l 2,50,51
 346 65 346 65 351 56.5 c 128,-1,52
 356 48 356 48 357 39 c 1,53,54
 356 31 356 31 355 28 c 0,55,56
 355 25 355 25 352 21 c 0,57,58
 340 0 340 0 325 0 c 2,59,-1
 67 0 l 2,60,61
 57 0 57 0 54 6 c 1,62,63
 55 7 55 7 55 8 c 256,64,65
 55 9 55 9 54 11 c 0,66,67
 54 13 54 13 58 21 c 1,68,69
 67 34 67 34 98 47 c 0,70,71
 114 54 114 54 133.5 62.5 c 128,-1,72
 153 71 153 71 174 83 c 0,73,74
 217 109 217 109 243 146 c 2,75,-1
 1105 1427 l 1,76,-1
 1167 1427 l 1,0,1
1531 1810 m 1,77,78
 1462 1696 1462 1696 1412 1645 c 1,79,80
 1357 1591 1357 1591 1311 1591 c 0,81,82
 1233 1591 1233 1591 1159 1675 c 1,83,84
 1116 1721 1116 1721 1070 1721 c 0,85,86
 1033 1721 1033 1721 994 1692 c 0,87,88
 983 1684 983 1684 969 1673.5 c 128,-1,89
 955 1663 955 1663 937 1645 c 0,90,91
 903 1610 903 1610 877 1572 c 0,92,93
 870 1562 870 1562 862 1562 c 0,94,95
 857 1562 857 1562 851 1568 c 0,96,97
 846 1573 846 1573 846 1582 c 2,98,-1
 846 1587 l 1,99,100
 849 1597 849 1597 858 1610 c 0,101,102
 907 1682 907 1682 958.5 1758 c 128,-1,103
 1010 1834 1010 1834 1082 1834 c 0,104,105
 1169 1834 1169 1834 1239 1747 c 0,106,107
 1276 1700 1276 1700 1324 1700 c 0,108,109
 1365 1700 1365 1700 1414 1735 c 1,110,111
 1460 1766 1460 1766 1506 1842 c 0,112,113
 1514 1854 1514 1854 1523 1854 c 0,114,115
 1525 1854 1525 1854 1528 1853 c 0,116,117
 1538 1850 1538 1850 1538 1835 c 2,118,-1
 1538 1832 l 1,119,-1
 1537 1827 l 2,120,121
 1535 1819 1535 1819 1531 1810 c 1,77,78
1159 570 m 1,122,-1
 1038 1179 l 1,123,124
 939 1026 939 1026 840.5 874 c 128,-1,125
 742 722 742 722 644 570 c 1,126,-1
 1159 570 l 1,122,-1
EndSplineSet
Validated: 1
EndChar

StartChar: Auml
Encoding: 196 196 133
Width: 1593
GlyphClass: 2
Flags: W
LayerCount: 2
Fore
SplineSet
1167 1427 m 1,0,1
 1190 1309 1190 1309 1224 1138 c 128,-1,2
 1258 967 1258 967 1295 786 c 128,-1,3
 1332 605 1332 605 1366 434 c 128,-1,4
 1400 263 1400 263 1424 146 c 1,5,6
 1430 109 1430 109 1467 79 c 0,7,8
 1487 64 1487 64 1507 54 c 128,-1,9
 1527 44 1527 44 1539 35 c 0,10,11
 1547 28 1547 28 1549 21 c 0,12,13
 1550 19 1550 19 1550 17 c 256,14,15
 1550 15 1550 15 1549 13 c 0,16,17
 1548 10 1548 10 1545 6 c 0,18,19
 1541 0 1541 0 1532 0 c 2,20,-1
 1194 0 l 2,21,22
 1185 0 1185 0 1177 6 c 0,23,24
 1169 13 1169 13 1169 21 c 1,25,26
 1168 24 1168 24 1168 27 c 0,27,28
 1170 36 1170 36 1185 46 c 1,29,30
 1196 55 1196 55 1211 65 c 128,-1,31
 1226 75 1226 75 1236 92 c 0,32,33
 1241 100 1241 100 1243 110 c 256,34,35
 1245 120 1245 120 1245 130 c 0,36,37
 1245 138 1245 138 1244 147 c 2,38,-1
 1175 489 l 1,39,-1
 592 489 l 1,40,41
 536 403 536 403 481 317.5 c 128,-1,42
 426 232 426 232 370 147 c 0,43,44
 356 127 356 127 352 111 c 1,45,46
 349 104 349 104 347 97 c 0,47,48
 346 90 346 90 346 84 c 2,49,-1
 346 78 l 2,50,51
 346 65 346 65 351 56.5 c 128,-1,52
 356 48 356 48 357 39 c 1,53,54
 356 31 356 31 355 28 c 0,55,56
 355 25 355 25 352 21 c 0,57,58
 340 0 340 0 325 0 c 2,59,-1
 67 0 l 2,60,61
 57 0 57 0 54 6 c 1,62,63
 55 7 55 7 55 8 c 256,64,65
 55 9 55 9 54 11 c 0,66,67
 54 13 54 13 58 21 c 1,68,69
 67 34 67 34 98 47 c 0,70,71
 114 54 114 54 133.5 62.5 c 128,-1,72
 153 71 153 71 174 83 c 0,73,74
 217 109 217 109 243 146 c 2,75,-1
 1105 1427 l 1,76,-1
 1167 1427 l 1,0,1
1285 1708 m 0,77,78
 1294 1747 1294 1747 1330 1777.5 c 128,-1,79
 1366 1808 1366 1808 1406 1808 c 0,80,81
 1472 1808 1472 1808 1485 1746 c 0,82,83
 1487 1736 1487 1736 1487 1726 c 0,84,85
 1487 1714 1487 1714 1484 1702 c 0,86,87
 1476 1666 1476 1666 1439 1636 c 0,88,89
 1403 1607 1403 1607 1361 1607 c 1,90,91
 1360 1606 1360 1606 1359 1606 c 0,92,93
 1318 1606 1318 1606 1297 1636 c 1,94,95
 1282 1655 1282 1655 1282 1682 c 0,96,97
 1282 1694 1282 1694 1285 1708 c 0,77,78
931 1708 m 0,98,99
 947 1774 947 1774 1014 1800 c 0,100,101
 1037 1809 1037 1809 1056 1809 c 0,102,103
 1093 1809 1093 1809 1116 1778 c 0,104,105
 1134 1755 1134 1755 1134 1728 c 0,106,107
 1134 1719 1134 1719 1132 1710 c 0,108,109
 1127 1690 1127 1690 1114 1669 c 0,110,111
 1074 1607 1074 1607 1007 1607 c 0,112,113
 927 1607 927 1607 927 1674 c 0,114,115
 927 1689 927 1689 931 1708 c 0,98,99
1159 570 m 1,116,-1
 1038 1179 l 1,117,118
 939 1026 939 1026 840.5 874 c 128,-1,119
 742 722 742 722 644 570 c 1,120,-1
 1159 570 l 1,116,-1
EndSplineSet
Validated: 1
EndChar

StartChar: Aring
Encoding: 197 197 134
Width: 1593
GlyphClass: 2
Flags: W
LayerCount: 2
Fore
SplineSet
1167 1427 m 1,0,1
 1190 1309 1190 1309 1224 1138 c 128,-1,2
 1258 967 1258 967 1295 786 c 128,-1,3
 1332 605 1332 605 1366 434 c 128,-1,4
 1400 263 1400 263 1424 146 c 1,5,6
 1430 109 1430 109 1467 79 c 0,7,8
 1487 64 1487 64 1507 54 c 128,-1,9
 1527 44 1527 44 1539 35 c 0,10,11
 1547 28 1547 28 1549 21 c 0,12,13
 1550 19 1550 19 1550 17 c 256,14,15
 1550 15 1550 15 1549 13 c 0,16,17
 1548 10 1548 10 1545 6 c 0,18,19
 1541 0 1541 0 1532 0 c 2,20,-1
 1194 0 l 2,21,22
 1185 0 1185 0 1177 6 c 0,23,24
 1169 13 1169 13 1169 21 c 1,25,26
 1168 24 1168 24 1168 27 c 0,27,28
 1170 36 1170 36 1185 46 c 1,29,30
 1196 55 1196 55 1211 65 c 128,-1,31
 1226 75 1226 75 1236 92 c 0,32,33
 1241 100 1241 100 1243 110 c 256,34,35
 1245 120 1245 120 1245 130 c 0,36,37
 1245 138 1245 138 1244 147 c 2,38,-1
 1175 489 l 1,39,-1
 592 489 l 1,40,41
 536 403 536 403 481 317.5 c 128,-1,42
 426 232 426 232 370 147 c 0,43,44
 356 127 356 127 352 111 c 1,45,46
 349 104 349 104 347 97 c 0,47,48
 346 90 346 90 346 84 c 2,49,-1
 346 78 l 2,50,51
 346 65 346 65 351 56.5 c 128,-1,52
 356 48 356 48 357 39 c 1,53,54
 356 31 356 31 355 28 c 0,55,56
 355 25 355 25 352 21 c 0,57,58
 340 0 340 0 325 0 c 2,59,-1
 67 0 l 2,60,61
 57 0 57 0 54 6 c 1,62,63
 55 7 55 7 55 8 c 256,64,65
 55 9 55 9 54 11 c 0,66,67
 54 13 54 13 58 21 c 1,68,69
 67 34 67 34 98 47 c 0,70,71
 114 54 114 54 133.5 62.5 c 128,-1,72
 153 71 153 71 174 83 c 0,73,74
 217 109 217 109 243 146 c 2,75,-1
 1105 1427 l 1,76,-1
 1167 1427 l 1,0,1
1242 1920 m 0,77,78
 1322 1920 1322 1920 1366 1861 c 0,79,80
 1397 1820 1397 1820 1397 1767 c 0,81,82
 1397 1745 1397 1745 1391 1720 c 0,83,84
 1372 1637 1372 1637 1301 1579 c 128,-1,85
 1230 1521 1230 1521 1150 1521 c 0,86,87
 1069 1521 1069 1521 1025 1579 c 0,88,89
 994 1620 994 1620 994 1672 c 0,90,91
 994 1695 994 1695 1000 1720 c 0,92,93
 1019 1802 1019 1802 1090 1861 c 128,-1,94
 1161 1920 1161 1920 1242 1920 c 0,77,78
1228 1892 m 0,95,96
 1177 1892 1177 1892 1133 1842 c 1,97,98
 1095 1797 1095 1797 1081 1736 c 1,99,-1
 1077 1720 l 1,100,101
 1073 1696 1073 1696 1073 1675 c 0,102,103
 1073 1632 1073 1632 1090 1599 c 0,104,105
 1116 1549 1116 1549 1166 1549 c 0,106,107
 1215 1549 1215 1549 1259 1599 c 0,108,109
 1299 1645 1299 1645 1313 1708 c 1,110,-1
 1316 1720 l 1,111,112
 1320 1743 1320 1743 1320 1763 c 0,113,114
 1320 1807 1320 1807 1303 1842 c 1,115,116
 1277 1892 1277 1892 1228 1892 c 0,95,96
1159 570 m 1,117,-1
 1038 1179 l 1,118,119
 939 1026 939 1026 840.5 874 c 128,-1,120
 742 722 742 722 644 570 c 1,121,-1
 1159 570 l 1,117,-1
EndSplineSet
Validated: 1
EndChar

StartChar: AElig
Encoding: 198 198 135
Width: 1933
GlyphClass: 2
Flags: W
LayerCount: 2
Fore
SplineSet
1111 94 m 1,0,-1
 1539 94 l 2,1,2
 1631 94 1631 94 1712 165.5 c 128,-1,3
 1793 237 1793 237 1835 277 c 0,4,5
 1858 299 1858 299 1868 299 c 0,6,7
 1885 299 1885 299 1885 285 c 0,8,9
 1885 282 1885 282 1884 278 c 0,10,11
 1881 265 1881 265 1877 257 c 2,12,-1
 1745 0 l 1,13,-1
 826 0 l 2,14,15
 812 0 812 0 812 13 c 0,16,17
 812 16 812 16 813 21 c 0,18,19
 819 46 819 46 873 63.5 c 128,-1,20
 927 81 927 81 942 146 c 2,21,-1
 1021 489 l 1,22,-1
 516 489 l 1,23,24
 448 403 448 403 380 317.5 c 128,-1,25
 312 232 312 232 244 147 c 0,26,27
 231 131 231 131 221 111 c 1,28,29
 214 100 214 100 211 88 c 0,30,31
 210 83 210 83 210 78 c 2,32,-1
 210 72 l 2,33,34
 210 63 210 63 212 57 c 0,35,36
 215 48 215 48 215 39 c 2,37,-1
 215 33 l 1,38,39
 214 31 214 31 212 28 c 0,40,41
 211 26 211 26 209.5 24 c 128,-1,42
 208 22 208 22 208 21 c 0,43,44
 192 0 192 0 178 0 c 2,45,-1
 -79 0 l 2,46,47
 -90 0 -90 0 -92 6 c 1,48,-1
 -90 11 l 1,49,50
 -90 15 -90 15 -85 21 c 0,51,52
 -75 32 -75 32 -42 47 c 1,53,54
 -24 54 -24 54 -3.5 62.5 c 128,-1,55
 17 71 17 71 39 83 c 0,56,57
 85 109 85 109 117 146 c 1,58,-1
 1092 1336 l 1,59,60
 1056 1345 1056 1345 1026 1355 c 0,61,62
 1000 1364 1000 1364 1000 1379 c 2,63,-1
 1000 1383 l 1,64,65
 1005 1404 1005 1404 1026 1404 c 2,66,-1
 2081 1404 l 1,67,-1
 2022 1147 l 2,68,69
 2017 1126 2017 1126 1996 1126 c 0,70,71
 1986 1126 1986 1126 1968 1166 c 1,72,73
 1934 1235 1934 1235 1906.5 1273 c 128,-1,74
 1879 1311 1879 1311 1820 1311 c 2,75,-1
 1392 1311 l 1,76,-1
 1266 768 l 1,77,-1
 1495 768 l 2,78,79
 1559 768 1559 768 1591 819.5 c 128,-1,80
 1623 871 1623 871 1649 871 c 0,81,82
 1665 871 1665 871 1665 858 c 0,83,84
 1665 854 1665 854 1664 850 c 2,85,-1
 1606 596 l 2,86,87
 1601 575 1601 575 1581 575 c 0,88,89
 1555 575 1555 575 1543.5 626 c 128,-1,90
 1532 677 1532 677 1468 677 c 2,91,-1
 1245 677 l 1,92,-1
 1111 94 l 1,0,-1
1043 570 m 1,93,-1
 1215 1325 l 1,94,-1
 1186 1325 l 1,95,96
 1065 1173 1065 1173 883 947.5 c 128,-1,97
 701 722 701 722 581 570 c 1,98,-1
 1043 570 l 1,93,-1
EndSplineSet
Validated: 1
EndChar

StartChar: Ccedil
Encoding: 199 199 136
Width: 1400
GlyphClass: 2
Flags: W
LayerCount: 2
Fore
SplineSet
550 -12 m 1,0,-1
 607 -12 l 1,1,2
 595 -34 595 -34 591 -53 c 0,3,4
 589 -63 589 -63 589 -72 c 0,5,6
 589 -91 589 -91 601 -106 c 0,7,8
 628 -139 628 -139 660 -173 c 0,9,10
 694 -208 694 -208 694 -258 c 0,11,12
 694 -276 694 -276 689 -296 c 2,13,-1
 687 -305 l 1,14,15
 664 -387 664 -387 543 -396 c 1,16,-1
 528 -396 l 2,17,18
 470 -396 470 -396 396 -369 c 1,19,-1
 397 -301 l 1,20,21
 438 -335 438 -335 482 -335 c 0,22,23
 516 -335 516 -335 552 -314 c 0,24,25
 586 -294 586 -294 593 -265 c 0,26,27
 594 -259 594 -259 594 -252 c 0,28,29
 594 -219 594 -219 562 -178 c 1,30,31
 537 -148 537 -148 521 -106 c 1,32,33
 516 -96 516 -96 516 -83 c 0,34,35
 516 -76 516 -76 518 -68 c 0,36,37
 524 -42 524 -42 550 -12 c 1,0,-1
839 -37 m 0,38,39
 532 -37 532 -37 341 159 c 1,40,41
 205 297 205 297 205 510 c 0,42,43
 205 599 205 599 229 701 c 0,44,45
 307 1038 307 1038 584.5 1241.5 c 128,-1,46
 862 1445 862 1445 1182 1445 c 0,47,48
 1297 1445 1297 1445 1420.5 1419.5 c 128,-1,49
 1544 1394 1544 1394 1644 1319 c 1,50,-1
 1571 1109 l 1,51,52
 1563 1091 1563 1091 1547 1091 c 2,53,-1
 1544 1091 l 1,54,55
 1532 1092 1532 1092 1524 1119 c 1,56,57
 1491 1258 1491 1258 1405.5 1304 c 128,-1,58
 1320 1350 1320 1350 1160 1350 c 0,59,60
 937 1350 937 1350 727 1195 c 128,-1,61
 517 1040 517 1040 439 701 c 0,62,63
 424 635 424 635 424 571 c 0,64,65
 424 422 424 422 505 280 c 0,66,67
 620 77 620 77 863 65 c 0,68,69
 887 64 887 64 909 64 c 0,70,71
 1037 64 1037 64 1129 103 c 0,72,73
 1235 149 1235 149 1332 288 c 1,74,75
 1352 314 1352 314 1365 316 c 1,76,-1
 1370 316 l 2,77,78
 1384 316 1384 316 1384 300 c 2,79,-1
 1384 298 l 1,80,-1
 1381 274 l 1,81,-1
 1238 31 l 1,82,83
 1133 -9 1133 -9 1030.5 -23 c 128,-1,84
 928 -37 928 -37 839 -37 c 0,38,39
EndSplineSet
Validated: 1
EndChar

StartChar: Egrave
Encoding: 200 200 137
Width: 1251
GlyphClass: 2
Flags: W
LayerCount: 2
Fore
SplineSet
458 94 m 1,0,-1
 885 94 l 2,1,2
 978 94 978 94 1059 165.5 c 128,-1,3
 1140 237 1140 237 1182 277 c 0,4,5
 1205 299 1205 299 1215 299 c 0,6,7
 1232 299 1232 299 1232 285 c 0,8,9
 1232 282 1232 282 1231 278 c 0,10,11
 1228 265 1228 265 1224 257 c 2,12,-1
 1092 0 l 1,13,-1
 173 0 l 2,14,15
 159 0 159 0 159 13 c 0,16,17
 159 16 159 16 160 21 c 0,18,19
 166 46 166 46 220 63.5 c 128,-1,20
 274 81 274 81 289 146 c 2,21,-1
 545 1257 l 2,22,23
 549 1273 549 1273 549 1286 c 0,24,25
 549 1326 549 1326 514 1340 c 1,26,27
 473 1355 473 1355 473 1377 c 0,28,29
 473 1380 473 1380 474 1383 c 0,30,31
 479 1404 479 1404 500 1404 c 2,32,-1
 1428 1404 l 1,33,-1
 1369 1147 l 2,34,35
 1364 1126 1364 1126 1343 1126 c 0,36,37
 1333 1126 1333 1126 1315 1166 c 1,38,39
 1281 1235 1281 1235 1253.5 1273 c 128,-1,40
 1226 1311 1226 1311 1166 1311 c 2,41,-1
 739 1311 l 1,42,-1
 613 768 l 1,43,-1
 842 768 l 2,44,45
 906 768 906 768 938 819.5 c 128,-1,46
 970 871 970 871 996 871 c 0,47,48
 1012 871 1012 871 1012 858 c 0,49,50
 1012 854 1012 854 1011 850 c 2,51,-1
 953 596 l 2,52,53
 948 575 948 575 928 575 c 0,54,55
 902 575 902 575 890.5 626 c 128,-1,56
 879 677 879 677 815 677 c 2,57,-1
 592 677 l 1,58,-1
 458 94 l 1,0,-1
1168 1581 m 2,59,-1
 909 1768 l 2,60,61
 891 1781 891 1781 875 1802 c 0,62,63
 863 1817 863 1817 863 1836 c 0,64,65
 863 1843 863 1843 865 1851 c 0,66,67
 876 1899 876 1899 920 1916 c 0,68,69
 939 1923 939 1923 956 1923 c 0,70,71
 977 1923 977 1923 994 1911 c 0,72,73
 1015 1896 1015 1896 1064 1829 c 128,-1,74
 1113 1762 1113 1762 1132 1737 c 2,75,-1
 1222 1613 l 2,76,77
 1247 1580 1247 1580 1247 1565 c 2,78,-1
 1247 1562 l 1,79,80
 1245 1556 1245 1556 1236 1555 c 0,81,82
 1233 1554 1233 1554 1230 1554 c 0,83,84
 1205 1554 1205 1554 1168 1581 c 2,59,-1
EndSplineSet
Validated: 1
EndChar

StartChar: Eacute
Encoding: 201 201 138
Width: 1251
GlyphClass: 2
Flags: W
LayerCount: 2
Fore
SplineSet
458 94 m 1,0,-1
 885 94 l 2,1,2
 978 94 978 94 1059 165.5 c 128,-1,3
 1140 237 1140 237 1182 277 c 0,4,5
 1205 299 1205 299 1215 299 c 0,6,7
 1232 299 1232 299 1232 285 c 0,8,9
 1232 282 1232 282 1231 278 c 0,10,11
 1228 265 1228 265 1224 257 c 2,12,-1
 1092 0 l 1,13,-1
 173 0 l 2,14,15
 159 0 159 0 159 13 c 0,16,17
 159 16 159 16 160 21 c 0,18,19
 166 46 166 46 220 63.5 c 128,-1,20
 274 81 274 81 289 146 c 2,21,-1
 545 1257 l 2,22,23
 549 1273 549 1273 549 1286 c 0,24,25
 549 1326 549 1326 514 1340 c 1,26,27
 473 1355 473 1355 473 1377 c 0,28,29
 473 1380 473 1380 474 1383 c 0,30,31
 479 1404 479 1404 500 1404 c 2,32,-1
 1428 1404 l 1,33,-1
 1369 1147 l 2,34,35
 1364 1126 1364 1126 1343 1126 c 0,36,37
 1333 1126 1333 1126 1315 1166 c 1,38,39
 1281 1235 1281 1235 1253.5 1273 c 128,-1,40
 1226 1311 1226 1311 1166 1311 c 2,41,-1
 739 1311 l 1,42,-1
 613 768 l 1,43,-1
 842 768 l 2,44,45
 906 768 906 768 938 819.5 c 128,-1,46
 970 871 970 871 996 871 c 0,47,48
 1012 871 1012 871 1012 858 c 0,49,50
 1012 854 1012 854 1011 850 c 2,51,-1
 953 596 l 2,52,53
 948 575 948 575 928 575 c 0,54,55
 902 575 902 575 890.5 626 c 128,-1,56
 879 677 879 677 815 677 c 2,57,-1
 592 677 l 1,58,-1
 458 94 l 1,0,-1
884 1581 m 2,59,60
 835 1554 835 1554 809 1554 c 0,61,62
 806 1554 806 1554 804 1555 c 0,63,64
 797 1556 797 1556 797 1560 c 2,65,-1
 797 1562 l 1,66,67
 800 1576 800 1576 844 1613 c 2,68,-1
 992 1737 l 2,69,70
 1022 1762 1022 1762 1102 1829 c 128,-1,71
 1182 1896 1182 1896 1209 1911 c 0,72,73
 1232 1923 1232 1923 1254 1923 c 0,74,75
 1270 1923 1270 1923 1286 1916 c 0,76,77
 1314 1903 1314 1903 1314 1872 c 0,78,79
 1314 1862 1314 1862 1311 1851 c 0,80,81
 1305 1823 1305 1823 1279 1802 c 128,-1,82
 1253 1781 1253 1781 1229 1768 c 2,83,-1
 884 1581 l 2,59,60
EndSplineSet
Validated: 1
EndChar

StartChar: Ecirc
Encoding: 202 202 139
Width: 1251
GlyphClass: 2
Flags: W
LayerCount: 2
Fore
SplineSet
458 94 m 1,0,-1
 885 94 l 2,1,2
 978 94 978 94 1059 165.5 c 128,-1,3
 1140 237 1140 237 1182 277 c 0,4,5
 1205 299 1205 299 1215 299 c 0,6,7
 1232 299 1232 299 1232 285 c 0,8,9
 1232 282 1232 282 1231 278 c 0,10,11
 1228 265 1228 265 1224 257 c 2,12,-1
 1092 0 l 1,13,-1
 173 0 l 2,14,15
 159 0 159 0 159 13 c 0,16,17
 159 16 159 16 160 21 c 0,18,19
 166 46 166 46 220 63.5 c 128,-1,20
 274 81 274 81 289 146 c 2,21,-1
 545 1257 l 2,22,23
 549 1273 549 1273 549 1286 c 0,24,25
 549 1326 549 1326 514 1340 c 1,26,27
 473 1355 473 1355 473 1377 c 0,28,29
 473 1380 473 1380 474 1383 c 0,30,31
 479 1404 479 1404 500 1404 c 2,32,-1
 1428 1404 l 1,33,-1
 1369 1147 l 2,34,35
 1364 1126 1364 1126 1343 1126 c 0,36,37
 1333 1126 1333 1126 1315 1166 c 1,38,39
 1281 1235 1281 1235 1253.5 1273 c 128,-1,40
 1226 1311 1226 1311 1166 1311 c 2,41,-1
 739 1311 l 1,42,-1
 613 768 l 1,43,-1
 842 768 l 2,44,45
 906 768 906 768 938 819.5 c 128,-1,46
 970 871 970 871 996 871 c 0,47,48
 1012 871 1012 871 1012 858 c 0,49,50
 1012 854 1012 854 1011 850 c 2,51,-1
 953 596 l 2,52,53
 948 575 948 575 928 575 c 0,54,55
 902 575 902 575 890.5 626 c 128,-1,56
 879 677 879 677 815 677 c 2,57,-1
 592 677 l 1,58,-1
 458 94 l 1,0,-1
732 1556 m 1,59,-1
 1042 1903 l 1,60,-1
 1158 1903 l 1,61,-1
 1307 1556 l 1,62,-1
 1250 1556 l 1,63,-1
 1068 1764 l 1,64,-1
 790 1556 l 1,65,-1
 732 1556 l 1,59,-1
EndSplineSet
Validated: 1
EndChar

StartChar: Euml
Encoding: 203 203 140
Width: 1251
GlyphClass: 2
Flags: W
LayerCount: 2
Fore
SplineSet
458 94 m 1,0,-1
 885 94 l 2,1,2
 978 94 978 94 1059 165.5 c 128,-1,3
 1140 237 1140 237 1182 277 c 0,4,5
 1205 299 1205 299 1215 299 c 0,6,7
 1232 299 1232 299 1232 285 c 0,8,9
 1232 282 1232 282 1231 278 c 0,10,11
 1228 265 1228 265 1224 257 c 2,12,-1
 1092 0 l 1,13,-1
 173 0 l 2,14,15
 159 0 159 0 159 13 c 0,16,17
 159 16 159 16 160 21 c 0,18,19
 166 46 166 46 220 63.5 c 128,-1,20
 274 81 274 81 289 146 c 2,21,-1
 545 1257 l 2,22,23
 549 1273 549 1273 549 1286 c 0,24,25
 549 1326 549 1326 514 1340 c 1,26,27
 473 1355 473 1355 473 1377 c 0,28,29
 473 1380 473 1380 474 1383 c 0,30,31
 479 1404 479 1404 500 1404 c 2,32,-1
 1428 1404 l 1,33,-1
 1369 1147 l 2,34,35
 1364 1126 1364 1126 1343 1126 c 0,36,37
 1333 1126 1333 1126 1315 1166 c 1,38,39
 1281 1235 1281 1235 1253.5 1273 c 128,-1,40
 1226 1311 1226 1311 1166 1311 c 2,41,-1
 739 1311 l 1,42,-1
 613 768 l 1,43,-1
 842 768 l 2,44,45
 906 768 906 768 938 819.5 c 128,-1,46
 970 871 970 871 996 871 c 0,47,48
 1012 871 1012 871 1012 858 c 0,49,50
 1012 854 1012 854 1011 850 c 2,51,-1
 953 596 l 2,52,53
 948 575 948 575 928 575 c 0,54,55
 902 575 902 575 890.5 626 c 128,-1,56
 879 677 879 677 815 677 c 2,57,-1
 592 677 l 1,58,-1
 458 94 l 1,0,-1
1132 1708 m 0,59,60
 1141 1747 1141 1747 1177 1777.5 c 128,-1,61
 1213 1808 1213 1808 1254 1808 c 0,62,63
 1320 1808 1320 1808 1332 1746 c 0,64,65
 1334 1736 1334 1736 1334 1726 c 0,66,67
 1334 1714 1334 1714 1331 1702 c 0,68,69
 1323 1666 1323 1666 1287 1636 c 1,70,71
 1243 1601 1243 1601 1207 1601 c 256,72,73
 1171 1601 1171 1601 1144 1636 c 0,74,75
 1129 1655 1129 1655 1129 1682 c 0,76,77
 1129 1694 1129 1694 1132 1708 c 0,59,60
778 1708 m 0,78,79
 794 1774 794 1774 861 1800 c 0,80,81
 884 1809 884 1809 904 1809 c 0,82,83
 941 1809 941 1809 964 1778 c 0,84,85
 982 1755 982 1755 982 1728 c 0,86,87
 982 1719 982 1719 980 1710 c 0,88,89
 975 1690 975 1690 961 1669 c 0,90,91
 922 1607 922 1607 854 1607 c 0,92,93
 774 1607 774 1607 774 1674 c 0,94,95
 774 1689 774 1689 778 1708 c 0,78,79
EndSplineSet
Validated: 1
EndChar

StartChar: Igrave
Encoding: 204 204 141
Width: 690
GlyphClass: 2
Flags: W
LayerCount: 2
Fore
SplineSet
725 1257 m 2,0,-1
 469 147 l 2,1,2
 465 131 465 131 465 117 c 0,3,4
 465 77 465 77 500 64 c 0,5,6
 541 48 541 48 541 27 c 0,7,8
 541 24 541 24 540 21 c 0,9,10
 535 0 535 0 514 0 c 2,11,-1
 175 0 l 2,12,13
 159 0 159 0 159 13 c 0,14,15
 159 17 159 17 160 21 c 0,16,17
 166 46 166 46 220 63.5 c 128,-1,18
 274 81 274 81 289 146 c 2,19,-1
 545 1257 l 2,20,21
 549 1273 549 1273 549 1286 c 0,22,23
 549 1326 549 1326 514 1340 c 1,24,25
 473 1355 473 1355 473 1377 c 0,26,27
 473 1380 473 1380 474 1383 c 0,28,29
 479 1404 479 1404 500 1404 c 2,30,-1
 838 1404 l 2,31,32
 855 1404 855 1404 855 1390 c 0,33,34
 855 1387 855 1387 854 1383 c 0,35,36
 848 1357 848 1357 794 1339.5 c 128,-1,37
 740 1322 740 1322 725 1257 c 2,0,-1
852 1581 m 2,38,-1
 593 1768 l 2,39,40
 575 1781 575 1781 559 1802 c 0,41,42
 547 1817 547 1817 547 1836 c 0,43,44
 547 1843 547 1843 549 1851 c 0,45,46
 560 1899 560 1899 604 1916 c 0,47,48
 623 1923 623 1923 640 1923 c 0,49,50
 661 1923 661 1923 678 1911 c 0,51,52
 699 1896 699 1896 748 1829 c 128,-1,53
 797 1762 797 1762 816 1737 c 2,54,-1
 906 1613 l 2,55,56
 931 1580 931 1580 931 1565 c 2,57,-1
 931 1562 l 1,58,59
 929 1556 929 1556 920 1555 c 0,60,61
 917 1554 917 1554 914 1554 c 0,62,63
 889 1554 889 1554 852 1581 c 2,38,-1
EndSplineSet
Validated: 1
EndChar

StartChar: Iacute
Encoding: 205 205 142
Width: 690
GlyphClass: 2
Flags: W
LayerCount: 2
Fore
SplineSet
725 1257 m 2,0,-1
 469 147 l 2,1,2
 465 131 465 131 465 117 c 0,3,4
 465 77 465 77 500 64 c 0,5,6
 541 48 541 48 541 27 c 0,7,8
 541 24 541 24 540 21 c 0,9,10
 535 0 535 0 514 0 c 2,11,-1
 175 0 l 2,12,13
 159 0 159 0 159 13 c 0,14,15
 159 17 159 17 160 21 c 0,16,17
 166 46 166 46 220 63.5 c 128,-1,18
 274 81 274 81 289 146 c 2,19,-1
 545 1257 l 2,20,21
 549 1273 549 1273 549 1286 c 0,22,23
 549 1326 549 1326 514 1340 c 1,24,25
 473 1355 473 1355 473 1377 c 0,26,27
 473 1380 473 1380 474 1383 c 0,28,29
 479 1404 479 1404 500 1404 c 2,30,-1
 838 1404 l 2,31,32
 855 1404 855 1404 855 1390 c 0,33,34
 855 1387 855 1387 854 1383 c 0,35,36
 848 1357 848 1357 794 1339.5 c 128,-1,37
 740 1322 740 1322 725 1257 c 2,0,-1
568 1581 m 2,38,39
 519 1554 519 1554 493 1554 c 0,40,41
 490 1554 490 1554 488 1555 c 0,42,43
 481 1556 481 1556 481 1561 c 2,44,-1
 481 1563 l 1,45,46
 484 1576 484 1576 527 1613 c 2,47,-1
 676 1737 l 2,48,49
 706 1762 706 1762 786 1829 c 128,-1,50
 866 1896 866 1896 893 1911 c 0,51,52
 916 1923 916 1923 938 1923 c 0,53,54
 954 1923 954 1923 970 1916 c 0,55,56
 998 1903 998 1903 998 1872 c 0,57,58
 998 1862 998 1862 995 1851 c 0,59,60
 989 1823 989 1823 963 1802 c 128,-1,61
 937 1781 937 1781 913 1768 c 2,62,-1
 568 1581 l 2,38,39
EndSplineSet
Validated: 1
EndChar

StartChar: Icirc
Encoding: 206 206 143
Width: 690
GlyphClass: 2
Flags: W
LayerCount: 2
Fore
SplineSet
725 1257 m 2,0,-1
 469 147 l 2,1,2
 465 131 465 131 465 117 c 0,3,4
 465 77 465 77 500 64 c 0,5,6
 541 48 541 48 541 27 c 0,7,8
 541 24 541 24 540 21 c 0,9,10
 535 0 535 0 514 0 c 2,11,-1
 175 0 l 2,12,13
 159 0 159 0 159 13 c 0,14,15
 159 17 159 17 160 21 c 0,16,17
 166 46 166 46 220 63.5 c 128,-1,18
 274 81 274 81 289 146 c 2,19,-1
 545 1257 l 2,20,21
 549 1273 549 1273 549 1286 c 0,22,23
 549 1326 549 1326 514 1340 c 1,24,25
 473 1355 473 1355 473 1377 c 0,26,27
 473 1380 473 1380 474 1383 c 0,28,29
 479 1404 479 1404 500 1404 c 2,30,-1
 838 1404 l 2,31,32
 855 1404 855 1404 855 1390 c 0,33,34
 855 1387 855 1387 854 1383 c 0,35,36
 848 1357 848 1357 794 1339.5 c 128,-1,37
 740 1322 740 1322 725 1257 c 2,0,-1
417 1556 m 1,38,-1
 726 1903 l 1,39,-1
 842 1903 l 1,40,-1
 991 1556 l 1,41,-1
 934 1556 l 1,42,-1
 752 1764 l 1,43,-1
 474 1556 l 1,44,-1
 417 1556 l 1,38,-1
EndSplineSet
Validated: 1
EndChar

